<svg aria-hidden="true" style="position: absolute; width: 0; height: 0; overflow: hidden;" version="1.1" xmlns="http://www.w3.org/2000/svg" xmlns:xlink="http://www.w3.org/1999/xlink">
<defs>

<symbol id="icon-location-pin" viewBox="0 0 32 32">
<title>location-pin</title>
<path d="M16 3.214c-4.419 0-8 3.566-8 7.984 0 7.638 8 17.6 8 17.6s8-9.963 8-17.6c0-4.416-3.581-7.984-8-7.984zM16 15.616c-2.387 0-4.32-1.934-4.32-4.32s1.933-4.32 4.32-4.32c2.384 0 4.318 1.934 4.318 4.32s-1.934 4.32-4.318 4.32z"></path>
</symbol>

<symbol id="icon-magnifying-glass" viewBox="0 0 32 32">
<title>magnifying-glass</title>
<path d="M28.072 24.747l-6.046-6.046c0.912-1.496 1.437-3.256 1.437-5.136 0-5.467-4.738-10.203-10.205-10.203-5.467-0.002-9.898 4.43-9.898 9.898 0 5.466 4.738 10.203 10.203 10.203 1.819 0 3.52-0.494 4.984-1.35l6.078 6.082c0.595 0.594 1.56 0.594 2.154 0l1.509-1.509c0.594-0.594 0.378-1.344-0.216-1.938zM6.406 13.259c0-3.786 3.067-6.853 6.851-6.853 3.786 0 7.158 3.371 7.158 7.158 0 3.784-3.069 6.853-6.853 6.853-3.786-0.002-7.157-3.374-7.157-7.158z"></path>
</symbol>

<symbol id="icon-map" viewBox="0 0 32 32">
<title>map</title>
<path d="M31.115 5.949l-9.6-4.8c-0.45-0.226-0.981-0.226-1.432 0l-9.008 4.504-8.97-2.99c-0.49-0.163-1.024-0.082-1.442 0.221-0.418 0.301-0.664 0.784-0.664 1.298v20.802c0 0.606 0.342 1.16 0.885 1.43l9.6 4.8c0.226 0.112 0.47 0.17 0.715 0.17s0.491-0.056 0.715-0.17l9.008-4.502 8.97 2.99c0.488 0.16 1.024 0.078 1.442-0.222s0.664-0.784 0.664-1.296v-20.803c0.002-0.606-0.341-1.16-0.883-1.43zM12.8 8.37l6.4-3.2v18.821l-6.4 3.2v-18.821zM3.2 6.4l6.4 2.133v18.658l-6.4-3.2v-17.59zM28.8 25.963l-6.4-2.134v-18.659l6.4 3.2v17.594z"></path>
</symbol>

<symbol id="icon-max-temp" viewBox="0 0 9 24">
<title>max-temp</title>
<path d="M5.2395 17.3745C6.1185 17.6805 6.75 18.5168 6.75 19.5C6.75 20.7428 5.74275 21.75 4.5 21.75C3.25725 21.75 2.25 20.7428 2.25 19.5C2.25 18.5168 2.88075 17.6805 3.7605 17.3745C3.75375 17.334 3.75 17.2927 3.75 17.25V6C3.75 5.59125 4.086 5.25 4.5 5.25C4.917 5.25 5.25 5.586 5.25 6V17.25C5.25 17.292 5.24625 17.334 5.2395 17.3745ZM6 16.9012V3.00225C6 2.172 5.334 1.49925 4.5 1.49925C3.67125 1.49925 3 2.16675 3 3.00225V16.9012C2.103 17.4202 1.5 18.3892 1.5 19.5C1.5 21.1567 2.84325 22.5 4.5 22.5C6.15675 22.5 7.5 21.1567 7.5 19.5C7.5 18.3892 6.897 17.4202 6 16.9012ZM7.47675 16.125C8.41125 16.9492 9 18.156 9 19.5C9 21.9855 6.9855 24 4.5 24C2.0145 24 0 21.9855 0 19.5C0 18.156 0.5895 16.9492 1.52325 16.125C1.5075 16.0012 1.5 15.876 1.5 15.7477V3.00225C1.5 1.3485 2.84325 0 4.5 0C6.15375 0 7.5 1.344 7.5 3.00225V15.7477C7.5 15.8752 7.49175 16.0012 7.47675 16.125Z"></path>
</symbol>

<symbol id="icon-min-temp" viewBox="0 0 9 24">
<title>min-temp</title>
<path d="M5.2395 17.3745C6.1185 17.6805 6.75 18.5168 6.75 19.5C6.75 20.7428 5.74275 21.75 4.5 21.75C3.25725 21.75 2.25 20.7428 2.25 19.5C2.25 18.5168 2.88075 17.6805 3.7605 17.3745C3.75375 17.3333 3.75 17.2913 3.75 17.2477V13.5023C3.75 13.0785 4.086 12.75 4.5 12.75C4.917 12.75 5.25 13.0868 5.25 13.5023V17.2477C5.25 17.2913 5.24625 17.3333 5.2395 17.3745ZM6 16.9012V3.00225C6 2.172 5.334 1.49925 4.5 1.49925C3.67125 1.49925 3 2.16675 3 3.00225V16.9012C2.103 17.4202 1.5 18.3892 1.5 19.5C1.5 21.1567 2.84325 22.5 4.5 22.5C6.15675 22.5 7.5 21.1567 7.5 19.5C7.5 18.3892 6.897 17.4202 6 16.9012ZM7.47675 16.125C8.41125 16.9492 9 18.156 9 19.5C9 21.9855 6.9855 24 4.5 24C2.0145 24 0 21.9855 0 19.5C0 18.156 0.5895 16.9492 1.52325 16.125C1.5075 16.0012 1.5 15.876 1.5 15.7477V3.00225C1.5 1.3485 2.84325 0 4.5 0C6.15375 0 7.5 1.344 7.5 3.00225V15.7477C7.5 15.8752 7.49175 16.0012 7.47675 16.125Z"></path>
</symbol>

<symbol id="icon-cloud" viewBox="0 0 9 24">
<title>cloud</title>
<path d="M640 362.24c0 82.688-68.608 149.76-153.184 149.76h-371.072c-63.936 0-115.744-50.688-115.744-113.184 0-62.432 51.808-113.12 115.744-113.12 4.672 0 9.216 0.384 13.728 0.864-1.184-7.872-1.824-15.936-1.824-24.192 0-91.872 76.192-166.368 170.24-166.368 77.024 0 142.048 49.984 163.072 118.624 8.416-1.376 17.024-2.112 25.888-2.112 84.544 0 153.152 66.976 153.152 149.728z"></path>
</symbol>

</defs>
</svg>
