<svg width="500" height="500" viewBox="0 0 500 500" fill="none" xmlns="http://www.w3.org/2000/svg">
<g id="01n">
<g clip-path="url(#clip0)">
<g id="01n_2">
<path id="Vector" d="M341.66 189.62C342.337 189.803 342.935 190.203 343.362 190.76C343.788 191.317 344.02 191.999 344.02 192.7C344.02 193.401 343.788 194.083 343.362 194.64C342.935 195.197 342.337 195.597 341.66 195.78V195.78C334.163 197.797 327.328 201.749 321.838 207.238C316.349 212.728 312.397 219.563 310.38 227.06V227.06C310.197 227.737 309.797 228.335 309.24 228.762C308.683 229.188 308.001 229.42 307.3 229.42C306.599 229.42 305.917 229.188 305.36 228.762C304.803 228.335 304.403 227.737 304.22 227.06C302.202 219.563 298.251 212.728 292.762 207.238C287.272 201.749 280.437 197.797 272.94 195.78V195.78C272.263 195.597 271.665 195.197 271.238 194.64C270.812 194.083 270.58 193.401 270.58 192.7C270.58 191.999 270.812 191.317 271.238 190.76C271.665 190.203 272.263 189.803 272.94 189.62V189.62C280.437 187.603 287.272 183.651 292.762 178.162C298.251 172.672 302.202 165.837 304.22 158.34V158.34C304.403 157.663 304.803 157.065 305.36 156.638C305.917 156.212 306.599 155.98 307.3 155.98C308.001 155.98 308.683 156.212 309.24 156.638C309.797 157.065 310.197 157.663 310.38 158.34V158.34C312.397 165.837 316.349 172.672 321.838 178.162C327.328 183.651 334.163 187.603 341.66 189.62V189.62Z" fill="white"/>
<path id="Vector_2" d="M339.67 196.85C336.34 195.95 343.88 188.27 338.29 188.94C337.602 189.099 336.932 189.326 336.29 189.62C334.57 190.23 332.87 190.94 331.22 191.69C327.68 193.343 324.347 195.407 321.29 197.84C315.817 202.081 311.262 207.388 307.9 213.44C306.26 216.44 304.04 220.28 303.58 223.68C303.23 226.21 301.44 225.06 307.34 225.06C312.2 225.06 311.87 226.06 310.88 223C310.232 221.035 309.481 219.106 308.63 217.22C305.823 210.877 301.738 205.182 296.63 200.49C291.168 195.52 284.736 191.734 277.74 189.37C276.867 188.973 275.946 188.694 275 188.54V192.69C273.667 196.077 273.897 197.41 275.69 196.69C277.06 196.69 279.09 195.58 280.39 195.06C284.05 193.644 287.533 191.809 290.77 189.59C299.547 183.616 306.249 175.061 309.95 165.11C310.44 163.85 311.53 161.79 311.52 160.38H303.21L303.6 161.76C303.861 162.922 304.257 164.05 304.78 165.12C307.736 172.766 312.433 179.619 318.498 185.136C324.562 190.652 331.828 194.68 339.72 196.9C349.02 199.56 352.99 185.09 343.72 182.44C335.15 180.116 327.698 174.793 322.72 167.44C318.4 160.85 317.72 148.96 307.85 148.57C297.27 148.16 296.55 160.64 292.09 167.44C287.338 174.387 280.373 179.519 272.33 182C268.21 183.38 264.75 185.31 263.5 189.84C262.884 192.156 263.061 194.613 264.004 196.816C264.946 199.02 266.6 200.845 268.7 202C272.15 203.9 276.13 204.51 279.61 206.5C283.49 208.718 286.947 211.606 289.82 215.03C292.289 217.993 294.267 221.332 295.68 224.92C297.46 229.43 298.09 233.83 303.12 235.92C305.176 236.801 307.457 237.012 309.639 236.524C311.822 236.036 313.795 234.873 315.28 233.2C318.06 229.99 318.51 225.25 320.48 221.54C325.21 212.63 332.83 206.6 342.27 203.32C346.89 201.71 350.64 199.32 351.35 194.05C351.698 191.492 351.11 188.895 349.696 186.736C348.281 184.577 346.134 183.002 343.65 182.3C334.32 179.87 330.34 194.34 339.67 196.85Z" fill="#231815"/>
<path id="Vector_3" d="M232.91 267.09C215.467 249.648 203.634 227.391 198.93 203.177C194.226 178.962 196.866 153.894 206.51 131.19C187.88 139.118 171.481 151.497 158.75 167.24C146.02 182.984 137.347 201.61 133.493 221.487C129.639 241.363 130.722 261.881 136.646 281.242C142.57 300.602 153.154 318.213 167.471 332.529C181.787 346.846 199.398 357.43 218.758 363.354C238.119 369.278 258.637 370.361 278.513 366.507C298.39 362.653 317.016 353.98 332.76 341.25C348.503 328.519 360.882 312.12 368.81 293.49C346.106 303.134 321.038 305.774 296.823 301.07C272.609 296.366 250.352 284.533 232.91 267.09V267.09Z" fill="#F4EC90"/>
<path id="Vector_4" d="M238.21 261.79C204.62 227.79 195.38 177.15 213.74 133.19C216.6 126.35 207.85 122.5 202.74 124.72C171.711 138.157 147.07 163.058 133.96 194.227C120.85 225.396 120.284 260.424 132.38 292C144.3 322.67 167.54 348.58 197.26 363C213.192 370.794 230.538 375.276 248.252 376.175C265.965 377.074 283.676 374.371 300.315 368.23C316.954 362.088 332.174 352.636 345.056 340.445C357.937 328.253 368.213 313.576 375.26 297.3C377.46 292.21 373.61 283.44 366.79 286.3C322.79 304.66 272.2 295.42 238.19 261.83C231.31 255.04 220.7 265.64 227.58 272.44C265.03 309.44 322.03 321.12 370.78 300.77L362.31 289.77C349.67 318.98 325.94 342.85 295.91 353.96C269.221 363.823 239.871 363.738 213.24 353.72C158.06 332.99 127.4 271.17 142.73 214.65C152.14 179.94 177.4 151.96 210.28 137.74L199.28 129.27C178.93 178.01 190.62 235.02 227.61 272.47C234.4 279.27 245 268.66 238.21 261.79Z" fill="#231815"/>
</g>
</g>
</g>
<defs>
<clipPath id="clip0">
<rect width="500" height="500" fill="white"/>
</clipPath>
</defs>
</svg>
