<svg width="500" height="500" viewBox="0 0 500 500" fill="none" xmlns="http://www.w3.org/2000/svg">
<g id="02d">
<g id="02d_2">
<path id="Vector" d="M236.75 272.11C245.94 260.305 258.176 251.229 272.14 245.86C286.104 240.491 301.268 239.032 316 241.64C319.51 242.26 322.971 243.125 326.36 244.23C323.745 227.627 316.13 212.216 304.531 200.053C292.932 187.889 277.9 179.551 261.44 176.15C228.11 169.4 193.17 185 175.64 214C168.799 225.468 164.825 238.418 164.058 251.75C163.29 265.082 165.75 278.402 171.23 290.58C171.7 290.12 172.17 289.66 172.65 289.21C181.112 281.32 191.385 275.634 202.564 272.652C213.742 269.67 225.483 269.483 236.75 272.11V272.11Z" fill="#F8B62D" stroke="#231815" stroke-miterlimit="10"/>
<path id="Vector_2" d="M171.23 290.58C165.75 278.402 163.29 265.082 164.058 251.75C164.826 238.418 168.799 225.468 175.64 214C193.18 185.05 228.12 169.4 261.4 176.14C277.86 179.541 292.892 187.879 304.491 200.043C316.09 212.206 323.705 227.617 326.32 244.22C331.851 246.021 337.164 248.432 342.16 251.41C341.027 232.409 334.384 214.149 323.043 198.86C311.703 183.572 296.155 171.917 278.3 165.32C240.61 151.5 196.4 163.7 171.03 194.75C146.03 225.35 141.77 269.05 161.03 303.55C163.889 298.827 167.314 294.472 171.23 290.58V290.58Z" fill="#231815" stroke="#231815" stroke-miterlimit="10"/>
<path id="Vector_3" d="M253.07 131.54V97.89C253.07 88.24 238.07 88.22 238.07 97.89V131.54C238.07 141.19 253.07 141.21 253.07 131.54Z" fill="#231815" stroke="#231815" stroke-miterlimit="10"/>
<path id="Vector_4" d="M176.66 152.05C181.49 160.41 194.45 152.86 189.66 144.48L172.83 115.33C168 106.97 155.04 114.52 159.83 122.9L176.66 152.05ZM183.14 148.26L166.31 119.11L183.14 148.26Z" fill="#231815" stroke="#231815" stroke-miterlimit="10"/>
<path id="Vector_5" d="M141.22 187.49L112.07 170.66C103.7 165.82 96.1301 178.78 104.5 183.66L133.65 200.49C142 205.28 149.59 192.32 141.22 187.49ZM108.29 177.14L137.44 194L108.29 177.14Z" fill="#231815" stroke="#231815" stroke-miterlimit="10"/>
<path id="Vector_6" d="M87.06 263.9H120.71C130.36 263.9 130.38 248.9 120.71 248.9H87.06C77.4 248.9 77.39 263.9 87.06 263.9Z" fill="#231815" stroke="#231815" stroke-miterlimit="10"/>
<path id="Vector_7" d="M112.08 342.13L141.23 325.3C149.59 320.47 142.04 307.51 133.66 312.3L104.51 329.13C96.15 334 103.69 347 112.08 342.13ZM137.44 318.83L108.29 335.66L137.44 318.83Z" fill="#231815" stroke="#231815" stroke-miterlimit="10"/>
<path id="Vector_8" d="M370.42 263.9H404.07C413.72 263.9 413.74 248.9 404.07 248.9H370.42C360.77 248.9 360.75 263.9 370.42 263.9Z" fill="#231815" stroke="#231815" stroke-miterlimit="10"/>
<path id="Vector_9" d="M357.48 200.44L386.63 183.61C394.99 178.78 387.44 165.82 379.06 170.61L349.91 187.44C341.55 192.32 349.1 205.28 357.48 200.44ZM382.84 177.14L353.7 194L382.84 177.14Z" fill="#231815" stroke="#231815" stroke-miterlimit="10"/>
<path id="Vector_10" d="M314.47 152.05L331.3 122.9C336.14 114.53 323.18 106.96 318.3 115.33L301.47 144.48C296.68 152.86 309.64 160.42 314.47 152.05ZM324.82 119.12L308 148.27L324.82 119.12Z" fill="#231815" stroke="#231815" stroke-miterlimit="10"/>
<path id="Vector_11" d="M377.25 293.37C377.79 294.78 378.3 296.21 378.76 297.66C379.215 298.978 379.271 300.401 378.92 301.75C390.349 305.916 399.945 313.976 406.023 324.513C412.101 335.051 414.273 347.393 412.157 359.372C410.04 371.351 403.772 382.202 394.452 390.02C385.131 397.837 373.355 402.121 361.19 402.12H220.54C209.809 402.121 199.261 399.346 189.919 394.067C180.577 388.787 172.759 381.182 167.224 371.989C161.689 362.795 158.625 352.327 158.33 341.601C158.035 330.874 160.519 320.253 165.54 310.77C164.54 309.33 163.59 307.87 162.68 306.37C162.12 305.44 161.58 304.5 161.06 303.56C152.42 317.971 149.151 334.972 151.83 351.56C153.699 362.556 158.178 372.942 164.891 381.849C171.604 390.756 180.355 397.924 190.41 402.75C202.09 408.22 214.19 409.61 226.86 409.61H350.31C360.11 409.61 369.81 409.89 379.31 406.79C403.94 398.73 421.16 374.96 420.44 348.92C420.017 336.29 415.613 324.116 407.856 314.139C400.099 304.162 389.387 296.893 377.25 293.37V293.37Z" fill="#231815" stroke="#231815" stroke-miterlimit="10"/>
<path id="Vector_12" d="M220.54 277.65C227.051 277.639 233.523 278.652 239.72 280.65C248.962 266.748 262.647 256.394 278.538 251.278C294.428 246.163 311.584 246.59 327.2 252.49C327.044 249.713 326.747 246.946 326.31 244.2C322.937 243.108 319.492 242.252 316 241.64C301.274 239.04 286.119 240.503 272.162 245.871C258.206 251.24 245.977 260.311 236.79 272.11C238.46 272.49 240.11 272.93 241.79 273.44L233.32 276.89C234.44 275.25 235.607 273.657 236.82 272.11C225.551 269.482 213.809 269.667 202.628 272.649C191.448 275.631 181.173 281.319 172.71 289.21C172.23 289.66 171.71 290.12 171.29 290.59C172.38 293.003 173.592 295.359 174.92 297.65C180.73 291.346 187.783 286.314 195.635 282.871C203.487 279.429 211.967 277.651 220.54 277.65V277.65Z" fill="#231815" stroke="#231815" stroke-miterlimit="10"/>
<path id="Vector_13" d="M241.72 273.44C240.07 272.93 238.42 272.49 236.72 272.11C235.507 273.657 234.34 275.25 233.22 276.89L241.72 273.44Z" fill="#231815" stroke="#231815" stroke-miterlimit="10"/>
<path id="Vector_14" d="M342.22 260.28C354.103 268.286 363.406 279.569 369 292.76C370.434 292.179 372.013 292.057 373.52 292.41C374.78 292.68 376.02 293.01 377.25 293.41C370.589 275.871 358.227 261.079 342.15 251.41C342.25 253.06 342.32 254.72 342.33 256.41C342.32 257.7 342.28 259 342.22 260.28Z" fill="#231815" stroke="#231815" stroke-miterlimit="10"/>
<path id="Vector_15" d="M369 292.76C369.958 295.013 370.803 297.312 371.53 299.65C374.042 300.164 376.513 300.866 378.92 301.75C379.271 300.401 379.215 298.978 378.76 297.66C378.3 296.21 377.76 294.79 377.25 293.37C376.02 293.02 374.78 292.69 373.52 292.37C372.009 292.03 370.43 292.166 369 292.76Z" fill="#231815" stroke="#231815" stroke-miterlimit="10"/>
<path id="Vector_16" d="M342.33 256.4C342.39 248.11 331.33 246.94 328.18 252.9C332.872 254.767 337.359 257.112 341.57 259.9C342.105 258.813 342.365 257.611 342.33 256.4V256.4Z" fill="#231815" stroke="#231815" stroke-miterlimit="10"/>
<path id="Vector_17" d="M342.22 260.28C342.28 258.99 342.33 257.69 342.34 256.39C342.366 257.589 342.102 258.776 341.57 259.85L342.22 260.28Z" fill="#231815" stroke="#231815" stroke-miterlimit="10"/>
<path id="Vector_18" d="M165.54 310.77C168.066 306.009 171.199 301.596 174.86 297.64C173.532 295.349 172.32 292.993 171.23 290.58C167.323 294.483 163.908 298.848 161.06 303.58C161.59 304.52 162.12 305.46 162.68 306.39C163.59 307.87 164.56 309.33 165.54 310.77Z" fill="#231815" stroke="#231815" stroke-miterlimit="10"/>
<path id="Vector_19" d="M327.21 252.51L328.21 252.89C331.38 246.89 342.43 248.1 342.36 256.39C342.36 254.72 342.28 253.06 342.18 251.39C337.184 248.412 331.871 246.001 326.34 244.2C326.771 246.953 327.061 249.727 327.21 252.51V252.51Z" fill="#231815" stroke="#231815" stroke-miterlimit="10"/>
<path id="Vector_20" d="M405.36 347.5C406.36 366.56 395.17 384.78 377.18 391.67C369.06 394.78 360.93 394.62 352.47 394.62H237C231.52 394.62 226 394.67 220.55 394.62C211.411 394.634 202.414 392.359 194.38 388.002C186.346 383.644 179.532 377.344 174.56 369.675C169.588 362.007 166.616 353.215 165.915 344.103C165.215 334.991 166.808 325.848 170.55 317.51C172.158 313.838 174.17 310.356 176.55 307.13C177.33 306.08 178.14 305.07 178.99 304.13C193.37 287.44 216.55 281.44 237.64 287.95C240.98 288.95 244.27 287.21 246.11 284.5C260.75 262.97 287.53 251.37 313.26 256.4C318.009 257.332 322.643 258.777 327.08 260.71C327.95 261.09 328.81 261.48 329.65 261.89C330.49 262.3 331.59 262.89 332.54 263.38C347.553 271.583 358.858 285.218 364.14 301.49C364.323 302.847 364.938 304.109 365.895 305.089C366.851 306.069 368.098 306.714 369.45 306.93C388.93 311.09 404.25 327.28 405.36 347.5Z" fill="white"/>
<path id="Vector_21" d="M378.92 301.75C390.349 305.916 399.945 313.976 406.023 324.513C412.101 335.051 414.273 347.393 412.157 359.372C410.041 371.351 403.772 382.202 394.452 390.02C385.131 397.837 373.355 402.121 361.19 402.12H220.54C211.543 402.125 202.651 400.179 194.478 396.416C186.305 392.654 179.045 387.164 173.198 380.325C167.352 373.486 163.057 365.461 160.611 356.802C158.164 348.144 157.625 339.058 159.028 330.17C160.432 321.283 163.746 312.806 168.741 305.322C173.737 297.839 180.296 291.528 187.966 286.824C195.635 282.12 204.234 279.135 213.169 278.074C222.104 277.013 231.162 277.902 239.72 280.68C248.962 266.778 262.647 256.424 278.538 251.308C294.428 246.193 311.584 246.62 327.2 252.52L328.2 252.9C332.896 254.76 337.383 257.106 341.59 259.9C341.81 260.04 342.03 260.18 342.24 260.33C354.112 268.325 363.408 279.594 369 292.77C369.95 295.01 370.8 297.31 371.53 299.66C374.043 300.169 376.513 300.868 378.92 301.75ZM377.18 391.67C395.18 384.78 406.4 366.56 405.36 347.5C404.25 327.28 388.93 311.09 369.54 306.89C368.188 306.674 366.941 306.029 365.985 305.049C365.028 304.069 364.413 302.807 364.23 301.45C358.948 285.178 347.643 271.543 332.63 263.34C331.63 262.82 330.72 262.34 329.74 261.85C328.76 261.36 328.04 261.05 327.17 260.67C322.733 258.737 318.099 257.292 313.35 256.36C287.62 251.36 260.84 262.93 246.2 284.46C244.36 287.17 241.07 288.94 237.73 287.91C216.64 281.4 193.46 287.4 179.08 304.09C178.23 305.09 177.42 306.09 176.64 307.09C174.26 310.316 172.248 313.798 170.64 317.47C166.898 325.808 165.305 334.951 166.005 344.063C166.706 353.175 169.678 361.967 174.65 369.636C179.622 377.304 186.436 383.604 194.47 387.962C202.504 392.319 211.501 394.594 220.64 394.58C226.12 394.63 231.64 394.58 237.09 394.58H352.47C360.93 394.62 369.06 394.78 377.18 391.67Z" fill="#231815"/>
</g>
</g>
</svg>
