<svg width="500" height="500" viewBox="0 0 500 500" fill="none" xmlns="http://www.w3.org/2000/svg">
<g id="02n">
<g id="02n_2">
<path id="Vector" d="M233.5 115.74C231.151 121.384 229.209 127.189 227.69 133.11C233.06 129.71 238.687 126.735 244.52 124.21L233.5 115.74Z" fill="#231815"/>
<path id="Vector_2" d="M295.5 266C298.627 270.852 301.111 276.089 302.89 281.58C303.071 282.936 303.684 284.198 304.639 285.178C305.594 286.158 306.839 286.804 308.19 287.02C313.611 288.194 318.782 290.32 323.46 293.3C329.376 296.972 334.327 302.006 337.9 307.981C341.473 313.957 343.565 320.701 344 327.65C344.119 329.854 344.072 332.063 343.86 334.26C343.218 341.128 341.019 347.759 337.43 353.65C332.44 361.934 324.838 368.326 315.82 371.82C307.7 374.93 299.56 374.77 291.1 374.77H175.66C170.17 374.77 164.66 374.82 159.2 374.77C149.045 374.768 139.09 371.942 130.448 366.609C121.806 361.275 114.817 353.644 110.261 344.568C105.706 335.491 103.764 325.327 104.652 315.211C105.54 305.094 109.223 295.424 115.29 287.28C126.48 272.21 144.29 264.63 162.36 265.57C167.111 265.824 171.813 266.66 176.36 268.06C177.276 268.338 178.241 268.416 179.19 268.29C180.335 268.105 181.429 267.682 182.4 267.048C183.371 266.414 184.199 265.583 184.83 264.61C191.295 255.159 200.069 247.519 210.318 242.415C220.568 237.311 231.953 234.914 243.39 235.45C246.278 235.605 249.151 235.959 251.99 236.51C260.852 238.25 269.272 241.758 276.747 246.825C284.223 251.892 290.601 258.413 295.5 266Z" fill="white"/>
<path id="Vector_3" d="M409.51 283.83C408.843 285.383 408.143 286.917 407.41 288.43L405 287.27L396.53 276.27L395.97 274.79C397.66 274.17 399.34 273.52 400.97 272.79C407.86 270 411.71 278.74 409.51 283.83Z" fill="#231815"/>
<path id="Vector_4" d="M405 287.27L407.38 288.43C396.373 311.155 379.101 330.261 357.6 343.5C358.69 338.774 359.174 333.928 359.04 329.08C359.04 327.61 358.9 326.15 358.75 324.7C370.203 315.982 379.989 305.271 387.64 293.08C393.559 291.564 399.361 289.622 405 287.27V287.27Z" fill="#231815"/>
<path id="Vector_5" d="M396.56 276.26L405.03 287.26C399.391 289.612 393.589 291.554 387.67 293.07C391.06 287.703 394.032 282.083 396.56 276.26V276.26Z" fill="#231815"/>
<path id="Vector_6" d="M373.24 183.2C371.903 182.766 370.736 181.924 369.902 180.792C369.068 179.66 368.609 178.296 368.59 176.89C369.22 176.64 369.85 176.39 370.48 176.16C371.123 175.872 371.793 175.647 372.48 175.49C378.07 174.82 370.53 182.49 373.86 183.4L373.24 183.2Z" fill="#231815"/>
<path id="Vector_7" d="M372.51 175.49C371.823 175.647 371.153 175.871 370.51 176.16C369.88 176.39 369.25 176.64 368.62 176.89C368.42 172.31 372.14 167.38 377.91 168.89C387.18 171.55 383.22 186.02 373.91 183.36C370.56 182.5 378.1 174.82 372.51 175.49Z" fill="#231815"/>
<path id="Vector_8" d="M365.41 178.24C366.41 177.76 367.52 177.32 368.59 176.89C368.609 178.296 369.068 179.66 369.902 180.792C370.736 181.924 371.903 182.766 373.24 183.2C369.866 182.192 366.6 180.853 363.49 179.2C364.12 178.87 364.75 178.54 365.41 178.24Z" fill="#231815"/>
<path id="Vector_9" d="M359.07 329.08C359.203 333.928 358.72 338.774 357.63 343.5C354.59 345.373 351.473 347.12 348.28 348.74C350.475 342.917 351.597 336.743 351.59 330.52C351.59 330.26 351.59 330 351.59 329.73C354.05 328.15 356.46 326.47 358.79 324.73C358.93 326.15 359 327.61 359.07 329.08Z" fill="#231815"/>
<path id="Vector_10" d="M358.78 324.7C356.45 326.47 354.04 328.15 351.58 329.7C351.404 317.293 346.764 305.365 338.51 296.1C341.843 296.52 345.177 296.817 348.51 296.99C354.22 305.21 357.753 314.744 358.78 324.7Z" fill="#231815"/>
<path id="Vector_11" d="M387.67 293.08C380.019 305.271 370.233 315.982 358.78 324.7C357.746 314.745 354.206 305.215 348.49 297C361.673 297.685 374.884 296.363 387.67 293.08V293.08Z" fill="#F4EC90"/>
<path id="Vector_12" d="M351.59 330.52C351.597 336.743 350.475 342.917 348.28 348.74C344.753 350.54 341.143 352.177 337.45 353.65C341.039 347.759 343.238 341.128 343.88 334.26C346.507 332.847 349.073 331.337 351.58 329.73C351.58 330 351.59 330.26 351.59 330.52Z" fill="#231815"/>
<path id="Vector_13" d="M338.51 296.13C346.764 305.395 351.404 317.323 351.58 329.73C349.08 331.343 346.513 332.853 343.88 334.26C344.092 332.063 344.139 329.854 344.02 327.65C343.579 320.703 341.483 313.962 337.907 307.99C334.33 302.017 329.377 296.988 323.46 293.32C328.418 294.546 333.443 295.484 338.51 296.13V296.13Z" fill="#231815"/>
<path id="Vector_14" d="M345.68 146.88C345.68 148.3 344.6 150.36 344.11 151.62C343.35 153.56 342.51 155.47 341.56 157.33C340.58 155.477 339.706 153.571 338.94 151.62C338.423 150.548 338.03 149.421 337.77 148.26C337.64 147.8 337.51 147.34 337.37 146.88H345.68Z" fill="#231815"/>
<path id="Vector_15" d="M338.94 151.62C339.705 153.571 340.58 155.477 341.56 157.33C340.94 158.55 340.28 159.75 339.56 160.91C335.739 166.887 330.774 172.05 324.95 176.1C323.269 177.272 321.508 178.324 319.68 179.25C317.181 177.947 314.587 176.834 311.92 175.92C311.049 175.529 310.131 175.251 309.19 175.09V179.25C307.86 182.63 308.08 183.95 309.87 183.2C311.25 183.2 313.28 182.09 314.58 181.57C316.32 180.87 318.02 180.11 319.68 179.25C323.696 181.354 327.429 183.958 330.79 187C335.154 191.002 338.779 195.741 341.5 201C339.96 203.8 338.18 207.16 337.77 210.17C337.42 212.7 335.63 211.55 341.53 211.55C346.38 211.55 346.05 212.55 345.07 209.49C344.417 207.529 343.663 205.603 342.81 203.72C342.41 202.8 341.97 201.89 341.5 201L342.09 199.93C347.066 191.079 354.499 183.858 363.49 179.14C366.6 180.793 369.866 182.132 373.24 183.14L373.89 183.34C383.19 186 387.15 171.53 377.89 168.87C380.373 169.574 382.518 171.149 383.933 173.308C385.347 175.466 385.936 178.063 385.59 180.62C384.88 185.9 381.13 188.29 376.51 189.89C367.06 193.17 359.45 199.21 354.72 208.11C352.72 211.83 352.3 216.56 349.51 219.78C348.024 221.451 346.05 222.612 343.868 223.099C341.685 223.585 339.405 223.372 337.35 222.49C332.35 220.37 331.69 215.97 329.92 211.49C328.502 207.902 326.521 204.563 324.05 201.6C321.179 198.174 317.722 195.286 313.84 193.07C310.36 191.07 306.38 190.47 302.93 188.57C300.82 187.41 299.162 185.574 298.221 183.358C297.279 181.142 297.11 178.674 297.74 176.35C298.98 171.82 302.44 169.89 306.57 168.51C314.578 165.992 321.502 160.844 326.22 153.9C330.67 147.1 331.4 134.62 341.98 135.03C351.88 135.42 352.54 147.31 356.85 153.9C361.827 161.254 369.279 166.577 377.85 168.9C372.08 167.35 368.36 172.28 368.56 176.9C367.49 177.33 366.42 177.77 365.38 178.25C364.72 178.55 364.09 178.88 363.46 179.25C354.119 174.329 346.477 166.708 341.53 157.38C342.48 155.52 343.32 153.61 344.08 151.67C344.57 150.41 345.66 148.35 345.65 146.93H337.34C337.48 147.39 337.61 147.85 337.74 148.31C338.014 149.455 338.416 150.566 338.94 151.62V151.62Z" fill="#231815"/>
<path id="Vector_16" d="M345.07 209.55C346.07 212.62 346.38 211.61 341.53 211.61C335.63 211.61 337.42 212.76 337.77 210.23C338.18 207.23 339.96 203.86 341.5 201.06C341.97 201.95 342.41 202.86 342.81 203.78C343.663 205.663 344.418 207.589 345.07 209.55V209.55Z" fill="#231815"/>
<path id="Vector_17" d="M341.56 157.33C346.507 166.657 354.149 174.279 363.49 179.2C354.497 183.92 347.064 191.145 342.09 200L341.5 201.07C338.779 195.811 335.154 191.072 330.79 187.07C327.425 184.013 323.685 181.395 319.66 179.28C321.488 178.354 323.249 177.302 324.93 176.13C330.754 172.08 335.719 166.917 339.54 160.94C340.28 159.75 340.94 158.55 341.56 157.33Z" fill="white"/>
<path id="Vector_18" d="M316.72 275.76C320.881 277.177 325.118 278.362 329.41 279.31C336.981 283.748 343.493 289.785 348.49 297C345.157 296.827 341.823 296.53 338.49 296.11C332.792 289.715 325.602 284.827 317.56 281.88C317.908 280.53 317.852 279.108 317.4 277.79C317.2 277.12 317 276.44 316.72 275.76Z" fill="#231815"/>
<path id="Vector_19" d="M329.41 279.31C351.585 284.178 374.689 282.606 396 274.78L396.56 276.26C394.033 282.086 391.06 287.71 387.67 293.08C374.884 296.363 361.673 297.685 348.49 297C343.493 289.785 336.982 283.748 329.41 279.31Z" fill="#231815"/>
<path id="Vector_20" d="M329.41 279.31C325.117 278.362 320.881 277.177 316.72 275.76C316.46 275.01 316.19 274.27 315.9 273.52C320.627 274.879 325.166 276.824 329.41 279.31Z" fill="#231815"/>
<path id="Vector_21" d="M311.9 175.92C314.567 176.834 317.161 177.947 319.66 179.25C318 180.11 316.3 180.87 314.56 181.57C313.26 182.09 311.23 183.24 309.85 183.2C308.06 183.95 307.85 182.63 309.17 179.25V175.09C310.111 175.251 311.029 175.529 311.9 175.92V175.92Z" fill="#231815"/>
<path id="Vector_22" d="M252.62 221.48C253.28 221.58 253.94 221.67 254.62 221.79C282.75 226.74 305.87 247.19 315.91 273.52C314.69 273.17 313.45 272.85 312.19 272.57C310.993 272.299 309.749 272.316 308.56 272.62C308.13 272.44 307.72 272.24 307.3 272.06C302.782 261.758 295.971 252.624 287.385 245.355C278.799 238.087 268.667 232.876 257.76 230.12C255.92 227.3 254.207 224.42 252.62 221.48Z" fill="#231815"/>
<path id="Vector_23" d="M308.55 272.62C309.739 272.316 310.983 272.299 312.18 272.57C313.44 272.85 314.68 273.17 315.9 273.52C316.19 274.27 316.46 275.01 316.72 275.76C313.96 274.82 311.237 273.773 308.55 272.62Z" fill="#231815"/>
<path id="Vector_24" d="M307.65 272.92C307.943 272.799 308.243 272.699 308.55 272.62C311.217 273.767 313.94 274.813 316.72 275.76C316.96 276.44 317.2 277.12 317.42 277.81C317.872 279.128 317.927 280.55 317.58 281.9C315.169 281.018 312.696 280.319 310.18 279.81C309.458 277.471 308.613 275.171 307.65 272.92V272.92Z" fill="#231815"/>
<path id="Vector_25" d="M307.29 272.06C307.71 272.24 308.12 272.44 308.55 272.62C308.243 272.699 307.943 272.799 307.65 272.92C307.53 272.63 307.42 272.34 307.29 272.06Z" fill="#231815"/>
<path id="Vector_26" d="M302.89 281.6C302.646 279.834 302.977 278.036 303.834 276.473C304.692 274.909 306.029 273.664 307.65 272.92C308.613 275.171 309.458 277.471 310.18 279.81C312.696 280.319 315.169 281.018 317.58 281.9C315.9 287.97 305.4 289.45 302.95 281.8L302.89 281.6Z" fill="#231815"/>
<path id="Vector_27" d="M303 281.8C305.45 289.45 315.95 287.97 317.63 281.9C325.672 284.847 332.862 289.735 338.56 296.13C333.493 295.484 328.468 294.546 323.51 293.32C318.819 290.32 313.632 288.18 308.19 287C306.839 286.784 305.594 286.138 304.639 285.158C303.684 284.178 303.071 282.916 302.89 281.56L303 281.8Z" fill="#231815"/>
<path id="Vector_28" d="M307.29 272.06C307.42 272.34 307.53 272.63 307.65 272.92C306.03 273.664 304.692 274.909 303.834 276.473C302.977 278.036 302.646 279.834 302.89 281.6C301.112 276.102 298.628 270.858 295.5 266C299.311 268.243 303.248 270.267 307.29 272.06V272.06Z" fill="#231815"/>
<path id="Vector_29" d="M257.75 230.12C268.656 232.876 278.789 238.087 287.375 245.356C295.96 252.624 302.772 261.758 307.29 272.06C303.249 270.286 299.313 268.283 295.5 266.06C288.257 254.829 277.829 246.014 265.55 240.74C262.751 237.351 260.147 233.805 257.75 230.12V230.12Z" fill="#231815"/>
<path id="Vector_30" d="M237 111.26C242.13 109.05 250.87 112.89 248 119.73C247.3 121.4 246.65 123.08 246 124.73L244.53 124.18L233.53 115.71L232.39 113.33C233.883 112.617 235.42 111.927 237 111.26Z" fill="#231815"/>
<path id="Vector_31" d="M244.52 124.22L245.99 124.77C240.209 140.445 237.812 157.166 238.954 173.835C240.097 190.503 244.754 206.74 252.62 221.48C246.976 220.623 241.259 220.355 235.56 220.68C223.04 193.242 220.263 162.351 227.69 133.12C233.06 129.72 238.687 126.744 244.52 124.22V124.22Z" fill="#231815"/>
<path id="Vector_32" d="M239.76 227.91C245.828 227.901 251.874 228.644 257.76 230.12C260.158 233.791 262.762 237.323 265.56 240.7C261.201 238.826 256.656 237.422 252 236.51C249.161 235.959 246.288 235.605 243.4 235.45C241.88 232.983 240.443 230.473 239.09 227.92L239.76 227.91Z" fill="#231815"/>
<path id="Vector_33" d="M178.38 260.83C185.036 250.795 194.053 242.547 204.64 236.809C215.226 231.071 227.059 228.019 239.1 227.92C240.433 230.473 241.87 232.983 243.41 235.45C231.973 234.914 220.588 237.311 210.338 242.415C200.089 247.519 191.315 255.159 184.85 264.61C184.219 265.583 183.392 266.414 182.42 267.048C181.449 267.682 180.355 268.105 179.21 268.29C178.33 265.68 177.54 263.03 176.85 260.36C177.36 260.51 177.87 260.66 178.38 260.83Z" fill="#231815"/>
<path id="Vector_34" d="M235.56 220.68C241.259 220.355 246.976 220.623 252.62 221.48C254.2 224.42 255.91 227.3 257.75 230.12C251.864 228.644 245.818 227.901 239.75 227.91H239.09C237.84 225.54 236.67 223.12 235.56 220.68Z" fill="#231815"/>
<path id="Vector_35" d="M235.56 220.68C236.67 223.12 237.84 225.54 239.1 227.92C227.059 228.019 215.226 231.071 204.639 236.809C194.053 242.547 185.036 250.795 178.38 260.83C177.87 260.66 177.38 260.51 176.85 260.36C176.43 258.747 176.043 257.127 175.69 255.5L180.37 253.59C178.72 253.09 177.07 252.65 175.37 252.26C182.583 243.022 191.682 235.427 202.061 229.981C212.439 224.536 223.86 221.365 235.56 220.68V220.68Z" fill="#231815"/>
<path id="Vector_36" d="M232.36 113.37L233.5 115.75C231.148 121.393 229.206 127.198 227.69 133.12C202.865 148.635 184.765 172.902 176.97 201.12C172.497 217.758 171.831 235.189 175.02 252.12C169.848 250.952 164.562 250.368 159.26 250.38C155.254 222.726 160.186 194.515 173.335 169.859C186.484 145.203 207.163 125.391 232.36 113.31V113.37Z" fill="#231815"/>
<path id="Vector_37" d="M235.56 220.68C223.865 221.369 212.45 224.542 202.077 229.988C191.704 235.433 182.61 243.025 175.4 252.26L175.02 252.18C171.831 235.249 172.497 217.818 176.97 201.18C184.765 172.962 202.865 148.695 227.69 133.18C220.277 162.392 223.054 193.259 235.56 220.68V220.68Z" fill="#F4EC90"/>
<path id="Vector_38" d="M176.85 260.36C177.54 263.03 178.33 265.68 179.21 268.29C178.261 268.416 177.296 268.338 176.38 268.06C171.833 266.66 167.131 265.824 162.38 265.57C161.713 263.01 161.107 260.43 160.56 257.83C166.078 257.947 171.556 258.798 176.85 260.36V260.36Z" fill="#231815"/>
<path id="Vector_39" d="M175.4 252.26C177.07 252.65 178.72 253.09 180.4 253.59L175.72 255.5C175.51 254.5 175.32 253.6 175.14 252.65L175.4 252.26Z" fill="#231815"/>
<path id="Vector_40" d="M175.11 252.65C175.29 253.65 175.48 254.55 175.69 255.5L171.9 257C172.933 255.513 174.003 254.063 175.11 252.65Z" fill="#231815"/>
<path id="Vector_41" d="M175.11 252.65L175.02 252.18L175.4 252.26L175.11 252.65Z" fill="#231815"/>
<path id="Vector_42" d="M175.11 252.65C173.997 254.07 172.927 255.533 171.9 257.04L175.69 255.5C176.037 257.127 176.423 258.747 176.85 260.36C171.55 258.796 166.065 257.945 160.54 257.83C160.05 255.38 159.62 252.91 159.26 250.44C164.555 250.43 169.835 251.013 175 252.18L175.11 252.65Z" fill="#231815"/>
<path id="Vector_43" d="M97 320C97.008 303.506 103.564 287.69 115.227 276.027C126.89 264.364 142.706 257.808 159.2 257.8C159.65 257.8 160.09 257.8 160.54 257.8C161.067 260.4 161.673 262.98 162.36 265.54C144.36 264.6 126.48 272.18 115.29 287.25C109.223 295.394 105.54 305.064 104.652 315.181C103.764 325.297 105.706 335.461 110.261 344.538C114.817 353.614 121.806 361.245 130.448 366.579C139.09 371.912 149.045 374.738 159.2 374.74C164.69 374.79 170.2 374.74 175.66 374.74H291.12C299.58 374.74 307.72 374.9 315.84 371.79C324.858 368.296 332.46 361.904 337.45 353.62C341.143 352.153 344.753 350.517 348.28 348.71C344.574 358.562 337.952 367.05 329.297 373.041C320.642 379.032 310.366 382.241 299.84 382.24H159.2C142.699 382.232 126.877 375.671 115.213 363.999C103.548 352.327 96.9973 336.501 97 320V320Z" fill="#231815"/>
<path id="Vector_44" d="M97 320C97 328.173 98.61 336.266 101.738 343.817C104.866 351.367 109.451 358.228 115.23 364.007C121.01 369.785 127.871 374.369 135.423 377.496C142.974 380.623 151.067 382.231 159.24 382.23H299.84C310.366 382.231 320.642 379.022 329.297 373.031C337.952 367.04 344.574 358.552 348.28 348.7C351.473 347.08 354.59 345.333 357.63 343.46C355.278 353.49 350.395 362.75 343.446 370.356C336.498 377.963 327.717 383.662 317.94 386.91C308.46 390.01 298.75 389.73 288.94 389.73H165.51C152.84 389.73 140.75 388.34 129.06 382.87C119.006 378.043 110.255 370.875 103.542 361.969C96.8296 353.062 92.3503 342.675 90.48 331.68C86.81 308.87 94.36 285.22 111.3 269.32C124.316 257.145 141.478 250.38 159.3 250.4C159.66 252.87 160.09 255.34 160.58 257.79C160.13 257.79 159.69 257.79 159.24 257.79C142.737 257.787 126.909 264.34 115.237 276.006C103.565 287.672 97.0053 303.497 97 320V320Z" fill="#231815"/>
</g>
</g>
</svg>
