<svg width="500" height="500" viewBox="0 0 500 500" fill="none" xmlns="http://www.w3.org/2000/svg">
<g id="03d">
<g id="03d_2">
<path id="Vector" d="M394.67 337.33C395.16 351.85 386.25 365.57 372.39 370.4C366.33 372.51 360.26 372.31 353.98 372.31H263.5C258.91 372.31 254.31 372.36 249.71 372.31C242.043 372.321 234.521 370.225 227.964 366.252C221.407 362.278 216.068 356.58 212.528 349.779C208.989 342.979 207.386 335.336 207.894 327.686C208.402 320.036 211.002 312.673 215.41 306.4C225.94 291.07 245.41 285.4 262.87 290.76C266.22 291.76 269.49 290.02 271.34 287.31C282.61 270.83 303.16 261.89 322.91 265.76C331.93 267.525 340.315 271.665 347.2 277.753C354.086 283.84 359.222 291.655 362.08 300.39C362.266 301.739 362.881 302.993 363.833 303.967C364.785 304.941 366.025 305.584 367.37 305.8C382.38 309.12 394.14 321.59 394.67 337.33Z" fill="white"/>
<path id="Vector_2" d="M387.18 297.95C391.639 300.827 395.607 304.402 398.93 308.54C397.774 310.973 396.472 313.334 395.03 315.61C392.101 311.335 388.389 307.654 384.09 304.76C385.279 302.566 386.312 300.29 387.18 297.95V297.95Z" fill="#231815"/>
<path id="Vector_3" d="M348 227.82C370.46 232.65 388.56 251.28 390.46 274.63C391.108 282.547 390.002 290.51 387.22 297.95C383.464 295.52 379.388 293.625 375.11 292.32C366.76 271.32 348.2 254.91 325.55 251.04C313.773 248.995 301.663 250.142 290.48 254.363C279.297 258.584 269.449 265.724 261.96 275.04C253.067 273.137 243.851 273.365 235.063 275.706C226.276 278.047 218.167 282.435 211.4 288.51C205.36 294.053 200.589 300.836 197.413 308.394C194.237 315.951 192.732 324.106 193 332.3C186.77 332.3 180.55 332.36 174.33 332.3C157.27 332.25 140.915 325.486 128.804 313.47C116.693 301.455 109.799 285.154 109.614 268.095C109.428 251.036 115.967 234.59 127.814 222.314C139.661 210.039 155.865 202.921 172.92 202.5C180.291 202.399 187.629 203.493 194.65 205.74C197.98 206.74 201.28 205 203.12 202.29C220.41 176.79 252.04 163.11 282.47 169.01C296.361 171.711 309.275 178.086 319.867 187.47C330.46 196.854 338.344 208.905 342.7 222.37C342.872 223.73 343.483 224.998 344.439 225.981C345.395 226.964 346.645 227.61 348 227.82V227.82Z" fill="white"/>
<path id="Vector_4" d="M387.18 297.95C386.312 300.29 385.28 302.566 384.09 304.76C381.779 303.2 379.316 301.877 376.74 300.81C377.131 299.419 377.082 297.942 376.6 296.58C376.14 295.14 375.63 293.72 375.07 292.32C379.349 293.625 383.425 295.52 387.18 297.95V297.95Z" fill="#231815"/>
<path id="Vector_5" d="M376.6 296.58C377.082 297.942 377.131 299.419 376.74 300.81C374.362 299.827 371.893 299.077 369.37 298.57C368.643 296.227 367.768 293.932 366.75 291.7C368.211 291.098 369.824 290.972 371.36 291.34C372.62 291.62 373.85 291.94 375.07 292.34C375.63 293.727 376.14 295.14 376.6 296.58Z" fill="#231815"/>
<path id="Vector_6" d="M369.37 298.57C371.893 299.077 374.362 299.827 376.74 300.81C374.95 306.76 364.59 308.15 362.14 300.57L362.08 300.39C361.828 298.633 362.146 296.841 362.986 295.277C363.826 293.713 365.145 292.46 366.75 291.7C367.768 293.932 368.643 296.227 369.37 298.57Z" fill="#231815"/>
<path id="Vector_7" d="M362.14 300.57C364.59 308.15 374.95 306.76 376.74 300.81C379.316 301.877 381.779 303.2 384.09 304.76C388.378 307.657 392.079 311.338 395 315.61C396.442 313.335 397.744 310.974 398.9 308.54C405.496 316.725 409.263 326.825 409.64 337.33C410.33 358.21 397 377.2 377.58 384.42C369.58 387.42 361.27 387.31 352.88 387.31H254.45C243.7 387.31 233.45 385.95 223.67 381.02C216.957 377.554 210.999 372.788 206.144 366.999C201.289 361.211 197.634 354.514 195.39 347.3H203.27C201.525 342.482 200.546 337.421 200.37 332.3C200.37 331.69 200.37 331.08 200.37 330.47C200.37 317.384 205.568 304.834 214.821 295.581C224.074 286.328 236.624 281.13 249.71 281.13C254.873 281.142 260.004 281.952 264.92 283.53C270.691 274.845 278.682 267.862 288.062 263.306C297.442 258.75 307.87 256.787 318.265 257.62C328.66 258.454 338.642 262.054 347.177 268.046C355.711 274.039 362.486 282.206 366.8 291.7C365.195 292.46 363.876 293.713 363.036 295.277C362.195 296.841 361.878 298.633 362.13 300.39C359.272 291.655 354.136 283.84 347.25 277.753C340.365 271.665 331.979 267.525 322.96 265.76C303.21 261.89 282.66 270.83 271.39 287.31C269.54 290.02 266.27 291.78 262.92 290.76C245.49 285.44 225.99 291.07 215.46 306.4C211.052 312.673 208.452 320.036 207.944 327.686C207.436 335.336 209.039 342.979 212.578 349.78C216.118 356.58 221.457 362.278 228.014 366.252C234.571 370.225 242.093 372.321 249.76 372.31C254.36 372.36 258.96 372.31 263.55 372.31H354C360.28 372.31 366.35 372.51 372.41 370.4C386.27 365.57 395.18 351.85 394.69 337.33C394.16 321.59 382.4 309.12 367.39 305.8C366.045 305.584 364.805 304.941 363.853 303.967C362.901 302.993 362.286 301.739 362.1 300.39L362.14 300.57Z" fill="#231815"/>
<path id="Vector_8" d="M357.18 218.6C360.12 227.83 345.64 231.75 342.72 222.6C342.72 222.53 342.67 222.46 342.65 222.39C341.99 217.71 345.82 212.06 351.95 213.39C353.2 213.66 354.45 213.97 355.69 214.31C356.22 215.71 356.72 217.14 357.18 218.6Z" fill="#231815"/>
<path id="Vector_9" d="M348 227.82C346.643 227.612 345.391 226.967 344.433 225.984C343.475 225 342.863 223.732 342.69 222.37C342.69 222.44 342.74 222.51 342.76 222.58C345.68 231.75 360.16 227.83 357.22 218.58C356.76 217.12 356.22 215.69 355.73 214.26C360.787 215.64 365.672 217.589 370.29 220.07C393.93 232.83 408.29 259.76 405.29 286.5C404.441 294.136 402.308 301.574 398.98 308.5C395.657 304.362 391.689 300.787 387.23 297.91C390.012 290.47 391.118 282.507 390.47 274.59C388.52 251.28 370.42 232.65 348 227.82Z" fill="#231815"/>
<path id="Vector_10" d="M266.86 276.29C265.22 275.79 263.57 275.37 261.92 275.01C269.409 265.693 279.257 258.554 290.44 254.333C301.623 250.112 313.733 248.965 325.51 251.01C348.16 254.88 366.72 271.29 375.07 292.29C373.85 291.91 372.62 291.59 371.36 291.29C369.824 290.922 368.211 291.048 366.75 291.65C362.436 282.156 355.661 273.989 347.127 267.996C338.592 262.004 328.61 258.404 318.215 257.57C307.821 256.737 297.392 258.7 288.012 263.256C278.632 267.812 270.641 274.795 264.87 283.48C262.628 282.75 260.335 282.188 258.01 281.8L258.39 279.69L266.86 276.29Z" fill="#231815"/>
<path id="Vector_11" d="M266.86 276.29L258.39 279.74C259.51 278.1 260.687 276.523 261.92 275.01C263.57 275.37 265.22 275.79 266.86 276.29Z" fill="#231815"/>
<path id="Vector_12" d="M203.27 347.3H195.39C194.58 344.711 193.971 342.063 193.57 339.38C193.219 337.035 193.012 334.67 192.95 332.3H200.37C200.546 337.421 201.525 342.482 203.27 347.3Z" fill="#231815"/>
<path id="Vector_13" d="M198.59 191.28L190.12 194.72C191.233 193.08 192.39 191.473 193.59 189.9C195.27 190.3 196.93 190.76 198.59 191.28Z" fill="#231815"/>
<path id="Vector_14" d="M342.65 222.37C338.296 208.904 330.412 196.85 319.82 187.464C309.227 178.078 296.312 171.702 282.42 169C251.99 163.1 220.36 176.78 203.07 202.28C201.23 204.99 197.93 206.77 194.6 205.73C187.579 203.483 180.241 202.389 172.87 202.49C155.815 202.91 139.611 210.028 127.764 222.304C115.917 234.58 109.378 251.026 109.564 268.085C109.749 285.144 116.643 301.445 128.754 313.46C140.865 325.476 157.22 332.24 174.28 332.29C180.5 332.35 186.72 332.29 192.95 332.29C193.012 334.66 193.219 337.025 193.57 339.37C193.971 342.053 194.58 344.701 195.39 347.29H182.09C167.77 347.29 154.09 345.93 140.79 339.91C117.11 329.19 99.48 306.16 95.48 280.45C91.37 254.06 100.29 226.76 120.14 208.62C129.919 199.732 141.728 193.377 154.533 190.111C167.338 186.846 180.749 186.77 193.59 189.89C192.39 191.463 191.233 193.07 190.12 194.71L198.59 191.27C196.93 190.75 195.27 190.27 193.59 189.89C206.33 172.901 224.5 160.783 245.081 155.551C265.662 150.319 287.413 152.288 306.72 161.13C329.56 171.33 347.06 191.01 355.72 214.27C354.48 213.93 353.23 213.62 351.98 213.35C345.82 212 342 217.69 342.65 222.37Z" fill="#231815"/>
<path id="Vector_15" d="M193 332.3C192.729 324.101 194.234 315.94 197.411 308.376C200.589 300.813 205.364 294.025 211.41 288.48C218.171 282.411 226.27 278.026 235.048 275.683C243.826 273.341 253.034 273.106 261.92 275C260.693 276.507 259.517 278.083 258.39 279.73L258.01 281.84C255.253 281.356 252.459 281.115 249.66 281.12C236.574 281.12 224.024 286.318 214.771 295.571C205.518 304.824 200.32 317.374 200.32 330.46C200.32 331.07 200.32 331.68 200.32 332.29H193V332.3Z" fill="#231815"/>
<path id="Vector_16" d="M193.59 189.9C180.749 186.78 167.338 186.856 154.533 190.121C141.728 193.387 129.919 199.742 120.14 208.63C100.29 226.77 91.37 254.07 95.48 280.46C99.48 306.17 117.11 329.2 140.79 339.92C154.07 345.92 167.79 347.3 182.09 347.3H195.39" stroke="#231815" stroke-miterlimit="10"/>
<path id="Vector_17" d="M193.59 189.9C195.27 190.3 196.93 190.76 198.59 191.28L190.12 194.72C191.233 193.08 192.39 191.473 193.59 189.9Z" stroke="#231815" stroke-miterlimit="10"/>
<path id="Vector_18" d="M355.69 214.28C347.06 191.02 329.56 171.34 306.69 161.14C287.387 152.305 265.642 150.341 245.067 155.572C224.493 160.804 206.328 172.917 193.59 189.9" stroke="#231815" stroke-miterlimit="10"/>
<path id="Vector_19" d="M193 332.3C186.77 332.3 180.55 332.36 174.33 332.3C157.27 332.25 140.915 325.486 128.804 313.47C116.693 301.455 109.799 285.154 109.614 268.095C109.428 251.036 115.967 234.59 127.814 222.314C139.661 210.039 155.865 202.921 172.92 202.5C180.291 202.399 187.629 203.493 194.65 205.74C197.98 206.74 201.28 205 203.12 202.29C220.41 176.79 252.04 163.11 282.47 169.01C296.361 171.711 309.275 178.086 319.867 187.47C330.46 196.854 338.344 208.905 342.7 222.37" stroke="#231815" stroke-miterlimit="10"/>
<path id="Vector_20" d="M342.65 222.37C342.823 223.732 343.435 225 344.393 225.984C345.351 226.967 346.603 227.612 347.96 227.82C370.42 232.65 388.52 251.28 390.42 274.63C391.068 282.547 389.962 290.51 387.18 297.95" stroke="#231815" stroke-miterlimit="10"/>
<path id="Vector_21" d="M398.93 308.54C402.258 301.614 404.391 294.176 405.24 286.54C408.24 259.8 393.89 232.87 370.24 220.11C365.622 217.629 360.737 215.68 355.68 214.3" stroke="#231815" stroke-miterlimit="10"/>
<path id="Vector_22" d="M342.65 222.37C342.65 222.44 342.7 222.51 342.72 222.58C345.64 231.75 360.12 227.83 357.18 218.58C356.72 217.12 356.18 215.69 355.69 214.26C354.45 213.92 353.2 213.61 351.95 213.34C345.82 212 342 217.69 342.65 222.37Z" stroke="#231815" stroke-miterlimit="10"/>
<path id="Vector_23" d="M362.08 300.39L362.14 300.57C364.59 308.15 374.95 306.76 376.74 300.81C377.131 299.419 377.082 297.942 376.6 296.58C376.14 295.14 375.63 293.72 375.07 292.32C366.72 271.32 348.16 254.91 325.51 251.04C313.733 248.995 301.623 250.142 290.44 254.363C279.257 258.584 269.409 265.724 261.92 275.04C260.693 276.547 259.517 278.123 258.39 279.77L266.86 276.32C265.22 275.82 263.57 275.4 261.92 275.04C253.027 273.137 243.811 273.365 235.023 275.706C226.236 278.047 218.127 282.435 211.36 288.51C205.327 294.057 200.563 300.841 197.395 308.399C194.226 315.956 192.727 324.109 193 332.3C193.062 334.67 193.269 337.035 193.62 339.38C194.021 342.063 194.63 344.711 195.44 347.3C197.68 354.506 201.329 361.196 206.175 366.981C211.021 372.766 216.968 377.531 223.67 381C233.44 385.93 243.67 387.29 254.45 387.29H352.91C361.3 387.29 369.58 387.39 377.61 384.4C397.03 377.18 410.36 358.19 409.67 337.31C409.293 326.805 405.525 316.705 398.93 308.52C395.607 304.382 391.639 300.807 387.18 297.93C383.424 295.5 379.348 293.605 375.07 292.3C373.85 291.92 372.62 291.6 371.36 291.3C369.824 290.932 368.21 291.058 366.75 291.66C365.145 292.42 363.826 293.673 362.986 295.237C362.145 296.801 361.828 298.593 362.08 300.35" stroke="#231815" stroke-miterlimit="10"/>
<path id="Vector_24" d="M362.08 300.39C362.266 301.739 362.881 302.993 363.833 303.967C364.785 304.941 366.025 305.584 367.37 305.8C382.37 309.12 394.14 321.59 394.67 337.33C395.16 351.85 386.25 365.57 372.39 370.4C366.33 372.51 360.26 372.31 353.98 372.31H263.5C258.91 372.31 254.31 372.36 249.71 372.31C242.043 372.321 234.521 370.225 227.964 366.252C221.407 362.278 216.068 356.58 212.528 349.779C208.989 342.979 207.386 335.336 207.894 327.686C208.402 320.036 211.002 312.673 215.41 306.4C225.94 291.07 245.41 285.4 262.87 290.76C266.22 291.76 269.49 290.02 271.34 287.31C282.61 270.83 303.16 261.89 322.91 265.76C331.93 267.525 340.315 271.665 347.2 277.753C354.086 283.84 359.222 291.655 362.08 300.39V300.39Z" stroke="#231815" stroke-miterlimit="10"/>
</g>
</g>
</svg>
