<svg width="317" height="236" viewBox="0 0 317 236" fill="none" xmlns="http://www.w3.org/2000/svg">
<g id="04d">
<g id="04d_2">
<path id="Vector" d="M300.67 185.33C301.16 199.85 292.25 213.57 278.39 218.4C272.33 220.51 266.26 220.31 259.98 220.31H169.5C164.91 220.31 160.31 220.36 155.71 220.31C148.043 220.321 140.521 218.225 133.964 214.252C127.407 210.278 122.068 204.58 118.528 197.779C114.989 190.979 113.386 183.336 113.894 175.686C114.402 168.036 117.002 160.673 121.41 154.4C131.94 139.07 151.41 133.4 168.87 138.76C172.22 139.76 175.49 138.02 177.34 135.31C188.61 118.83 209.16 109.89 228.91 113.76C237.93 115.525 246.315 119.665 253.2 125.753C260.086 131.84 265.223 139.655 268.08 148.39C268.266 149.739 268.881 150.993 269.833 151.967C270.785 152.941 272.025 153.584 273.37 153.8C288.38 157.12 300.14 169.59 300.67 185.33Z" fill="white"/>
<path id="Vector 2" d="M293.18 145.95C297.64 148.827 301.607 152.402 304.93 156.54C303.774 158.973 302.472 161.334 301.03 163.61C298.101 159.335 294.389 155.654 290.09 152.76C291.28 150.566 292.312 148.29 293.18 145.95Z" fill="#231815"/>
<path id="Vector 3" d="M254 75.82C276.46 80.65 294.56 99.28 296.46 122.63C297.108 130.547 296.002 138.51 293.22 145.95C289.464 143.52 285.389 141.625 281.11 140.32C272.76 119.32 254.2 102.91 231.55 99.04C219.773 96.9947 207.663 98.1421 196.48 102.363C185.297 106.584 175.449 113.724 167.96 123.04C159.067 121.137 149.851 121.365 141.063 123.706C132.276 126.047 124.167 130.435 117.4 136.51C111.36 142.053 106.589 148.836 103.413 156.394C100.237 163.951 98.7319 172.106 98.9999 180.3C92.7699 180.3 86.5499 180.36 80.3299 180.3C63.2698 180.25 46.9152 173.486 34.804 161.47C22.6929 149.455 15.799 133.154 15.6137 116.095C15.4284 99.0362 21.9666 82.5898 33.8138 70.3142C45.6611 58.0385 61.8649 50.9205 78.9199 50.5C86.2907 50.3987 93.6292 51.4929 100.65 53.74C103.98 54.74 107.28 53 109.12 50.29C126.41 24.79 158.04 11.11 188.47 17.01C202.361 19.7112 215.275 26.0856 225.868 35.4698C236.46 44.8541 244.344 56.9055 248.7 70.37C248.873 71.7304 249.483 72.9978 250.439 73.981C251.395 74.9641 252.645 75.6096 254 75.82Z" fill="white"/>
<path id="Vector 4" d="M293.18 145.95C292.312 148.29 291.28 150.566 290.09 152.76C287.779 151.2 285.316 149.877 282.74 148.81C283.131 147.419 283.082 145.942 282.6 144.58C282.14 143.14 281.63 141.72 281.07 140.32C285.349 141.625 289.424 143.52 293.18 145.95Z" fill="#231815"/>
<path id="Vector 5" d="M282.6 144.58C283.082 145.942 283.131 147.419 282.74 148.81C280.362 147.827 277.893 147.077 275.37 146.57C274.643 144.227 273.768 141.932 272.75 139.7C274.211 139.098 275.824 138.972 277.36 139.34C278.62 139.62 279.85 139.94 281.07 140.34C281.63 141.727 282.14 143.14 282.6 144.58Z" fill="#231815"/>
<path id="Vector 6" d="M275.37 146.57C277.893 147.077 280.362 147.827 282.74 148.81C280.95 154.76 270.59 156.15 268.14 148.57L268.08 148.39C267.828 146.633 268.146 144.841 268.986 143.277C269.826 141.713 271.145 140.46 272.75 139.7C273.768 141.932 274.643 144.227 275.37 146.57Z" fill="#231815"/>
<path id="Vector 7" d="M268.14 148.57C270.59 156.15 280.95 154.76 282.74 148.81C285.316 149.877 287.779 151.2 290.09 152.76C294.378 155.657 298.08 159.338 301 163.61C302.442 161.335 303.744 158.974 304.9 156.54C311.496 164.725 315.264 174.825 315.64 185.33C316.33 206.21 303 225.2 283.58 232.42C275.58 235.42 267.27 235.31 258.88 235.31H160.45C149.7 235.31 139.45 233.95 129.67 229.02C122.957 225.554 116.999 220.788 112.144 214.999C107.289 209.211 103.634 202.514 101.39 195.3H109.27C107.525 190.482 106.546 185.421 106.37 180.3C106.37 179.69 106.37 179.08 106.37 178.47C106.37 165.384 111.568 152.834 120.821 143.581C130.074 134.328 142.624 129.13 155.71 129.13C160.873 129.142 166.004 129.952 170.92 131.53C176.691 122.845 184.682 115.862 194.062 111.306C203.442 106.75 213.871 104.787 224.265 105.62C234.66 106.454 244.642 110.054 253.177 116.046C261.711 122.039 268.486 130.206 272.8 139.7C271.195 140.46 269.876 141.713 269.036 143.277C268.196 144.841 267.878 146.633 268.13 148.39C265.273 139.655 260.136 131.84 253.25 125.753C246.365 119.665 237.98 115.525 228.96 113.76C209.21 109.89 188.66 118.83 177.39 135.31C175.54 138.02 172.27 139.78 168.92 138.76C151.49 133.44 131.99 139.07 121.46 154.4C117.052 160.673 114.452 168.036 113.944 175.686C113.436 183.336 115.039 190.979 118.578 197.78C122.118 204.58 127.457 210.278 134.014 214.252C140.571 218.225 148.093 220.321 155.76 220.31C160.36 220.36 164.96 220.31 169.55 220.31H260C266.28 220.31 272.35 220.51 278.41 218.4C292.27 213.57 301.18 199.85 300.69 185.33C300.16 169.59 288.4 157.12 273.39 153.8C272.045 153.584 270.805 152.941 269.853 151.967C268.901 150.993 268.286 149.739 268.1 148.39L268.14 148.57Z" fill="#231815"/>
<path id="Vector 8" d="M263.18 66.6C266.12 75.83 251.64 79.75 248.72 70.6C248.72 70.53 248.67 70.46 248.65 70.39C247.99 65.71 251.82 60.06 257.95 61.39C259.2 61.66 260.45 61.97 261.69 62.31C262.22 63.71 262.72 65.14 263.18 66.6Z" fill="#231815"/>
<path id="Vector 9" d="M254 75.82C252.643 75.6116 251.391 74.967 250.433 73.9837C249.475 73.0004 248.863 71.7319 248.69 70.37C248.69 70.44 248.74 70.51 248.76 70.58C251.68 79.75 266.16 75.83 263.22 66.58C262.76 65.12 262.22 63.69 261.73 62.26C266.787 63.6403 271.672 65.5894 276.29 68.07C299.93 80.83 314.29 107.76 311.29 134.5C310.441 142.136 308.308 149.574 304.98 156.5C301.657 152.362 297.69 148.787 293.23 145.91C296.012 138.47 297.118 130.507 296.47 122.59C294.52 99.28 276.42 80.65 254 75.82Z" fill="#231815"/>
<path id="Vector 10" d="M172.86 124.29C171.22 123.79 169.57 123.37 167.92 123.01C175.409 113.693 185.257 106.554 196.44 102.333C207.623 98.1121 219.733 96.9647 231.51 99.01C254.16 102.88 272.72 119.29 281.07 140.29C279.85 139.91 278.62 139.59 277.36 139.29C275.824 138.922 274.211 139.048 272.75 139.65C268.436 130.156 261.661 121.989 253.127 115.996C244.592 110.004 234.61 106.404 224.215 105.57C213.821 104.737 203.392 106.7 194.012 111.256C184.632 115.812 176.641 122.795 170.87 131.48C168.628 130.75 166.335 130.188 164.01 129.8L164.39 127.69L172.86 124.29Z" fill="#231815"/>
<path id="Vector 11" d="M172.86 124.29L164.39 127.74C165.51 126.1 166.687 124.523 167.92 123.01C169.57 123.37 171.22 123.79 172.86 124.29Z" fill="#231815"/>
<path id="Vector 12" d="M109.27 195.3H101.39C100.58 192.711 99.9712 190.063 99.57 187.38C99.2192 185.035 99.0121 182.67 98.95 180.3H106.37C106.546 185.421 107.525 190.482 109.27 195.3Z" fill="#231815"/>
<path id="Vector 13" d="M104.59 39.2799L96.1199 42.7199C97.2332 41.0799 98.3899 39.4732 99.5899 37.8999C101.27 38.2999 102.93 38.7599 104.59 39.2799Z" fill="#231815"/>
<path id="Vector 14" d="M248.65 70.37C244.296 56.9036 236.412 44.8502 225.82 35.464C215.227 26.0779 202.313 19.7021 188.42 17C157.99 11.1 126.36 24.78 109.07 50.28C107.23 52.99 103.93 54.77 100.6 53.73C93.5793 51.4829 86.2408 50.3887 78.87 50.49C61.815 50.9105 45.6112 58.0285 33.7639 70.3042C21.9167 82.5798 15.3785 99.0262 15.5638 116.085C15.7491 133.144 22.643 149.445 34.7542 161.46C46.8653 173.476 63.2199 180.24 80.28 180.29C86.5 180.35 92.72 180.29 98.95 180.29C99.0121 182.66 99.2192 185.025 99.57 187.37C99.9712 190.053 100.58 192.701 101.39 195.29H88.09C73.77 195.29 60.09 193.93 46.79 187.91C23.11 177.19 5.47997 154.16 1.47997 128.45C-2.63003 102.06 6.28996 74.76 26.14 56.62C35.9191 47.7317 47.7283 41.3766 60.5333 38.1113C73.3384 34.846 86.7488 34.77 99.59 37.89C98.39 39.4633 97.2333 41.07 96.12 42.71L104.59 39.27C102.93 38.75 101.27 38.27 99.59 37.89C112.33 20.9006 130.5 8.78281 151.081 3.55075C171.662 -1.6813 193.413 0.28753 212.72 9.12998C235.56 19.33 253.06 39.01 261.72 62.27C260.48 61.93 259.23 61.62 257.98 61.35C251.82 60 248 65.69 248.65 70.37Z" fill="#231815"/>
<path id="Vector 15" d="M98.9998 180.3C98.7287 172.101 100.234 163.94 103.411 156.376C106.589 148.813 111.364 142.025 117.41 136.48C124.171 130.411 132.27 126.026 141.049 123.683C149.827 121.341 159.034 121.106 167.92 123C166.693 124.507 165.517 126.083 164.39 127.73L164.01 129.84C161.253 129.356 158.459 129.115 155.66 129.12C142.574 129.12 130.024 134.318 120.771 143.571C111.518 152.824 106.32 165.374 106.32 178.46C106.32 179.07 106.32 179.68 106.32 180.29H98.9998V180.3Z" fill="#231815"/>
<path id="Vector 16" d="M99.59 37.9C86.7488 34.78 73.3384 34.856 60.5333 38.1213C47.7283 41.3867 35.9191 47.7417 26.14 56.63C6.28996 74.77 -2.63003 102.07 1.47997 128.46C5.47997 154.17 23.11 177.2 46.79 187.92C60.07 193.92 73.79 195.3 88.09 195.3H101.39" stroke="#231815" stroke-miterlimit="10"/>
<path id="Vector 17" d="M99.5899 37.8999C101.27 38.2999 102.93 38.7599 104.59 39.2799L96.1199 42.7199C97.2332 41.0799 98.3899 39.4732 99.5899 37.8999Z" stroke="#231815" stroke-miterlimit="10"/>
<path id="Vector 18" d="M261.69 62.28C253.06 39.02 235.56 19.34 212.69 9.14001C193.387 0.305326 171.642 -1.65931 151.068 3.57247C130.493 8.80425 112.328 20.9175 99.5898 37.9" stroke="#231815" stroke-miterlimit="10"/>
<path id="Vector 19" d="M98.9999 180.3C92.7699 180.3 86.5499 180.36 80.3299 180.3C63.2698 180.25 46.9152 173.486 34.804 161.47C22.6929 149.455 15.799 133.154 15.6137 116.095C15.4284 99.0362 21.9666 82.5898 33.8138 70.3142C45.6611 58.0385 61.8649 50.9205 78.9199 50.5C86.2907 50.3987 93.6292 51.4929 100.65 53.74C103.98 54.74 107.28 53 109.12 50.29C126.41 24.79 158.04 11.11 188.47 17.01C202.361 19.7112 215.275 26.0856 225.868 35.4698C236.46 44.8541 244.344 56.9055 248.7 70.37" stroke="#231815" stroke-miterlimit="10"/>
<path id="Vector 20" d="M248.65 70.37C248.823 71.7319 249.435 73.0004 250.393 73.9837C251.351 74.967 252.603 75.6116 253.96 75.82C276.42 80.65 294.52 99.28 296.42 122.63C297.068 130.547 295.962 138.51 293.18 145.95" stroke="#231815" stroke-miterlimit="10"/>
<path id="Vector 21" d="M304.93 156.54C308.258 149.614 310.391 142.176 311.24 134.54C314.24 107.8 299.89 80.8699 276.24 68.1099C271.622 65.6293 266.737 63.6802 261.68 62.2999" stroke="#231815" stroke-miterlimit="10"/>
<path id="Vector 22" d="M248.65 70.37C248.65 70.44 248.7 70.51 248.72 70.58C251.64 79.75 266.12 75.83 263.18 66.58C262.72 65.12 262.18 63.69 261.69 62.26C260.45 61.92 259.2 61.61 257.95 61.34C251.82 60 248 65.69 248.65 70.37Z" stroke="#231815" stroke-miterlimit="10"/>
<path id="Vector 23" d="M268.08 148.39L268.14 148.57C270.59 156.15 280.95 154.76 282.74 148.81C283.131 147.419 283.082 145.942 282.6 144.58C282.14 143.14 281.63 141.72 281.07 140.32C272.72 119.32 254.16 102.91 231.51 99.04C219.733 96.9947 207.623 98.1421 196.44 102.363C185.257 106.584 175.409 113.724 167.92 123.04C166.693 124.547 165.517 126.123 164.39 127.77L172.86 124.32C171.22 123.82 169.57 123.4 167.92 123.04C159.027 121.137 149.811 121.365 141.023 123.706C132.236 126.047 124.127 130.435 117.36 136.51C111.327 142.057 106.564 148.841 103.395 156.399C100.226 163.956 98.7268 172.109 98.9999 180.3C99.062 182.67 99.2691 185.035 99.6199 187.38C100.021 190.063 100.63 192.711 101.44 195.3C103.68 202.506 107.329 209.196 112.175 214.981C117.021 220.766 122.968 225.531 129.67 229C139.44 233.93 149.67 235.29 160.45 235.29H258.91C267.3 235.29 275.58 235.39 283.61 232.4C303.03 225.18 316.36 206.19 315.67 185.31C315.294 174.805 311.526 164.705 304.93 156.52C301.607 152.382 297.64 148.807 293.18 145.93C289.424 143.5 285.349 141.605 281.07 140.3C279.85 139.92 278.62 139.6 277.36 139.3C275.824 138.932 274.211 139.058 272.75 139.66C271.145 140.42 269.826 141.673 268.986 143.237C268.146 144.801 267.828 146.593 268.08 148.35" stroke="#231815" stroke-miterlimit="10"/>
<path id="Vector 24" d="M268.08 148.39C268.266 149.739 268.881 150.993 269.833 151.967C270.785 152.941 272.025 153.584 273.37 153.8C288.37 157.12 300.14 169.59 300.67 185.33C301.16 199.85 292.25 213.57 278.39 218.4C272.33 220.51 266.26 220.31 259.98 220.31H169.5C164.91 220.31 160.31 220.36 155.71 220.31C148.043 220.321 140.521 218.225 133.964 214.252C127.407 210.278 122.068 204.58 118.528 197.779C114.989 190.979 113.386 183.336 113.894 175.686C114.402 168.036 117.002 160.673 121.41 154.4C131.94 139.07 151.41 133.4 168.87 138.76C172.22 139.76 175.49 138.02 177.34 135.31C188.61 118.83 209.16 109.89 228.91 113.76C237.93 115.525 246.315 119.665 253.2 125.753C260.086 131.84 265.223 139.655 268.08 148.39Z" stroke="#231815" stroke-miterlimit="10"/>
</g>
</g>
</svg>
