<svg width="500" height="500" viewBox="0 0 500 500" fill="none" xmlns="http://www.w3.org/2000/svg">
<g id="09d">
<g id="09d_2">
<path id="Vector" d="M404.07 234.75C413.74 234.75 413.72 249.75 404.07 249.75H370.42C360.75 249.75 360.77 234.75 370.42 234.75H404.07Z" fill="#231815"/>
<path id="Vector_2" d="M341.39 254.91C341.797 252.01 342.07 249.083 342.21 246.13C356.187 255.526 366.532 269.417 371.53 285.5C384.125 288.038 395.326 295.169 402.955 305.508C410.583 315.846 414.094 328.652 412.804 341.435C411.515 354.218 405.517 366.065 395.977 374.672C386.438 383.278 374.038 388.029 361.19 388H354C354 384.28 356.46 380.56 361.24 380.5C383.24 380.2 402.45 363.89 405.24 341.79C408.13 318.51 392.16 297.65 369.63 292.79C368.38 292.443 367.241 291.78 366.323 290.863C365.405 289.947 364.739 288.809 364.39 287.56C360.229 274.588 352.204 263.196 341.39 254.91V254.91Z" fill="#231815"/>
<path id="Vector_3" d="M379.05 156.51C387.43 151.67 394.98 164.64 386.62 169.51L357.48 186.33C349.09 191.17 341.55 178.21 349.91 173.38L379.05 156.51Z" fill="#231815"/>
<path id="Vector_4" d="M412.94 336.22C412.94 324.289 408.818 312.724 401.272 303.482C393.727 294.24 383.22 287.888 371.53 285.5C366.532 269.417 356.187 255.526 342.21 246.13C342.27 245.03 342.31 243.93 342.32 242.82V242.74C342.32 242.6 342.32 242.46 342.32 242.32V242.25C342.32 242.08 342.32 241.91 342.32 241.74C342.32 240.24 342.23 238.74 342.15 237.27C358.229 246.938 370.591 261.73 377.25 279.27C376.02 278.92 374.79 278.59 373.52 278.32L378.76 283.56C378.3 282.11 377.76 280.69 377.25 279.27C404.68 287.16 423.52 314.42 419.98 343.18C418.155 357.533 411.196 370.741 400.389 380.362C389.583 389.983 375.659 395.367 361.19 395.52C356.31 395.58 353.9 391.8 353.95 388.02H361.19C367.991 388.02 374.724 386.68 381.006 384.076C387.288 381.472 392.995 377.656 397.801 372.845C402.607 368.034 406.418 362.324 409.016 356.039C411.613 349.755 412.947 343.02 412.94 336.22V336.22Z" fill="#231815"/>
<path id="Vector_5" d="M377.25 279.22C377.79 280.64 378.25 282.06 378.76 283.51L373.52 278.27C374.79 278.54 376 278.87 377.25 279.22Z" fill="#231815"/>
<path id="Vector_6" d="M341.56 245.7C342.009 244.803 342.268 243.822 342.32 242.82C342.32 243.93 342.27 245.03 342.21 246.13L341.56 245.7Z" fill="#231815"/>
<path id="Vector_7" d="M341.56 245.7C339.93 248.94 335.96 250.1 332.63 249.18C331.63 248.67 330.72 248.18 329.74 247.7C328.962 247.025 328.343 246.186 327.926 245.244C327.51 244.302 327.306 243.28 327.33 242.25C327.32 241.029 327.608 239.824 328.17 238.74C332.86 240.595 337.347 242.927 341.56 245.7V245.7Z" fill="#231815"/>
<path id="Vector_8" d="M342.33 242.32C342.33 242.46 342.33 242.6 342.33 242.74V242.82C342.278 243.822 342.019 244.803 341.57 245.7C337.359 242.913 332.872 240.568 328.18 238.7C331.28 232.86 341.94 233.86 342.33 241.7C342.33 241.87 342.33 242.04 342.33 242.21V242.32Z" fill="#231815"/>
<path id="Vector_9" d="M342.21 246.13C342.07 249.077 341.797 252.003 341.39 254.91C338.624 252.774 335.695 250.859 332.63 249.18C335.96 250.1 339.93 248.94 341.56 245.7L342.21 246.13Z" fill="#231815"/>
<path id="Vector_10" d="M332.63 249.18C347.697 257.436 359.029 271.148 364.3 287.5C364.649 288.749 365.315 289.887 366.233 290.803C367.151 291.72 368.29 292.383 369.54 292.73C392.07 297.62 408.04 318.48 405.15 341.73C402.4 363.83 383.15 380.14 361.15 380.44C356.37 380.5 353.95 384.22 353.91 387.94H227.78C227.78 384.21 225.34 380.49 220.54 380.44C196.04 380.16 174.18 363.84 167.7 340.04C165.435 331.4 165.294 322.341 167.288 313.634C169.281 304.928 173.351 296.833 179.15 290.04C183.156 285.328 187.942 281.339 193.3 278.25C206.88 270.42 222.84 269.16 237.73 273.76C241.07 274.76 244.36 273.02 246.2 270.31C260.84 248.77 287.62 237.17 313.35 242.21C318.099 243.142 322.733 244.587 327.17 246.52C328.04 246.89 328.9 247.29 329.74 247.7C330.58 248.11 331.68 248.67 332.63 249.18Z" fill="#D8BF9E"/>
<path id="Vector_11" d="M318.34 101.19C323.17 92.82 336.13 100.38 331.29 108.76L314.47 137.9C309.64 146.27 296.68 138.71 301.47 130.33L318.34 101.19Z" fill="#231815"/>
<path id="Vector_12" d="M327.2 238.36C327.046 235.587 326.749 232.823 326.31 230.08C331.842 231.877 337.155 234.289 342.15 237.27C342.23 238.75 342.3 240.27 342.32 241.74C341.93 233.9 331.27 232.9 328.17 238.74L327.2 238.36Z" fill="#231815"/>
<path id="Vector_13" d="M327.2 238.36L328.2 238.74C327.638 239.824 327.35 241.029 327.36 242.25C327.32 240.94 327.27 239.65 327.2 238.36Z" fill="#231815"/>
<path id="Vector_14" d="M327.17 246.52C327.26 245.1 327.32 243.67 327.33 242.25C327.306 243.28 327.51 244.302 327.926 245.244C328.343 246.186 328.962 247.025 329.74 247.7C328.9 247.29 328 246.89 327.17 246.52Z" fill="#231815"/>
<path id="Vector_15" d="M301.11 233.6C310.024 233.592 318.864 235.205 327.2 238.36C327.27 239.65 327.32 240.94 327.33 242.25C327.34 243.56 327.26 245.1 327.17 246.52C322.733 244.587 318.099 243.142 313.35 242.21C287.62 237.21 260.84 248.77 246.2 270.31C244.36 273.02 241.07 274.79 237.73 273.76C222.84 269.16 206.88 270.42 193.3 278.25C187.946 281.327 183.159 285.302 179.15 290C177.606 287.893 176.174 285.707 174.86 283.45C182.105 275.607 191.246 269.762 201.404 266.476C211.562 263.191 222.395 262.575 232.86 264.69C235.182 265.157 237.476 265.755 239.73 266.48C246.454 256.361 255.578 248.063 266.288 242.326C276.998 236.589 288.961 233.591 301.11 233.6Z" fill="#231815"/>
<path id="Vector_16" d="M327.2 238.36C311.584 232.46 294.428 232.033 278.538 237.148C262.647 242.264 248.962 252.618 239.72 266.52C237.466 265.795 235.172 265.197 232.85 264.73L233.25 262.73L241.72 259.28C240.07 258.77 238.41 258.34 236.72 257.96C245.912 246.149 258.153 237.069 272.123 231.7C286.093 226.331 301.264 224.875 316 227.49C319.511 228.105 322.973 228.971 326.36 230.08C326.782 232.824 327.062 235.587 327.2 238.36V238.36Z" fill="#231815"/>
<path id="Vector_17" d="M171.24 276.48C165.754 264.296 163.288 250.968 164.052 237.628C164.817 224.287 168.788 211.328 175.63 199.85C193.17 170.9 228.11 155.25 261.39 161.99C277.851 165.392 292.884 173.731 304.483 185.897C316.082 198.062 323.697 213.475 326.31 230.08C322.939 228.973 319.494 228.108 316 227.49C301.263 224.884 286.094 226.347 272.127 231.724C258.161 237.1 245.926 246.185 236.74 258C225.148 255.354 213.077 255.659 201.633 258.887C190.19 262.116 179.739 268.165 171.24 276.48V276.48Z" fill="#F8B62D"/>
<path id="Vector_18" d="M253.06 83.74V117.39C253.06 127.06 238.06 127.04 238.06 117.39V83.74C238.06 74.07 253.06 74.08 253.06 83.74Z" fill="#231815"/>
<path id="Vector_19" d="M241.72 259.29L233.25 262.74C234.36 261.1 235.53 259.51 236.74 257.97C238.41 258.35 240.07 258.78 241.72 259.29Z" fill="#231815"/>
<path id="Vector_20" d="M236.74 258C235.53 259.54 234.36 261.13 233.25 262.77L232.85 264.77C222.385 262.655 211.552 263.271 201.394 266.556C191.236 269.842 182.094 275.687 174.85 283.53C173.52 281.25 172.32 278.9 171.23 276.53C179.726 268.205 190.175 262.145 201.621 258.908C213.067 255.67 225.142 255.358 236.74 258V258Z" fill="#231815"/>
<path id="Vector_21" d="M189.61 130.33C194.45 138.72 181.48 146.26 176.61 137.9L159.78 108.76C154.94 100.37 167.91 92.83 172.73 101.19L189.61 130.33Z" fill="#231815"/>
<path id="Vector_22" d="M158.31 325.73C158.306 333.905 159.913 342.001 163.038 349.555C166.164 357.109 170.747 363.974 176.526 369.756C182.305 375.539 189.166 380.126 196.718 383.257C204.27 386.387 212.365 387.999 220.54 388H227.78C227.78 391.77 225.4 395.55 220.54 395.5C202.973 395.379 186.076 388.744 173.12 376.88C149.84 355.46 144.3 319.75 159.46 292.09C159.96 291.18 160.46 290.27 161.03 289.39C161.564 290.35 162.114 291.3 162.68 292.24C163.59 293.75 164.55 295.24 165.54 296.65C160.786 305.605 158.303 315.591 158.31 325.73V325.73Z" fill="#231815"/>
<path id="Vector_23" d="M165.54 296.62C168.063 291.857 171.196 287.443 174.86 283.49C176.174 285.747 177.606 287.933 179.15 290.04C175.695 294.082 172.842 298.602 170.68 303.46C168.893 301.273 167.18 298.993 165.54 296.62Z" fill="#231815"/>
<path id="Vector_24" d="M171.24 276.48C167.317 280.342 163.878 284.667 161 289.36C141.73 254.86 146 211.19 171 180.6C196.37 149.55 240.58 137.36 278.27 151.18C296.126 157.777 311.673 169.432 323.014 184.72C334.354 200.009 340.997 218.269 342.13 237.27C337.136 234.289 331.822 231.877 326.29 230.08C323.676 213.48 316.064 198.071 304.469 185.908C292.874 173.744 277.846 165.404 261.39 162C228.11 155.26 193.17 170.91 175.63 199.86C168.79 211.337 164.82 224.294 164.055 237.633C163.291 250.971 165.756 264.297 171.24 276.48V276.48Z" fill="#231815"/>
<path id="Vector_25" d="M171.24 276.48C172.33 278.86 173.53 281.21 174.86 283.48C171.196 287.433 168.063 291.847 165.54 296.61C164.54 295.17 163.59 293.71 162.68 292.2C162.114 291.26 161.564 290.31 161.03 289.35C163.899 284.662 167.328 280.34 171.24 276.48V276.48Z" fill="#231815"/>
<path id="Vector_26" d="M165.54 296.62C167.16 298.993 168.873 301.273 170.68 303.46C165.486 314.952 164.426 327.886 167.68 340.07C174.16 363.87 196.02 380.19 220.52 380.47C225.32 380.52 227.73 384.24 227.76 387.97H220.52C209.79 387.968 199.244 385.192 189.903 379.911C180.563 374.631 172.746 367.026 167.212 357.834C161.677 348.642 158.613 338.175 158.317 327.449C158.02 316.724 160.502 306.104 165.52 296.62H165.54Z" fill="#231815"/>
<path id="Vector_27" d="M141.22 173.34C149.59 178.17 142.02 191.13 133.65 186.29L104.5 169.47C96.1402 164.64 103.7 151.68 112.07 156.47L141.22 173.34Z" fill="#231815"/>
<path id="Vector_28" d="M133.65 298.2C142.03 293.36 149.58 306.32 141.22 311.15L112.07 328C103.69 332.84 96.1502 319.87 104.5 315L133.65 298.2Z" fill="#231815"/>
<path id="Vector_29" d="M120.71 234.75C130.37 234.75 130.36 249.75 120.71 249.75H87.0502C77.3802 249.75 77.4002 234.75 87.0502 234.75H120.71Z" fill="#231815"/>
<path id="Vector_30" d="M231.45 367.18C241.1 367.18 241.12 352.18 231.45 352.18C221.78 352.18 221.78 367.18 231.45 367.18Z" fill="#231815"/>
<path id="Vector_31" d="M259.3 367.18C268.95 367.18 268.97 352.18 259.3 352.18C249.63 352.18 249.63 367.18 259.3 367.18Z" fill="#231815"/>
<path id="Vector_32" d="M287.15 367.18C296.8 367.18 296.82 352.18 287.15 352.18C277.48 352.18 277.48 367.18 287.15 367.18Z" fill="#231815"/>
<path id="Vector_33" d="M315 367.18C324.65 367.18 324.67 352.18 315 352.18C305.33 352.18 305.33 367.18 315 367.18Z" fill="#231815"/>
<path id="Vector_34" d="M342.84 367.18C352.49 367.18 352.51 352.18 342.84 352.18C333.17 352.18 333.17 367.18 342.84 367.18Z" fill="#231815"/>
<path id="Vector_35" d="M264.45 423.76C274.1 423.76 274.12 408.76 264.45 408.76C254.78 408.76 254.78 423.76 264.45 423.76Z" fill="#231815"/>
<path id="Vector_36" d="M292.3 423.76C301.95 423.76 301.97 408.76 292.3 408.76C282.63 408.76 282.63 423.76 292.3 423.76Z" fill="#231815"/>
<path id="Vector_37" d="M320.15 423.76C329.8 423.76 329.82 408.76 320.15 408.76C310.48 408.76 310.48 423.76 320.15 423.76Z" fill="#231815"/>
<path id="Vector_38" d="M348 423.76C357.65 423.76 357.67 408.76 348 408.76C338.33 408.76 338.33 423.76 348 423.76Z" fill="#231815"/>
<path id="Vector_39" d="M375.84 423.76C385.49 423.76 385.51 408.76 375.84 408.76C366.17 408.76 366.17 423.76 375.84 423.76Z" fill="#231815"/>
<path id="Vector_40" d="M246.71 395.47C256.36 395.47 256.38 380.47 246.71 380.47C237.04 380.47 237.04 395.47 246.71 395.47Z" fill="#231815"/>
<path id="Vector_41" d="M276.46 395.47C286.11 395.47 286.13 380.47 276.46 380.47C266.79 380.47 266.79 395.47 276.46 395.47Z" fill="#231815"/>
<path id="Vector_42" d="M306.22 395.47C315.87 395.47 315.89 380.47 306.22 380.47C296.55 380.47 296.55 395.47 306.22 395.47Z" fill="#231815"/>
<path id="Vector_43" d="M336 395.47C345.65 395.47 345.67 380.47 336 380.47C326.33 380.47 326.33 395.47 336 395.47Z" fill="#231815"/>
</g>
</g>
</svg>
