<svg width="500" height="500" viewBox="0 0 500 500" fill="none" xmlns="http://www.w3.org/2000/svg">
<g id="09n">
<g id="09n_2">
<path id="Vector" d="M382.67 278.93C373.143 281.387 363.367 282.753 353.53 283C357.765 289.12 360.818 295.978 362.53 303.22C370.275 296.037 377.046 287.871 382.67 278.93V278.93Z" fill="#F4EC90"/>
<path id="Vector_2" d="M367.51 161.34C366.822 161.499 366.152 161.726 365.51 162.02C364.87 162.25 364.24 162.5 363.61 162.75C363.636 164.272 364.173 165.742 365.134 166.922C366.095 168.103 367.425 168.926 368.91 169.26C365.56 168.35 373.1 160.67 367.51 161.34Z" fill="#231815"/>
<path id="Vector_3" d="M363.59 162.74C362.52 163.17 361.46 163.61 360.41 164.09C359.75 164.39 359.12 164.72 358.49 165.09C361.802 166.846 365.288 168.254 368.89 169.29C367.398 168.955 366.063 168.125 365.101 166.936C364.14 165.748 363.607 164.269 363.59 162.74V162.74Z" fill="#231815"/>
<path id="Vector_4" d="M363.59 162.74C364.22 162.49 364.85 162.24 365.49 162.01C366.132 161.717 366.802 161.489 367.49 161.33C373.08 160.66 365.49 168.33 368.87 169.24C378.17 171.9 382.14 157.43 372.87 154.78C367.12 153.23 363.4 158.16 363.59 162.74Z" fill="#231815"/>
<path id="Vector_5" d="M228.5 101.6C226.15 107.253 224.208 113.068 222.69 119C228.061 115.601 233.688 112.625 239.52 110.1L228.5 101.6Z" fill="#231815"/>
<path id="Vector_6" d="M391.56 262.11C389.037 267.937 386.068 273.56 382.68 278.93C388.585 277.409 394.373 275.467 400 273.12L391.56 262.11Z" fill="#231815"/>
<path id="Vector_7" d="M362.53 303.22C360.43 305.16 358.267 307.02 356.04 308.8C356.972 315.065 356.742 321.448 355.36 327.63C358.254 325.75 361.07 323.75 363.81 321.63C364.384 315.464 363.951 309.247 362.53 303.22V303.22Z" fill="#231815"/>
<path id="Vector_8" d="M396 258.65C402.81 255.81 406.67 264.58 404.47 269.65C395.532 290.157 381.523 308.052 363.76 321.65C364.337 315.478 363.908 309.254 362.49 303.22C370.236 296.042 377.007 287.879 382.63 278.94C388.551 277.414 394.355 275.469 400 273.12C397.18 269.453 394.357 265.787 391.53 262.12L390.98 260.64C392.687 260.02 394.36 259.357 396 258.65Z" fill="#231815"/>
<path id="Vector_9" d="M391 260.62L391.55 262.1C389.03 267.931 386.061 273.558 382.67 278.93C373.138 281.383 363.359 282.748 353.52 283C349.283 276.843 343.943 271.523 337.77 267.31C355.791 269.154 373.996 266.866 391 260.62V260.62Z" fill="#231815"/>
<path id="Vector_10" d="M372.87 154.78C375.356 155.48 377.505 157.054 378.922 159.214C380.338 161.373 380.927 163.971 380.58 166.53C379.87 171.8 376.12 174.19 371.5 175.8C362.05 179.08 354.44 185.11 349.71 194.02C347.71 197.74 347.28 202.47 344.5 205.68C343.016 207.354 341.043 208.518 338.86 209.006C336.677 209.495 334.395 209.282 332.34 208.4C327.34 206.27 326.68 201.88 324.9 197.4C323.489 193.811 321.51 190.471 319.04 187.51C316.165 184.094 312.708 181.213 308.83 179C305.35 177 301.37 176.4 297.92 174.49C295.811 173.332 294.151 171.498 293.208 169.284C292.265 167.07 292.093 164.604 292.72 162.28C293.97 157.74 297.43 155.81 301.55 154.44C309.564 151.921 316.491 146.77 321.21 139.82C325.66 133.02 326.39 120.54 336.97 120.96C346.87 121.34 347.53 133.23 351.84 139.82C356.817 147.174 364.269 152.497 372.84 154.82C367.08 153.27 363.36 158.19 363.56 162.82C362.49 163.24 361.42 163.69 360.38 164.16C359.72 164.46 359.09 164.79 358.45 165.16C349.11 160.241 341.47 152.619 336.53 143.29C337.477 141.432 338.328 139.526 339.08 137.58C339.57 136.32 340.66 134.26 340.65 132.85H332.34C332.47 133.31 332.61 133.77 332.74 134.23C332.999 135.388 333.391 136.512 333.91 137.58C334.669 139.534 335.544 141.44 336.53 143.29C335.9 144.51 335.24 145.71 334.53 146.88C330.709 152.854 325.744 158.013 319.92 162.06C318.241 163.238 316.48 164.295 314.65 165.22C312.153 163.913 309.558 162.799 306.89 161.89C306.019 161.489 305.097 161.21 304.15 161.06V165.21C302.817 168.597 303.047 169.93 304.84 169.21C306.22 169.21 308.24 168.1 309.55 167.58C311.28 166.88 312.99 166.11 314.65 165.26C318.677 167.371 322.417 169.989 325.78 173.05C330.146 177.05 333.772 181.789 336.49 187.05C334.95 189.84 333.17 193.21 332.76 196.22C332.41 198.74 330.62 197.59 336.52 197.59C341.37 197.59 341.04 198.59 340.06 195.59C339.407 193.625 338.653 191.696 337.8 189.81C337.4 188.89 336.95 187.99 336.49 187.1L337.08 186.02C340.44 179.966 344.996 174.659 350.47 170.42C352.972 168.449 355.65 166.712 358.47 165.23C361.784 166.989 365.273 168.396 368.88 169.43C378.18 171.91 382.15 157.44 372.87 154.78Z" fill="#231815"/>
<path id="Vector_11" d="M363.8 321.64C363.74 322.19 363.7 322.73 363.64 323.27C361.815 337.625 354.854 350.834 344.045 360.455C333.236 370.077 319.31 375.46 304.84 375.61C299.97 375.68 297.56 371.9 297.6 368.11H304.84C316.607 368.109 328.022 364.098 337.203 356.74C346.385 349.381 352.786 339.114 355.35 327.63C358.243 325.743 361.06 323.747 363.8 321.64Z" fill="#231815"/>
<path id="Vector_12" d="M353.52 283C357.756 289.119 360.808 295.977 362.52 303.22C360.42 305.16 358.253 307.023 356.02 308.81C354.621 299.243 350.556 290.264 344.29 282.9C347.37 283 350.45 283.07 353.52 283Z" fill="#231815"/>
<path id="Vector_13" d="M356 308.8C356.375 311.306 356.562 313.836 356.56 316.37C356.556 320.157 356.14 323.933 355.32 327.63C352.2 329.63 349 331.55 345.72 333.3C347.255 329.661 348.281 325.829 348.77 321.91C349.099 319.257 349.182 316.579 349.02 313.91C351.434 312.303 353.76 310.6 356 308.8Z" fill="#231815"/>
<path id="Vector_14" d="M344.3 282.89C350.555 290.257 354.609 299.236 356 308.8C353.74 310.6 351.407 312.313 349 313.94C348.605 307.68 346.885 301.575 343.954 296.03C341.024 290.484 336.949 285.624 332 281.77C336.1 282.33 340.2 282.703 344.3 282.89Z" fill="#231815"/>
<path id="Vector_15" d="M353.52 283C350.45 283.08 347.37 283 344.3 282.9C336.799 274.053 326.544 267.982 315.18 265.66C314.84 264.55 314.47 263.46 314.07 262.38C321.781 264.829 329.723 266.481 337.77 267.31C343.944 271.523 349.283 276.843 353.52 283V283Z" fill="#231815"/>
<path id="Vector_16" d="M358.48 165C355.661 166.482 352.983 168.219 350.48 170.19C345.006 174.429 340.45 179.736 337.09 185.79L336.5 186.87C333.782 181.609 330.156 176.87 325.79 172.87C322.427 169.809 318.687 167.192 314.66 165.08C316.49 164.155 318.252 163.098 319.93 161.92C325.754 157.873 330.719 152.714 334.54 146.74C335.27 145.57 335.93 144.37 336.54 143.15C341.489 152.475 349.135 160.09 358.48 165V165Z" fill="white"/>
<path id="Vector_17" d="M349.05 313.94C349.212 316.609 349.129 319.287 348.8 321.94C348.311 325.859 347.285 329.691 345.75 333.33C342.301 341.35 336.602 348.198 329.341 353.045C322.08 357.892 313.57 360.53 304.84 360.64C300.06 360.71 297.65 364.43 297.6 368.14H171.43C171.43 364.42 168.99 360.7 164.19 360.64C139.69 360.37 117.83 344.05 111.36 320.24C108.271 308.547 109.106 296.163 113.738 284.991C118.37 273.818 126.543 264.476 137 258.4C143.293 254.779 150.258 252.482 157.47 251.65C162.829 251.023 168.249 251.158 173.57 252.05C176.229 252.493 178.855 253.115 181.43 253.91C184.77 254.91 188.06 253.17 189.9 250.46C195.43 242.392 202.649 235.624 211.057 230.626C219.465 225.629 228.86 222.521 238.59 221.52C244.751 220.891 250.972 221.174 257.05 222.36L257.34 222.42C267.467 224.45 276.988 228.791 285.161 235.104C293.334 241.418 299.939 249.534 304.46 258.82C305.852 261.671 307.035 264.618 308 267.64C308.347 268.892 309.012 270.032 309.93 270.95C310.848 271.869 311.989 272.533 313.24 272.88C320.124 274.37 326.578 277.41 332.11 281.77C337.048 285.629 341.112 290.492 344.032 296.038C346.952 301.583 348.662 307.685 349.05 313.94V313.94Z" fill="#D8BF9E"/>
<path id="Vector_18" d="M345.75 333.3C349.03 331.55 352.23 329.65 355.35 327.63C352.786 339.114 346.385 349.381 337.203 356.74C328.022 364.098 316.607 368.109 304.84 368.11H297.6C297.65 364.4 300.06 360.68 304.84 360.61C313.569 360.5 322.08 357.862 329.341 353.015C336.601 348.168 342.301 341.32 345.75 333.3V333.3Z" fill="#231815"/>
<path id="Vector_19" d="M340.68 132.73C340.68 134.14 339.6 136.2 339.11 137.46C338.358 139.406 337.507 141.312 336.56 143.17C335.574 141.32 334.699 139.414 333.94 137.46C333.422 136.392 333.029 135.268 332.77 134.11C332.64 133.65 332.5 133.19 332.37 132.73H340.68Z" fill="#231815"/>
<path id="Vector_20" d="M340.07 195.4C341.07 198.46 341.38 197.4 336.53 197.4C330.63 197.4 332.42 198.55 332.77 196.03C333.18 193.03 334.96 189.65 336.5 186.86C336.96 187.75 337.41 188.65 337.81 189.57C338.665 191.472 339.419 193.418 340.07 195.4V195.4Z" fill="#231815"/>
<path id="Vector_21" d="M344.3 282.89C340.2 282.71 336.12 282.337 332.06 281.77C326.528 277.41 320.074 274.37 313.19 272.88C311.939 272.533 310.798 271.869 309.88 270.95C308.962 270.032 308.297 268.892 307.95 267.64C306.985 264.618 305.801 261.671 304.41 258.82C307.58 260.15 310.81 261.33 314.07 262.37C314.47 263.45 314.84 264.54 315.18 265.65C326.544 267.972 336.799 274.043 344.3 282.89Z" fill="#231815"/>
<path id="Vector_22" d="M320.9 259.37C326.908 261.104 332.602 263.78 337.77 267.3C329.722 266.471 321.781 264.819 314.07 262.37C309.303 249.215 300.891 237.687 289.817 229.134C278.743 220.582 265.463 215.357 251.53 214.07C249.957 211.563 248.487 209.01 247.12 206.41C251.309 206.499 255.484 206.911 259.61 207.64C287.74 212.58 310.86 233.04 320.9 259.37C319.68 259.02 318.44 258.69 317.18 258.42L322.42 263.66C322 262.21 321.44 260.79 320.9 259.37Z" fill="#231815"/>
<path id="Vector_23" d="M322.42 263.66L317.18 258.42C318.44 258.69 319.68 259.02 320.9 259.37C321.44 260.79 322 262.21 322.42 263.66Z" fill="#231815"/>
<path id="Vector_24" d="M314.66 165.1C313 165.95 311.29 166.72 309.56 167.42C308.25 167.94 306.23 169.09 304.85 169.05C303.057 169.803 302.827 168.47 304.16 165.05V160.9C305.107 161.05 306.029 161.329 306.9 161.73C309.569 162.652 312.164 163.779 314.66 165.1V165.1Z" fill="#231815"/>
<path id="Vector_25" d="M314.07 262.37C310.81 261.37 307.58 260.15 304.41 258.82C299.889 249.534 293.284 241.418 285.111 235.105C276.938 228.791 267.417 224.45 257.29 222.42C255.24 219.7 253.29 216.92 251.53 214.07C265.463 215.357 278.743 220.582 289.817 229.134C300.892 237.687 309.303 249.214 314.07 262.37V262.37Z" fill="#231815"/>
<path id="Vector_26" d="M257.29 222.42L257 222.36C250.922 221.174 244.701 220.891 238.54 221.52C237.11 219.21 235.77 216.86 234.49 214.52C237.893 214.042 241.324 213.802 244.76 213.8C247.04 213.8 249.3 213.92 251.53 214.12C253.31 216.92 255.24 219.7 257.29 222.42Z" fill="#231815"/>
<path id="Vector_27" d="M247.12 206.41C248.494 209.01 249.964 211.563 251.53 214.07C249.3 213.87 247.04 213.75 244.76 213.75C241.324 213.752 237.893 213.992 234.49 214.47C233.284 212.223 232.144 209.943 231.07 207.63C236.366 206.691 241.743 206.282 247.12 206.41V206.41Z" fill="#231815"/>
<path id="Vector_28" d="M247.12 206.41C241.76 206.285 236.4 206.694 231.12 207.63C218.169 179.944 215.191 148.631 222.69 119C228.061 115.602 233.688 112.626 239.52 110.1L240.99 110.65C235.276 126.156 232.869 142.687 233.925 159.178C234.981 175.67 239.475 191.759 247.12 206.41V206.41Z" fill="#231815"/>
<path id="Vector_29" d="M231.94 97.11C237.08 94.89 245.82 98.74 242.94 105.58C242.24 107.25 241.59 108.92 240.94 110.58L239.47 110.03L228.47 101.56L227.33 99.18C228.87 98.47 230.4 97.78 231.94 97.11Z" fill="#231815"/>
<path id="Vector_30" d="M234.49 214.47C235.77 216.86 237.11 219.21 238.54 221.47C228.81 222.471 219.415 225.579 211.007 230.576C202.599 235.574 195.379 242.342 189.85 250.41C188.01 253.12 184.72 254.88 181.38 253.86C178.805 253.065 176.179 252.443 173.52 252C172.69 249.37 171.95 246.7 171.31 244C175.409 244.471 179.452 245.345 183.38 246.61C189.147 237.948 196.683 230.605 205.492 225.065C214.302 219.526 224.184 215.915 234.49 214.47V214.47Z" fill="#231815"/>
<path id="Vector_31" d="M231.07 207.63C232.137 209.943 233.277 212.223 234.49 214.47C224.179 215.922 214.294 219.542 205.484 225.092C196.674 230.642 189.141 237.997 183.38 246.67C179.452 245.405 175.409 244.531 171.31 244.06C170.71 241.57 170.19 239.06 169.75 236.52C173.332 236.781 176.889 237.316 180.39 238.12C179.18 239.66 178.01 241.25 176.9 242.89L185.37 239.44C183.72 238.93 182.06 238.5 180.37 238.12C192.929 222.049 210.987 211.189 231.07 207.63V207.63Z" fill="#231815"/>
<path id="Vector_32" d="M227.36 99.21L228.5 101.59C226.146 107.246 224.204 113.064 222.69 119C197.879 134.525 179.792 158.789 172 187C167.652 203.153 166.894 220.063 169.78 236.54C164.651 236.173 159.498 236.364 154.41 237.11C150.216 209.341 155.045 180.959 168.185 156.138C181.326 131.318 202.086 111.371 227.41 99.23L227.36 99.21Z" fill="#231815"/>
<path id="Vector_33" d="M222.69 119C215.166 148.638 218.127 179.966 231.07 207.67C210.994 211.234 192.944 222.093 180.39 238.16C176.89 237.356 173.333 236.821 169.75 236.56C166.871 220.074 167.639 203.157 172 187C179.792 158.789 197.88 134.525 222.69 119Z" fill="#F4EC90"/>
<path id="Vector_34" d="M185.37 239.44L176.9 242.89C178.01 241.25 179.18 239.66 180.39 238.12C182.06 238.5 183.72 238.93 185.37 239.44Z" fill="#231815"/>
<path id="Vector_35" d="M171.31 244.06C171.95 246.75 172.69 249.42 173.52 252.06C168.199 251.168 162.779 251.033 157.42 251.66C156.754 249.207 156.164 246.737 155.65 244.25C158.481 243.861 161.334 243.664 164.19 243.66C166.569 243.657 168.947 243.79 171.31 244.06V244.06Z" fill="#231815"/>
<path id="Vector_36" d="M171.43 368.11C171.43 371.89 169.06 375.67 164.19 375.61C146.626 375.498 129.73 368.865 116.78 357C93.4902 335.58 88.0002 299.87 103.11 272.21C108.358 262.79 115.72 254.716 124.616 248.622C133.512 242.528 143.7 238.58 154.38 237.09C154.74 239.48 155.16 241.87 155.65 244.24C140.038 246.405 125.828 254.414 115.892 266.65C105.956 278.885 101.032 294.436 102.116 310.16C103.201 325.885 110.211 340.612 121.733 351.368C133.254 362.124 148.428 368.108 164.19 368.11H171.43Z" fill="#231815"/>
<path id="Vector_37" d="M171.43 368.11H164.19C148.428 368.108 133.254 362.124 121.733 351.368C110.211 340.612 103.2 325.885 102.116 310.16C101.032 294.436 105.955 278.885 115.892 266.65C125.828 254.414 140.037 246.405 155.65 244.24C156.17 246.733 156.76 249.203 157.42 251.65C150.225 252.489 143.277 254.786 137 258.4C126.558 264.482 118.4 273.823 113.777 284.988C109.155 296.153 108.323 308.527 111.41 320.21C117.88 344.02 139.74 360.34 164.24 360.61C169 360.67 171.4 364.39 171.43 368.11Z" fill="#231815"/>
<path id="Vector_38" d="M169.75 236.52C170.19 239.05 170.75 241.57 171.31 244.06C168.947 243.787 166.57 243.65 164.19 243.65C161.334 243.654 158.481 243.851 155.65 244.24C155.16 241.87 154.74 239.48 154.38 237.09C159.468 236.344 164.622 236.153 169.75 236.52V236.52Z" fill="#231815"/>
<path id="Vector_39" d="M175.1 347.33C184.75 347.33 184.77 332.33 175.1 332.33C165.43 332.33 165.43 347.33 175.1 347.33Z" fill="#231815"/>
<path id="Vector_40" d="M203 347.33C212.65 347.33 212.67 332.33 203 332.33C193.33 332.33 193.33 347.33 203 347.33Z" fill="#231815"/>
<path id="Vector_41" d="M230.8 347.33C240.45 347.33 240.47 332.33 230.8 332.33C221.13 332.33 221.13 347.33 230.8 347.33Z" fill="#231815"/>
<path id="Vector_42" d="M258.65 347.33C268.3 347.33 268.32 332.33 258.65 332.33C248.98 332.33 248.98 347.33 258.65 347.33Z" fill="#231815"/>
<path id="Vector_43" d="M286.5 347.33C296.15 347.33 296.17 332.33 286.5 332.33C276.83 332.33 276.83 347.33 286.5 347.33Z" fill="#231815"/>
<path id="Vector_44" d="M208.11 403.91C217.76 403.91 217.78 388.91 208.11 388.91C198.44 388.91 198.44 403.91 208.11 403.91Z" fill="#231815"/>
<path id="Vector_45" d="M236 403.91C245.65 403.91 245.67 388.91 236 388.91C226.33 388.91 226.33 403.91 236 403.91Z" fill="#231815"/>
<path id="Vector_46" d="M263.8 403.91C273.45 403.91 273.47 388.91 263.8 388.91C254.13 388.91 254.13 403.91 263.8 403.91Z" fill="#231815"/>
<path id="Vector_47" d="M291.65 403.91C301.3 403.91 301.32 388.91 291.65 388.91C281.98 388.91 281.98 403.91 291.65 403.91Z" fill="#231815"/>
<path id="Vector_48" d="M319.5 403.91C329.15 403.91 329.17 388.91 319.5 388.91C309.83 388.91 309.83 403.91 319.5 403.91Z" fill="#231815"/>
<path id="Vector_49" d="M190.36 375.62C200.01 375.62 200.03 360.62 190.36 360.62C180.69 360.62 180.69 375.62 190.36 375.62Z" fill="#231815"/>
<path id="Vector_50" d="M220.12 375.62C229.77 375.62 229.79 360.62 220.12 360.62C210.45 360.62 210.45 375.62 220.12 375.62Z" fill="#231815"/>
<path id="Vector_51" d="M249.87 375.62C259.52 375.62 259.54 360.62 249.87 360.62C240.2 360.62 240.2 375.62 249.87 375.62Z" fill="#231815"/>
<path id="Vector_52" d="M279.63 375.62C289.28 375.62 289.3 360.62 279.63 360.62C269.96 360.62 269.96 375.62 279.63 375.62Z" fill="#231815"/>
</g>
</g>
</svg>
