<svg width="500" height="500" viewBox="0 0 500 500" fill="none" xmlns="http://www.w3.org/2000/svg">
<g id="10d">
<g id="10d_2">
<path id="Vector" d="M369.54 290.92C392.07 295.8 408.04 316.66 405.15 339.92C402.4 362.01 383.15 378.33 361.15 378.62C356.37 378.68 353.95 382.4 353.91 386.12H227.78C227.78 382.4 225.34 378.67 220.54 378.62C196.04 378.35 174.18 362.02 167.7 338.22C164.447 326.036 165.507 313.102 170.7 301.61C172.867 296.754 175.719 292.235 179.17 288.19C183.178 283.48 187.964 279.493 193.32 276.4C206.9 268.57 222.86 267.32 237.75 271.91C241.09 272.91 244.38 271.17 246.22 268.46C260.86 246.93 287.64 235.33 313.37 240.36C318.119 241.292 322.753 242.737 327.19 244.67C328.06 245.05 328.92 245.44 329.76 245.85C330.6 246.26 331.7 246.85 332.65 247.34C347.724 255.583 359.06 269.295 364.32 285.65C364.662 286.904 365.323 288.048 366.237 288.971C367.152 289.895 368.29 290.566 369.54 290.92ZM326.54 382.42C330.15 381.42 333.24 377 331.78 373.2L324.37 354C322.92 350.22 319.37 347.61 315.15 348.76C311.53 349.76 308.45 354.18 309.91 357.98L317.28 377.18C318.73 381 322.33 383.57 326.51 382.42H326.54ZM288.54 382.42C292.15 381.42 295.24 377 293.78 373.2L286.41 354C284.96 350.22 281.41 347.61 277.19 348.76C273.57 349.76 270.49 354.18 271.95 357.98L279.32 377.18C280.77 381 284.37 383.57 288.55 382.42H288.54ZM250.54 382.42C254.15 381.42 257.23 377 255.77 373.2C253.323 366.8 250.867 360.4 248.4 354C246.95 350.22 243.4 347.61 239.17 348.76C235.56 349.76 232.48 354.18 233.94 357.98C236.387 364.38 238.843 370.78 241.31 377.18C242.81 381 246.41 383.57 250.59 382.42H250.54Z" fill="#DCDDDD"/>
<path id="Vector_2" d="M404.07 232.93C413.74 232.93 413.72 247.93 404.07 247.93H370.42C360.75 247.93 360.77 232.93 370.42 232.93H404.07Z" fill="#231815"/>
<path id="Vector_3" d="M342.21 244.32C356.191 253.712 366.538 267.604 371.53 283.69C384.101 286.249 395.273 293.386 402.879 303.716C410.485 314.046 413.984 326.833 412.696 339.596C411.408 352.36 405.425 364.19 395.908 372.792C386.391 381.394 374.018 386.154 361.19 386.15H354C354 382.43 356.46 378.71 361.24 378.65C383.24 378.36 402.45 362.04 405.24 339.95C408.13 316.66 392.16 295.8 369.63 290.95C368.379 290.602 367.24 289.936 366.322 289.018C365.404 288.1 364.738 286.961 364.39 285.71C360.242 272.771 352.251 261.403 341.48 253.12C341.827 250.2 342.07 247.267 342.21 244.32Z" fill="#231815"/>
<path id="Vector_4" d="M379.05 154.7C387.43 149.86 394.98 162.83 386.62 167.7L357.48 184.53C349.09 189.37 341.55 176.4 349.91 171.58L379.05 154.7Z" fill="#231815"/>
<path id="Vector_5" d="M377.25 277.41C404.68 285.29 423.52 312.55 419.98 341.31C418.155 355.663 411.196 368.871 400.389 378.492C389.582 388.113 375.658 393.498 361.19 393.65C356.31 393.71 353.9 389.93 353.95 386.15H361.19C374.018 386.154 386.391 381.394 395.908 372.792C405.425 364.19 411.408 352.36 412.696 339.596C413.984 326.833 410.485 314.046 402.879 303.716C395.273 293.386 384.101 286.249 371.53 283.69C366.538 267.604 356.191 253.712 342.21 244.32C342.27 243.22 342.31 242.11 342.32 241V240.92C342.32 240.78 342.32 240.64 342.32 240.5V240.43C342.32 240.26 342.32 240.09 342.32 239.92C342.32 238.42 342.23 236.92 342.15 235.45C358.227 245.119 370.589 259.911 377.25 277.45C376.02 277.09 374.79 276.77 373.52 276.45L378.76 281.69C378.3 280.25 377.79 278.82 377.25 277.41Z" fill="#231815"/>
<path id="Vector_6" d="M377.25 277.41C377.79 278.82 378.25 280.25 378.76 281.69L373.52 276.45C374.79 276.73 376 277.05 377.25 277.41Z" fill="#231815"/>
<path id="Vector_7" d="M348.21 416.08C349.67 419.88 346.59 424.31 342.98 425.3C338.8 426.45 335.2 423.85 333.75 420.07C331.29 413.67 328.833 407.267 326.38 400.86C324.92 397.06 328 392.63 331.61 391.64C335.79 390.49 339.39 393.1 340.84 396.88C343.3 403.28 345.757 409.68 348.21 416.08Z" fill="#2EA7E0"/>
<path id="Vector_8" d="M342.32 240.92C342.32 240.78 342.32 240.64 342.32 240.5C342.33 240.64 342.33 240.78 342.32 240.92Z" fill="#231815"/>
<path id="Vector_9" d="M341.56 243.89C342.008 242.989 342.267 242.005 342.32 241C342.32 242.11 342.27 243.22 342.21 244.32C342 244.17 341.78 244 341.56 243.89Z" fill="#231815"/>
<path id="Vector_10" d="M341.56 243.89C339.93 247.12 335.96 248.28 332.63 247.37C331.63 246.85 330.72 246.37 329.74 245.88C328.958 245.208 328.336 244.37 327.919 243.427C327.502 242.484 327.301 241.461 327.33 240.43C327.32 239.212 327.608 238.011 328.17 236.93C332.864 238.777 337.352 241.11 341.56 243.89V243.89Z" fill="#231815"/>
<path id="Vector_11" d="M328.17 236.93C331.27 231.09 341.93 232.09 342.32 239.93C342.32 240.1 342.32 240.27 342.32 240.44V240.51C342.32 240.65 342.32 240.79 342.32 240.93V241C342.267 242.005 342.008 242.989 341.56 243.89C337.352 241.11 332.864 238.777 328.17 236.93V236.93Z" fill="#231815"/>
<path id="Vector_12" d="M332.63 247.37C335.96 248.28 339.93 247.12 341.56 243.89C341.78 244.03 342 244.17 342.21 244.32C342.07 247.273 341.797 250.197 341.39 253.09C338.624 250.958 335.695 249.045 332.63 247.37V247.37Z" fill="#231815"/>
<path id="Vector_13" d="M331.75 373.2C333.21 377 330.12 381.43 326.51 382.42C322.33 383.57 318.73 380.96 317.28 377.18L309.91 358C308.45 354.2 311.53 349.77 315.15 348.78C319.33 347.63 322.92 350.24 324.37 354.02L331.75 373.2Z" fill="#2EA7E0"/>
<path id="Vector_14" d="M318.34 99.3701C323.17 91.0001 336.13 98.5701 331.29 106.94L314.47 136.09C309.64 144.45 296.68 136.89 301.47 128.52L318.34 99.3701Z" fill="#231815"/>
<path id="Vector_15" d="M327.2 236.54C327.045 233.767 326.748 231.003 326.31 228.26C331.84 230.061 337.153 232.473 342.15 235.45C342.23 236.93 342.3 238.45 342.32 239.92C341.93 232.09 331.27 231.09 328.17 236.92L327.2 236.54Z" fill="#231815"/>
<path id="Vector_16" d="M328.17 236.93C327.608 238.011 327.32 239.212 327.33 240.43C327.33 239.13 327.27 237.83 327.2 236.54L328.17 236.93Z" fill="#231815"/>
<path id="Vector_17" d="M327.33 240.43C327.301 241.461 327.502 242.484 327.919 243.427C328.336 244.37 328.958 245.208 329.74 245.88C328.9 245.47 328.04 245.08 327.17 244.7C327.26 243.28 327.32 241.86 327.33 240.43Z" fill="#231815"/>
<path id="Vector_18" d="M220.54 261.68C224.667 261.678 228.784 262.086 232.83 262.9V262.9C235.16 263.364 237.461 263.965 239.72 264.7C248.964 250.801 262.649 240.447 278.538 235.331C294.427 230.214 311.582 230.637 327.2 236.53C327.27 237.82 327.32 239.12 327.33 240.42C327.34 241.72 327.26 243.27 327.17 244.69C322.733 242.757 318.099 241.312 313.35 240.38C287.62 235.38 260.84 246.95 246.2 268.48C244.36 271.19 241.07 272.96 237.73 271.93C222.84 267.34 206.88 268.59 193.3 276.42C187.944 279.513 183.158 283.5 179.15 288.21C177.604 286.105 176.172 283.919 174.86 281.66C180.677 275.349 187.74 270.315 195.603 266.876C203.466 263.437 211.958 261.667 220.54 261.68V261.68Z" fill="#231815"/>
<path id="Vector_19" d="M301.11 231.79C288.955 231.784 276.988 234.787 266.276 240.531C255.564 246.275 246.44 254.582 239.72 264.71C237.461 263.975 235.16 263.374 232.83 262.91L233.25 260.91L241.72 257.47C240.07 256.96 238.41 256.53 236.72 256.14C245.914 244.331 258.155 235.254 272.124 229.885C286.094 224.516 301.264 223.059 316 225.67C319.51 226.29 322.971 227.155 326.36 228.26C326.798 231.003 327.095 233.767 327.25 236.54C318.897 233.383 310.039 231.773 301.11 231.79V231.79Z" fill="#231815"/>
<path id="Vector_20" d="M310.25 416.08C311.71 419.88 308.63 424.31 305.02 425.3C300.84 426.45 297.24 423.85 295.79 420.07L288.41 400.86C286.95 397.06 290.04 392.63 293.65 391.64C297.83 390.49 301.43 393.1 302.88 396.88C305.34 403.28 307.797 409.68 310.25 416.08Z" fill="#2EA7E0"/>
<path id="Vector_21" d="M261.39 160.18C277.851 163.578 292.884 171.916 304.484 184.08C316.083 196.244 323.697 211.656 326.31 228.26C322.938 227.158 319.493 226.292 316 225.67C301.274 223.073 286.118 224.539 272.162 229.909C258.206 235.279 245.977 244.351 236.79 256.15C225.195 253.51 213.124 253.821 201.68 257.055C190.237 260.289 179.788 266.342 171.29 274.66C165.791 262.476 163.315 249.145 164.07 235.798C164.826 222.452 168.791 209.486 175.63 198C193.17 169.08 228.11 153.43 261.39 160.18Z" fill="#F8B62D"/>
<path id="Vector_22" d="M293.79 373.2C295.25 377 292.16 381.43 288.55 382.42C284.37 383.57 280.77 380.96 279.32 377.18L272 358C270.54 354.2 273.62 349.77 277.24 348.78C281.42 347.63 285.01 350.24 286.46 354.02L293.79 373.2Z" fill="#2EA7E0"/>
<path id="Vector_23" d="M272.29 416.08C273.75 419.88 270.67 424.31 267.05 425.3C262.87 426.45 259.28 423.85 257.83 420.07L250.45 400.87C248.99 397.06 252.08 392.63 255.69 391.64C259.87 390.49 263.47 393.1 264.92 396.88L272.29 416.08Z" fill="#2EA7E0"/>
<path id="Vector_24" d="M255.82 373.2C257.28 377 254.2 381.43 250.59 382.42C246.41 383.57 242.81 380.96 241.36 377.18C238.9 370.78 236.443 364.38 233.99 357.98C232.53 354.18 235.61 349.75 239.22 348.76C243.4 347.61 247 350.22 248.45 354C250.91 360.4 253.367 366.8 255.82 373.2Z" fill="#2EA7E0"/>
<path id="Vector_25" d="M253.06 81.9201V115.57C253.06 125.24 238.06 125.23 238.06 115.57V81.9201C238.06 72.2501 253.06 72.2701 253.06 81.9201Z" fill="#231815"/>
<path id="Vector_26" d="M241.72 257.48L233.25 260.92C234.36 259.28 235.53 257.69 236.74 256.15C238.41 256.54 240.07 257 241.72 257.48Z" fill="#231815"/>
<path id="Vector_27" d="M171.24 274.66C179.738 266.342 190.187 260.289 201.63 257.055C213.074 253.821 225.145 253.51 236.74 256.15C235.53 257.69 234.36 259.28 233.25 260.92L232.83 262.92C222.364 260.813 211.532 261.432 201.375 264.719C191.218 268.006 182.077 273.85 174.83 281.69C173.517 279.408 172.318 277.062 171.24 274.66Z" fill="#231815"/>
<path id="Vector_28" d="M189.61 128.52C194.45 136.9 181.48 144.44 176.61 136.09L159.78 106.94C155 98.5601 168 91.0001 172.78 99.3701L189.61 128.52Z" fill="#231815"/>
<path id="Vector_29" d="M158.31 323.92C158.31 340.424 164.866 356.253 176.537 367.923C188.207 379.594 204.036 386.15 220.54 386.15H227.78C227.78 389.93 225.4 393.7 220.54 393.65C202.969 393.521 186.071 386.875 173.12 375C149.84 353.59 144.3 317.87 159.46 290.22C159.96 289.3 160.46 288.4 161.03 287.51C161.56 288.51 162.11 289.42 162.68 290.37C163.59 291.87 164.55 293.37 165.54 294.77C160.775 303.746 158.292 313.757 158.31 323.92V323.92Z" fill="#231815"/>
<path id="Vector_30" d="M174.86 281.67C176.172 283.929 177.604 286.115 179.15 288.22C175.699 292.265 172.847 296.784 170.68 301.64C168.867 299.453 167.153 297.173 165.54 294.8C168.063 290.037 171.196 285.623 174.86 281.67Z" fill="#231815"/>
<path id="Vector_31" d="M342.15 235.45C337.153 232.473 331.84 230.062 326.31 228.26C323.697 211.656 316.083 196.244 304.484 184.08C292.884 171.916 277.851 163.578 261.39 160.18C228.11 153.43 193.17 169.08 175.63 198.03C168.788 209.508 164.817 222.467 164.052 235.808C163.288 249.148 165.754 262.476 171.24 274.66C167.316 278.522 163.878 282.847 161 287.54C141.73 253.04 146 209.37 171 178.79C196.37 147.79 240.58 135.54 278.27 149.36C296.129 155.954 311.681 167.608 323.025 182.896C334.369 198.185 341.015 216.446 342.15 235.45V235.45Z" fill="#231815"/>
<path id="Vector_32" d="M174.86 281.67C171.196 285.623 168.063 290.037 165.54 294.8C164.54 293.36 163.59 291.9 162.68 290.4C162.11 289.45 161.56 288.5 161.03 287.54C163.898 282.849 167.327 278.523 171.24 274.66C172.329 277.056 173.537 279.395 174.86 281.67V281.67Z" fill="#231815"/>
<path id="Vector_33" d="M220.54 378.65C225.34 378.7 227.75 382.43 227.78 386.15H220.54C209.81 386.148 199.264 383.372 189.923 378.092C180.583 372.811 172.766 365.206 167.232 356.014C161.697 346.822 158.633 336.355 158.337 325.629C158.04 314.904 160.522 304.284 165.54 294.8C167.16 297.173 168.873 299.453 170.68 301.64C165.487 313.132 164.427 326.066 167.68 338.25C174.18 362.05 196 378.38 220.54 378.65Z" fill="#231815"/>
<path id="Vector_34" d="M141.22 171.53C149.59 176.36 142.02 189.31 133.65 184.48L104.5 167.65C96.14 162.82 103.7 149.86 112.07 154.65L141.22 171.53Z" fill="#231815"/>
<path id="Vector_35" d="M133.65 296.38C142.03 291.54 149.58 304.51 141.22 309.33L112.07 326.16C103.69 331 96.15 318.03 104.5 313.16L133.65 296.38Z" fill="#231815"/>
<path id="Vector_36" d="M120.71 232.93C130.37 232.93 130.36 247.93 120.71 247.93H87.05C77.38 247.93 77.4 232.93 87.05 232.93H120.71Z" fill="#231815"/>
</g>
</g>
</svg>
