<svg width="500" height="500" viewBox="0 0 500 500" fill="none" xmlns="http://www.w3.org/2000/svg">
<g id="10n">
<g id="10n_2">
<path id="Vector" d="M304.41 257C305.801 259.854 306.984 262.805 307.95 265.83C308.3 267.08 308.966 268.218 309.884 269.136C310.802 270.054 311.94 270.72 313.19 271.07C320.078 272.571 326.532 275.625 332.06 280C337.008 283.854 341.082 288.715 344.013 294.26C346.943 299.806 348.664 305.91 349.06 312.17C349.47 318.795 348.34 325.425 345.76 331.54C342.308 339.558 336.607 346.404 329.347 351.25C322.087 356.097 313.579 358.736 304.85 358.85C300.07 358.91 297.66 362.63 297.61 366.35H171.44C171.44 362.62 168.99 358.9 164.2 358.85C139.69 358.58 117.83 342.25 111.36 318.45C108.265 306.753 109.098 294.362 113.73 283.184C118.362 272.006 126.538 262.659 137 256.58C143.295 252.965 150.26 250.669 157.47 249.83C162.832 249.202 168.257 249.34 173.58 250.24C176.235 250.681 178.858 251.299 181.43 252.09C184.77 253.09 188.06 251.35 189.9 248.64C195.431 240.573 202.651 233.806 211.058 228.809C219.466 223.811 228.861 220.703 238.59 219.7C244.755 219.077 250.977 219.36 257.06 220.54L257.34 220.6C267.457 222.639 276.967 226.984 285.13 233.297C293.294 239.61 299.892 247.722 304.41 257V257ZM270.16 362.57C273.78 361.57 276.86 357.15 275.4 353.35C274.5 350.99 273.597 348.637 272.69 346.29L268 334.14C267.435 332.641 266.491 331.315 265.26 330.29C264.375 329.545 263.319 329.029 262.188 328.789C261.056 328.548 259.882 328.59 258.77 328.91L258.51 328.99C255.01 330.13 252.11 334.42 253.51 338.13L255.64 343.67L260.89 357.33C262.39 361.11 266 363.72 270.16 362.57ZM232.16 362.57C235.78 361.57 238.86 357.15 237.4 353.35L230.52 335.43L230.03 334.14C228.58 330.37 225.03 327.76 220.8 328.91C220.191 329.082 219.609 329.337 219.07 329.67C216.29 331.36 214.34 334.96 215.56 338.13L222.94 357.33C224.43 361.11 228 363.72 232.2 362.57H232.16ZM194.16 362.57C197.78 361.57 200.86 357.15 199.4 353.35C196.94 346.95 194.483 340.547 192.03 334.14C190.57 330.37 186.98 327.76 182.8 328.91C179.18 329.91 176.1 334.33 177.56 338.13C180.02 344.53 182.477 350.93 184.93 357.33C186.47 361.11 190.06 363.72 194.24 362.57H194.16Z" fill="#DCDDDD"/>
<path id="Vector_2" d="M400 271.3C397.167 267.627 394.343 263.96 391.53 260.3L391 258.8C392.69 258.19 394.36 257.54 396 256.8C402.82 253.95 406.67 262.73 404.47 267.8C395.529 288.305 381.52 306.2 363.76 319.8C364.338 313.628 363.909 307.404 362.49 301.37C370.236 294.188 377.007 286.022 382.63 277.08C388.552 275.574 394.357 273.643 400 271.3V271.3Z" fill="#231815"/>
<path id="Vector_3" d="M391.56 260.28C394.38 263.96 397.203 267.627 400.03 271.28C394.391 273.632 388.589 275.574 382.67 277.09C386.062 271.724 389.034 266.104 391.56 260.28V260.28Z" fill="#231815"/>
<path id="Vector_4" d="M391 258.8L391.55 260.28C389.025 266.111 386.052 271.737 382.66 277.11C373.132 279.564 363.356 280.927 353.52 281.17C349.277 275.015 343.934 269.696 337.76 265.48C355.784 267.329 373.992 265.044 391 258.8V258.8Z" fill="#231815"/>
<path id="Vector_5" d="M367.51 159.52C373.1 158.85 365.56 166.52 368.89 167.43L368.24 167.23C366.903 166.796 365.736 165.954 364.902 164.822C364.068 163.69 363.609 162.326 363.59 160.92C364.22 160.67 364.85 160.42 365.48 160.19C366.131 159.895 366.812 159.671 367.51 159.52V159.52Z" fill="#231815"/>
<path id="Vector_6" d="M372.88 153C382.15 155.66 378.18 170.13 368.88 167.47C365.55 166.57 373.09 158.89 367.5 159.56C366.812 159.713 366.141 159.937 365.5 160.23C364.87 160.46 364.24 160.71 363.61 160.96C363.39 156.34 367.11 151.41 372.88 153Z" fill="#231815"/>
<path id="Vector_7" d="M353.53 281.17C363.366 280.926 373.142 279.564 382.67 277.11C377.047 286.052 370.276 294.218 362.53 301.4C360.815 294.156 357.762 287.295 353.53 281.17Z" fill="#F4EC90"/>
<path id="Vector_8" d="M363.64 321.46C361.813 335.814 354.851 349.022 344.043 358.643C333.235 368.264 319.309 373.648 304.84 373.8C299.97 373.86 297.56 370.08 297.6 366.3H304.84C316.608 366.298 328.024 362.286 337.206 354.926C346.388 347.565 352.788 337.296 355.35 325.81C358.237 323.93 361.053 321.93 363.8 319.81C363.75 320.37 363.7 320.91 363.64 321.46Z" fill="#231815"/>
<path id="Vector_9" d="M360.41 162.27C361.41 161.79 362.52 161.35 363.59 160.92C363.609 162.326 364.068 163.69 364.902 164.822C365.736 165.954 366.903 166.796 368.24 167.23C364.866 166.223 361.6 164.883 358.49 163.23C359.12 162.9 359.75 162.57 360.41 162.27Z" fill="#231815"/>
<path id="Vector_10" d="M356 307C358.24 305.22 360.4 303.35 362.5 301.42C363.919 307.454 364.348 313.678 363.77 319.85C361.03 321.95 358.213 323.95 355.32 325.85C356.703 319.662 356.933 313.272 356 307V307Z" fill="#231815"/>
<path id="Vector_11" d="M356 307C354.601 297.433 350.536 288.454 344.27 281.09C347.34 281.23 350.42 281.27 353.5 281.19C357.732 287.315 360.785 294.176 362.5 301.42C360.43 303.33 358.27 305.2 356 307Z" fill="#231815"/>
<path id="Vector_12" d="M356.59 314.55C356.591 318.337 356.175 322.114 355.35 325.81C352.24 327.81 349.03 329.73 345.75 331.49C348.33 325.375 349.46 318.745 349.05 312.12C351.45 310.493 353.783 308.78 356.05 306.98C356.417 309.486 356.598 312.017 356.59 314.55V314.55Z" fill="#231815"/>
<path id="Vector_13" d="M355.35 325.81C352.788 337.296 346.388 347.565 337.206 354.926C328.024 362.286 316.608 366.298 304.84 366.3H297.6C297.6 362.58 300.06 358.86 304.84 358.8C313.569 358.687 322.077 356.047 329.337 351.2C336.598 346.354 342.298 339.508 345.75 331.49C349 329.73 352.24 327.84 355.35 325.81Z" fill="#231815"/>
<path id="Vector_14" d="M356 307C353.74 308.8 351.407 310.513 349 312.14C348.604 305.88 346.883 299.776 343.953 294.23C341.022 288.685 336.948 283.824 332 279.97C336.06 280.53 340.14 280.903 344.24 281.09C350.516 288.45 354.592 297.43 356 307V307Z" fill="#231815"/>
<path id="Vector_15" d="M344.3 281.07C336.799 272.223 326.544 266.152 315.18 263.83C314.84 262.73 314.47 261.64 314.07 260.55C321.778 263.009 329.721 264.661 337.77 265.48C343.944 269.696 349.287 275.015 353.53 281.17C350.45 281.25 347.37 281.21 344.3 281.07Z" fill="#231815"/>
<path id="Vector_16" d="M339.11 135.65C338.356 137.592 337.505 139.494 336.56 141.35C335.578 139.502 334.703 137.599 333.94 135.65C333.423 134.578 333.03 133.451 332.77 132.29C332.64 131.83 332.51 131.37 332.37 130.91H340.68C340.69 132.33 339.6 134.39 339.11 135.65Z" fill="#231815"/>
<path id="Vector_17" d="M314.66 163.28C318.685 165.395 322.425 168.013 325.79 171.07C330.154 175.072 333.779 179.811 336.5 185.07C334.96 187.87 333.18 191.23 332.77 194.24C332.42 196.77 330.63 195.62 336.53 195.62C341.38 195.62 341.05 196.62 340.07 193.56C339.416 191.596 338.661 189.667 337.81 187.78C337.41 186.87 336.96 185.96 336.5 185.07L337.09 184C342.066 175.149 349.499 167.928 358.49 163.21C361.6 164.863 364.866 166.202 368.24 167.21L368.89 167.41C378.18 170.07 382.15 155.6 372.89 152.94C375.373 153.644 377.518 155.219 378.933 157.378C380.347 159.536 380.936 162.133 380.59 164.69C379.88 169.97 376.13 172.36 371.51 173.96C362.06 177.24 354.45 183.27 349.72 192.18C347.72 195.9 347.3 200.63 344.51 203.85C343.024 205.521 341.05 206.682 338.868 207.169C336.685 207.655 334.405 207.442 332.35 206.56C327.35 204.44 326.69 200.04 324.92 195.56C323.502 191.972 321.521 188.633 319.05 185.67C316.177 182.247 312.72 179.359 308.84 177.14C305.36 175.14 301.38 174.54 297.93 172.64C295.82 171.48 294.162 169.644 293.221 167.428C292.279 165.212 292.11 162.744 292.74 160.42C293.98 155.89 297.44 153.96 301.57 152.58C309.57 150.068 316.49 144.931 321.21 138C325.66 131.2 326.39 118.72 336.97 119.13C346.87 119.52 347.53 131.41 351.84 138C356.817 145.354 364.269 150.677 372.84 153C367.07 151.45 363.35 156.38 363.55 161C362.48 161.43 361.41 161.87 360.37 162.35C359.71 162.65 359.08 162.98 358.45 163.35C349.106 158.427 341.464 150.802 336.52 141.47C337.465 139.614 338.316 137.712 339.07 135.77C339.56 134.51 340.65 132.45 340.64 131.03H332.33C332.47 131.49 332.6 131.95 332.73 132.41C332.99 133.571 333.383 134.698 333.9 135.77C334.663 137.719 335.538 139.622 336.52 141.47C335.89 142.7 335.24 143.9 334.52 145.06C330.696 151.035 325.732 156.197 319.91 160.25C318.229 161.422 316.468 162.474 314.64 163.4C312.151 162.069 309.563 160.933 306.9 160C306.029 159.609 305.111 159.331 304.17 159.17V163.32C302.837 166.707 303.063 168.04 304.85 167.32C306.23 167.32 308.25 166.21 309.56 165.69C311.3 164.93 313 164.127 314.66 163.28Z" fill="#231815"/>
<path id="Vector_18" d="M337.81 187.8C338.661 189.687 339.416 191.616 340.07 193.58C341.07 196.65 341.38 195.64 336.53 195.64C330.63 195.64 332.42 196.79 332.77 194.26C333.18 191.26 334.96 187.89 336.5 185.09C337 186 337.41 186.89 337.81 187.8Z" fill="#231815"/>
<path id="Vector_19" d="M350.48 168.41C345.01 172.649 340.455 177.952 337.09 184L336.5 185.07C333.779 179.811 330.154 175.072 325.79 171.07C322.425 168.013 318.685 165.395 314.66 163.28C316.488 162.354 318.249 161.302 319.93 160.13C325.752 156.077 330.716 150.915 334.54 144.94C335.28 143.78 335.93 142.58 336.54 141.35C341.484 150.682 349.126 158.307 358.47 163.23C355.653 164.707 352.978 166.441 350.48 168.41Z" fill="white"/>
<path id="Vector_20" d="M315.18 263.83C326.544 266.152 336.799 272.223 344.3 281.07C340.2 280.89 336.12 280.517 332.06 279.95C326.527 275.593 320.074 272.556 313.19 271.07C311.94 270.72 310.802 270.054 309.884 269.136C308.966 268.218 308.3 267.08 307.95 265.83C306.984 262.805 305.801 259.854 304.41 257C307.58 258.33 310.81 259.51 314.07 260.55C314.47 261.64 314.84 262.73 315.18 263.83Z" fill="#231815"/>
<path id="Vector_21" d="M322.42 261.84L317.18 256.6C318.44 256.88 319.68 257.2 320.91 257.6C321.44 259 322 260.4 322.42 261.84Z" fill="#231815"/>
<path id="Vector_22" d="M306.9 160C309.568 160.909 312.163 162.023 314.66 163.33C313 164.183 311.3 164.957 309.56 165.65C308.25 166.17 306.23 167.32 304.85 167.28C303.057 168.033 302.83 166.7 304.17 163.28V159.13C305.113 159.303 306.03 159.596 306.9 160V160Z" fill="#231815"/>
<path id="Vector_23" d="M291.87 396.23C293.33 400.03 290.25 404.46 286.63 405.45C282.45 406.6 278.86 403.99 277.41 400.22L270 381C268.54 377.2 271.62 372.77 275.24 371.78C279.42 370.63 283.01 373.24 284.46 377.02L291.87 396.23Z" fill="#2EA7E0"/>
<path id="Vector_24" d="M314.07 260.55C310.81 259.55 307.58 258.33 304.41 257C299.887 247.716 293.282 239.601 285.109 233.287C276.936 226.974 267.416 222.632 257.29 220.6C255.24 217.89 253.29 215.11 251.53 212.25C265.463 213.538 278.742 218.763 289.816 227.316C300.89 235.868 309.302 247.395 314.07 260.55V260.55Z" fill="#231815"/>
<path id="Vector_25" d="M265.29 330.29C266.521 331.315 267.465 332.642 268.03 334.14L272.69 346.29C269.89 346.04 267.09 345.7 264.31 345.29C261.53 344.88 258.54 344.29 255.69 343.68L253.56 338.14C252.14 334.43 255.04 330.14 258.56 329C260.78 329.49 263 329.93 265.29 330.29Z" fill="#2EA7E0"/>
<path id="Vector_26" d="M255.69 343.67C258.54 344.3 261.42 344.84 264.31 345.28C267.2 345.72 269.89 346.04 272.69 346.28C273.603 348.627 274.507 350.98 275.4 353.34C276.86 357.14 273.78 361.57 270.16 362.56C265.98 363.71 262.39 361.1 260.94 357.32L255.69 343.67Z" fill="#2EA7E0"/>
<path id="Vector_27" d="M258.8 328.91C259.912 328.59 261.086 328.548 262.218 328.789C263.349 329.029 264.405 329.545 265.29 330.29C263.03 329.93 260.78 329.49 258.54 328.99L258.8 328.91Z" fill="#2EA7E0"/>
<path id="Vector_28" d="M253.91 396.23C255.37 400.03 252.28 404.46 248.67 405.45C244.49 406.6 240.89 403.99 239.44 400.22C236.993 393.82 234.537 387.417 232.07 381.01C230.61 377.21 233.69 372.78 237.31 371.79C241.49 370.64 245.08 373.25 246.53 377.03L253.91 396.23Z" fill="#2EA7E0"/>
<path id="Vector_29" d="M251.53 212.25C253.31 215.11 255.24 217.89 257.29 220.6L257.01 220.54C250.927 219.36 244.705 219.077 238.54 219.7C237.11 217.39 235.77 215.04 234.54 212.7C237.943 212.222 241.374 211.982 244.81 211.98C247.05 211.94 249.3 212.05 251.53 212.25Z" fill="#231815"/>
<path id="Vector_30" d="M247.12 204.59C251.308 204.684 255.484 205.096 259.61 205.82C287.74 210.82 310.86 231.22 320.91 257.56C319.68 257.2 318.44 256.88 317.18 256.56L322.42 261.8C321.95 260.36 321.42 258.93 320.91 257.52C326.915 259.248 332.606 261.922 337.77 265.44C329.721 264.621 321.778 262.969 314.07 260.51C309.302 247.355 300.89 235.828 289.816 227.276C278.742 218.723 265.463 213.498 251.53 212.21C249.963 209.737 248.493 207.197 247.12 204.59Z" fill="#231815"/>
<path id="Vector_31" d="M247.12 204.59C248.493 207.19 249.963 209.743 251.53 212.25C249.3 212.05 247.05 211.94 244.76 211.94C241.324 211.942 237.893 212.182 234.49 212.66C233.283 210.4 232.143 208.117 231.07 205.81C236.367 204.876 241.743 204.467 247.12 204.59V204.59Z" fill="#231815"/>
<path id="Vector_32" d="M247.12 204.59C241.743 204.467 236.367 204.875 231.07 205.81C218.126 178.11 215.165 146.785 222.69 117.15C228.059 113.748 233.686 110.772 239.52 108.25L240.99 108.8C235.27 124.31 232.86 140.846 233.916 157.344C234.971 173.842 239.469 189.935 247.12 204.59V204.59Z" fill="#231815"/>
<path id="Vector_33" d="M232 95.29C237.13 93.07 245.87 96.92 243 103.76C242.3 105.427 241.633 107.093 241 108.76L239.53 108.21L228.53 99.74L227.39 97.36C228.883 96.6467 230.42 95.9567 232 95.29Z" fill="#231815"/>
<path id="Vector_34" d="M228.5 99.78L239.5 108.25C233.666 110.772 228.039 113.748 222.67 117.15C224.192 111.227 226.141 105.422 228.5 99.78V99.78Z" fill="#231815"/>
<path id="Vector_35" d="M234.49 212.66C235.77 215.04 237.11 217.39 238.49 219.66C228.761 220.663 219.366 223.771 210.958 228.769C202.551 233.766 195.331 240.533 189.8 248.6C187.96 251.31 184.67 253.08 181.33 252.05C178.758 251.259 176.135 250.641 173.48 250.2C172.64 247.533 171.9 244.867 171.26 242.2C175.361 242.669 179.404 243.546 183.33 244.82C189.1 236.148 196.643 228.797 205.461 223.254C214.28 217.71 224.174 214.1 234.49 212.66V212.66Z" fill="#231815"/>
<path id="Vector_36" d="M230.07 334.14L230.56 335.43C229.19 334.83 227.83 334.21 226.49 333.56C223.98 332.35 221.49 331.04 219.11 329.67C219.648 329.337 220.231 329.082 220.84 328.91C225 327.76 228.62 330.37 230.07 334.14Z" fill="#2EA7E0"/>
<path id="Vector_37" d="M219.11 329.67C221.52 331.04 223.98 332.35 226.49 333.56C227.83 334.21 229.19 334.83 230.56 335.43L237.44 353.35C238.9 357.15 235.82 361.58 232.2 362.57C228.02 363.72 224.43 361.11 222.98 357.33L215.6 338.13C214.38 335 216.33 331.36 219.11 329.67Z" fill="#2EA7E0"/>
<path id="Vector_38" d="M227.36 97.4L228.5 99.78C226.148 105.423 224.206 111.228 222.69 117.15C197.865 132.666 179.765 156.932 171.97 185.15C167.622 201.303 166.864 218.213 169.75 234.69C164.621 234.323 159.468 234.514 154.38 235.26C150.185 207.492 155.013 179.111 168.154 154.292C181.295 129.473 202.055 109.528 227.38 97.39L227.36 97.4Z" fill="#231815"/>
<path id="Vector_39" d="M222.69 117.15C215.165 146.785 218.126 178.11 231.07 205.81C210.994 209.374 192.944 220.233 180.39 236.3C176.889 235.496 173.332 234.961 169.75 234.7C166.874 218.22 167.642 201.311 172 185.16C179.785 156.943 197.874 132.673 222.69 117.15V117.15Z" fill="#F4EC90"/>
<path id="Vector_40" d="M216 396.23C217.46 400.03 214.37 404.46 210.76 405.45C206.58 406.6 202.98 403.99 201.53 400.22C199.07 393.82 196.613 387.417 194.16 381.01C192.7 377.21 195.78 372.78 199.4 371.79C203.58 370.64 207.17 373.25 208.62 377.03L216 396.23Z" fill="#2EA7E0"/>
<path id="Vector_41" d="M199.48 353.35C200.94 357.15 197.86 361.58 194.24 362.57C190.06 363.72 186.47 361.11 185.01 357.33C182.563 350.93 180.107 344.53 177.64 338.13C176.18 334.33 179.26 329.9 182.88 328.91C187.06 327.76 190.65 330.37 192.11 334.14C194.563 340.54 197.02 346.943 199.48 353.35Z" fill="#2EA7E0"/>
<path id="Vector_42" d="M185.37 237.62L176.9 241.07C178.02 239.43 179.183 237.84 180.39 236.3C182.063 236.68 183.723 237.12 185.37 237.62Z" fill="#231815"/>
<path id="Vector_43" d="M231.07 205.81C232.137 208.123 233.277 210.407 234.49 212.66C224.179 214.111 214.293 217.731 205.483 223.281C196.674 228.832 189.14 236.186 183.38 244.86C179.454 243.586 175.411 242.709 171.31 242.24C170.71 239.747 170.19 237.233 169.75 234.7C173.332 234.961 176.889 235.496 180.39 236.3C179.183 237.84 178.02 239.43 176.9 241.07L185.37 237.62C183.717 237.12 182.05 236.68 180.37 236.3C192.929 220.229 210.987 209.369 231.07 205.81V205.81Z" fill="#231815"/>
<path id="Vector_44" d="M164.2 241.83C166.576 241.83 168.95 241.967 171.31 242.24C171.977 244.907 172.717 247.573 173.53 250.24C168.207 249.34 162.782 249.202 157.42 249.83C156.753 247.383 156.167 244.917 155.66 242.43C158.489 242.032 161.343 241.832 164.2 241.83Z" fill="#231815"/>
<path id="Vector_45" d="M154.38 235.27C159.468 234.524 164.621 234.333 169.75 234.7C170.19 237.24 170.71 239.753 171.31 242.24C166.107 241.636 160.847 241.7 155.66 242.43C155.16 240.06 154.74 237.67 154.38 235.27Z" fill="#231815"/>
<path id="Vector_46" d="M164.2 358.8C168.99 358.85 171.4 362.57 171.44 366.3H164.2C148.438 366.298 133.264 360.314 121.743 349.558C110.221 338.802 103.21 324.075 102.126 308.35C101.042 292.625 105.965 277.075 115.902 264.84C125.838 252.604 140.048 244.595 155.66 242.43C156.167 244.91 156.753 247.377 157.42 249.83C150.227 250.675 143.28 252.972 137 256.58C126.557 262.664 118.399 272.006 113.776 283.173C109.154 294.34 108.322 306.715 111.41 318.4C117.83 342.2 139.69 358.53 164.2 358.8Z" fill="#231815"/>
<path id="Vector_47" d="M171.44 366.3C171.44 370.08 169.06 373.85 164.2 373.8C146.633 373.681 129.735 367.046 116.78 355.18C93.49 333.77 88 298.05 103.12 270.4C108.365 260.978 115.724 252.902 124.618 246.806C133.513 240.71 143.701 236.761 154.38 235.27C154.74 237.67 155.16 240.06 155.66 242.43C140.047 244.595 125.838 252.604 115.902 264.84C105.965 277.075 101.042 292.626 102.126 308.35C103.21 324.075 110.221 338.802 121.743 349.558C133.264 360.314 148.438 366.298 164.2 366.3H171.44Z" fill="#231815"/>
</g>
</g>
</svg>
