<svg width="500" height="500" viewBox="0 0 500 500" fill="none" xmlns="http://www.w3.org/2000/svg">
<g id="11d">
<g id="11d_2">
<path id="Vector" d="M332.64 226.52C335.703 228.199 338.631 230.111 341.4 232.24C352.168 240.525 360.159 251.892 364.31 264.83C364.657 266.081 365.321 267.222 366.24 268.14C367.158 269.058 368.298 269.723 369.55 270.07C392.08 274.96 408.05 295.82 405.15 319.07C402.41 341.16 383.15 357.48 361.2 357.77C356.42 357.84 354 361.55 353.96 365.27H328.67L333.45 360.45L345.39 348.45C349.96 343.85 346.6 335.65 340.08 335.65H322.08L334.14 317.65C337.37 312.83 333.08 306.36 327.66 306.36C314.72 306.36 301.72 305.98 288.76 306.2C286.49 306.2 284.21 306.28 281.94 306.36C277.31 306.52 274.88 309.18 272.87 312.47C271.87 314.05 271.01 315.78 270.03 317.47L255.14 342.88L244.33 361.33C243.614 362.537 243.266 363.928 243.33 365.33H227.79C227.79 361.61 225.35 357.89 220.55 357.83C196.05 357.56 174.19 341.23 167.71 317.43C164.457 305.246 165.517 292.312 170.71 280.82C172.877 275.964 175.729 271.445 179.18 267.4C183.187 262.696 187.969 258.712 193.32 255.62C206.91 247.79 222.87 246.53 237.76 251.12C241.1 252.12 244.38 250.39 246.23 247.68C260.87 226.14 287.65 214.54 313.38 219.58C318.128 220.513 322.761 221.955 327.2 223.88C328.07 224.26 328.93 224.65 329.77 225.07C330.61 225.49 331.69 226 332.64 226.52Z" fill="#DCDDDD"/>
<path id="Vector_2" d="M236.75 235.31C245.937 223.5 258.172 214.42 272.136 209.047C286.101 203.675 301.266 202.213 316 204.82C319.509 205.445 322.97 206.31 326.36 207.41C326.799 210.156 327.096 212.923 327.25 215.7C312.707 210.205 296.799 209.447 281.799 213.535C266.799 217.622 253.475 226.346 243.73 238.46L241.73 236.63C240.08 236.12 238.41 235.69 236.75 235.31Z" fill="#231815"/>
<path id="Vector_3" d="M379.06 133.85C387.44 129 395 142 386.63 146.8L357.49 163.63C349.1 168.47 341.56 155.5 349.91 150.63L379.06 133.85Z" fill="#231815"/>
<path id="Vector_4" d="M179.16 267.37C175.709 271.415 172.857 275.934 170.69 280.79C168.877 278.597 167.163 276.317 165.55 273.95C168.073 269.189 171.202 264.776 174.86 260.82C176.179 263.076 177.614 265.263 179.16 267.37V267.37Z" fill="#231815"/>
<path id="Vector_5" d="M141.23 150.68C149.6 155.51 142.03 168.47 133.66 163.68L104.51 146.8C96.1499 141.97 103.71 129.02 112.08 133.85L141.23 150.68Z" fill="#231815"/>
<path id="Vector_6" d="M341.57 223C342.018 222.099 342.277 221.115 342.33 220.11C342.33 221.22 342.27 222.33 342.22 223.43L341.57 223Z" fill="#231815"/>
<path id="Vector_7" d="M404.08 212.08C413.75 212.08 413.73 227.08 404.08 227.08H370.43C360.76 227.08 360.78 212.08 370.43 212.08H404.08Z" fill="#231815"/>
<path id="Vector_8" d="M120.72 212.08C130.38 212.08 130.37 227.08 120.72 227.08H87.0599C77.3899 227.08 77.4099 212.08 87.0599 212.08H120.72Z" fill="#231815"/>
<path id="Vector_9" d="M341.4 232.24C341.81 229.35 342.08 226.42 342.22 223.47C356.194 232.869 366.538 246.759 371.54 262.84C384.11 265.399 395.283 272.536 402.889 282.866C410.495 293.196 413.994 305.983 412.706 318.746C411.418 331.51 405.435 343.34 395.918 351.942C386.401 360.544 374.028 365.304 361.2 365.3H354C354 361.58 356.46 357.87 361.24 357.8C383.24 357.51 402.45 341.19 405.19 319.1C408.09 295.82 392.12 274.96 369.59 270.1C368.338 269.753 367.198 269.089 366.28 268.17C365.361 267.252 364.697 266.111 364.35 264.86C360.194 251.906 352.188 240.527 341.4 232.24V232.24Z" fill="#231815"/>
<path id="Vector_10" d="M328.18 216.08C331.28 210.26 341.9 211.24 342.33 219.02C342.33 219.2 342.33 219.39 342.33 219.58V219.65C342.33 219.79 342.33 219.93 342.33 220.07V220.15C342.277 221.155 342.018 222.139 341.57 223.04C337.359 220.264 332.872 217.931 328.18 216.08V216.08Z" fill="#231815"/>
<path id="Vector_11" d="M327.21 215.7L328.21 216.08C327.649 217.161 327.361 218.362 327.37 219.58C327.33 218.28 327.28 217 327.21 215.7Z" fill="#231815"/>
<path id="Vector_12" d="M342.33 220.07C342.33 219.93 342.33 219.79 342.33 219.65C342.34 219.79 342.34 219.93 342.33 220.07Z" fill="#231815"/>
<path id="Vector_13" d="M189.62 107.67C194.46 116.05 181.49 123.6 176.62 115.24L159.84 86.0899C155 77.7099 168 70.1699 172.79 78.5199L189.62 107.67Z" fill="#231815"/>
<path id="Vector_14" d="M342.33 219C341.9 211.22 331.28 210.24 328.18 216.06L327.18 215.68C327.026 212.903 326.729 210.136 326.29 207.39C331.821 209.195 337.133 211.61 342.13 214.59C342.24 216.07 342.3 217.55 342.33 219Z" fill="#231815"/>
<path id="Vector_15" d="M278.3 128.52C296.159 135.111 311.711 146.764 323.053 162.053C334.394 177.343 341.034 195.606 342.16 214.61C337.163 211.63 331.851 209.215 326.32 207.41C323.703 190.808 316.088 175.398 304.489 163.234C292.89 151.071 277.859 142.732 261.4 139.33C228.12 132.58 193.18 148.24 175.64 177.19C168.795 188.665 164.822 201.623 164.057 214.962C163.293 228.302 165.76 241.628 171.25 253.81C167.327 257.675 163.886 262 161 266.69C141.73 232.2 146 188.53 171 157.94C196.4 126.89 240.61 114.7 278.3 128.52Z" fill="#231815"/>
<path id="Vector_16" d="M412.95 313.55C412.947 301.62 408.824 290.058 401.279 280.818C393.733 271.578 383.228 265.227 371.54 262.84C366.538 246.759 356.194 232.869 342.22 223.47C342.27 222.37 342.32 221.26 342.33 220.15V220.07C342.33 219.93 342.33 219.79 342.33 219.65V219.58C342.33 219.39 342.33 219.2 342.33 219.02C342.33 217.55 342.24 216.07 342.16 214.61C358.24 224.276 370.603 239.069 377.26 256.61C376.03 256.26 374.79 255.93 373.53 255.61L378.77 260.85C378.31 259.4 377.77 257.97 377.26 256.56C404.69 264.44 423.53 291.71 419.99 320.46C418.165 334.813 411.206 348.021 400.399 357.642C389.592 367.263 375.668 372.647 361.2 372.8C356.32 372.87 353.91 369.09 353.96 365.3H361.2C374.925 365.3 388.088 359.848 397.793 350.143C407.498 340.438 412.95 327.275 412.95 313.55V313.55Z" fill="#231815"/>
<path id="Vector_17" d="M261.4 139.33C277.859 142.732 292.89 151.071 304.489 163.234C316.088 175.398 323.703 190.808 326.32 207.41C322.943 206.312 319.495 205.446 316 204.82C301.272 202.221 286.115 203.686 272.158 209.059C258.201 214.431 245.974 223.507 236.79 235.31C225.196 232.668 213.125 232.977 201.681 236.209C190.238 239.441 179.788 245.493 171.29 253.81C165.8 241.628 163.333 228.302 164.097 214.962C164.862 201.623 168.835 188.665 175.68 177.19C193.18 148.24 228.12 132.58 261.4 139.33Z" fill="#F8B62D"/>
<path id="Vector_18" d="M377.26 256.56C377.8 257.97 378.26 259.4 378.77 260.85L373.53 255.61C374.79 255.88 376 256.21 377.26 256.56Z" fill="#231815"/>
<path id="Vector_19" d="M328.18 216.08C332.873 217.944 337.361 220.29 341.57 223.08C339.94 226.31 335.97 227.47 332.64 226.56C331.64 226.04 330.73 225.56 329.75 225.08C328.971 224.404 328.351 223.564 327.934 222.62C327.517 221.676 327.314 220.651 327.34 219.62C327.324 218.389 327.613 217.173 328.18 216.08V216.08Z" fill="#231815"/>
<path id="Vector_20" d="M332.64 226.52C335.97 227.43 339.94 226.27 341.57 223.04L342.22 223.47C342.08 226.42 341.81 229.35 341.4 232.24C338.631 230.111 335.703 228.199 332.64 226.52V226.52Z" fill="#231815"/>
<path id="Vector_21" d="M327.34 219.58C327.314 220.611 327.517 221.636 327.934 222.58C328.351 223.524 328.971 224.364 329.75 225.04C328.91 224.62 328.05 224.23 327.18 223.85C327.26 222.43 327.33 221 327.34 219.58Z" fill="#231815"/>
<path id="Vector_22" d="M236.75 235.31C238.41 235.69 240.08 236.12 241.75 236.63L233.28 240.08C234.37 238.44 235.54 236.85 236.75 235.31Z" fill="#231815"/>
<path id="Vector_23" d="M171.25 253.81C179.748 245.493 190.198 239.441 201.641 236.209C213.085 232.977 225.156 232.668 236.75 235.31C235.54 236.85 234.37 238.44 233.26 240.08L232.84 242.08C222.374 239.975 211.543 240.595 201.386 243.882C191.229 247.169 182.088 253.012 174.84 260.85C173.533 258.55 172.337 256.203 171.25 253.81Z" fill="#231815"/>
<path id="Vector_24" d="M318.35 78.52C323.18 70.16 336.14 77.72 331.3 86.09L314.48 115.24C309.65 123.61 296.69 116.04 301.48 107.67L318.35 78.52Z" fill="#231815"/>
<path id="Vector_25" d="M162.69 269.55C163.6 271.05 164.56 272.55 165.55 273.95C160.532 283.434 158.05 294.054 158.347 304.779C158.643 315.505 161.707 325.972 167.242 335.164C172.776 344.356 180.593 351.961 189.933 357.241C199.273 362.522 209.82 365.298 220.55 365.3H227.79C227.79 369.08 225.41 372.86 220.55 372.8C202.983 372.687 186.084 366.055 173.13 354.19C149.84 332.77 144.31 297.05 159.47 269.4C159.97 268.48 160.47 267.58 161.04 266.69C161.57 267.65 162.12 268.61 162.69 269.55Z" fill="#231815"/>
<path id="Vector_26" d="M165.55 273.95C167.17 276.323 168.883 278.603 170.69 280.79C165.497 292.282 164.437 305.216 167.69 317.4C174.17 341.2 196.03 357.53 220.53 357.8C225.33 357.86 227.74 361.58 227.77 365.3H220.53C209.8 365.298 199.253 362.522 189.913 357.241C180.573 351.961 172.756 344.356 167.221 335.164C161.687 325.972 158.623 315.505 158.327 304.779C158.03 294.054 160.512 283.434 165.53 273.95H165.55Z" fill="#231815"/>
<path id="Vector_27" d="M193.3 255.59C187.949 258.682 183.167 262.666 179.16 267.37C177.614 265.263 176.179 263.076 174.86 260.82C182.108 252.982 191.249 247.139 201.406 243.852C211.563 240.565 222.394 239.945 232.86 242.05V242.05C235.19 242.514 237.491 243.115 239.75 243.85C240.99 241.99 242.323 240.19 243.75 238.45C253.495 226.336 266.819 217.612 281.819 213.525C296.819 209.437 312.727 210.195 327.27 215.69C327.34 216.98 327.39 218.27 327.4 219.57C327.41 220.87 327.32 222.42 327.24 223.84C322.801 221.915 318.168 220.473 313.42 219.54C287.69 214.54 260.91 226.1 246.27 247.64C244.42 250.35 241.14 252.11 237.8 251.08C222.85 246.5 206.89 247.76 193.3 255.59Z" fill="#231815"/>
<path id="Vector_28" d="M253.07 61.07V94.73C253.07 104.4 238.07 104.38 238.07 94.73V61.07C238.07 51.41 253.07 51.42 253.07 61.07Z" fill="#231815"/>
<path id="Vector_29" d="M133.66 275.54C142.04 270.69 149.59 283.66 141.23 288.54L112.08 305.36C103.7 310.2 96.1599 297.24 104.51 292.41L133.66 275.54Z" fill="#231815"/>
<path id="Vector_30" d="M171.25 253.81C172.343 256.197 173.547 258.53 174.86 260.81C171.202 264.766 168.073 269.179 165.55 273.94C164.55 272.5 163.6 271.04 162.69 269.54C162.12 268.6 161.57 267.64 161.04 266.68C163.914 261.995 167.342 257.674 171.25 253.81V253.81Z" fill="#231815"/>
<path id="Vector_31" d="M241.73 236.63L243.73 238.46C242.33 240.2 240.997 242 239.73 243.86C237.471 243.125 235.17 242.524 232.84 242.06V242.06L233.26 240.06L241.73 236.63Z" fill="#231815"/>
<path id="Vector_32" d="M307.54 365.3L272.06 401.07L287.92 368.88C288.466 367.765 288.756 366.542 288.77 365.3H307.54Z" fill="#FAEE00"/>
<path id="Vector_33" d="M328.67 365.3L251.13 443.48C250.457 444.643 249.423 445.554 248.185 446.076C246.947 446.598 245.572 446.701 244.27 446.37C239.48 445.57 235.59 439.74 238.69 434.97L269.41 372.6H250.8C248.858 372.571 247.001 371.797 245.613 370.439C244.225 369.08 243.411 367.241 243.34 365.3H288.77C288.756 366.542 288.466 367.765 287.92 368.88L272.06 401.07L307.54 365.3H328.67Z" fill="#231815"/>
<path id="Vector_34" d="M322.08 350.64C317.24 355.527 312.393 360.413 307.54 365.3H288.77C288.824 364.306 288.675 363.311 288.331 362.376C287.987 361.442 287.455 360.588 286.768 359.867C286.082 359.145 285.255 358.572 284.338 358.182C283.422 357.793 282.436 357.594 281.44 357.6H263.89L285.13 321.35H313.63L301.56 339.35C298.34 344.17 302.62 350.64 308.04 350.64H322.08Z" fill="#FAEE00"/>
<path id="Vector_35" d="M340.08 335.64C346.6 335.64 349.96 343.84 345.39 348.44L333.45 360.44L328.67 365.26H307.54C312.393 360.367 317.24 355.48 322.08 350.6H308C302.58 350.6 298.3 344.13 301.52 339.31L313.59 321.31H285.09L263.89 357.6H281.44C282.436 357.594 283.422 357.793 284.338 358.182C285.255 358.572 286.082 359.145 286.768 359.867C287.455 360.588 287.987 361.442 288.331 362.376C288.675 363.311 288.825 364.306 288.77 365.3H243.34C243.276 363.898 243.624 362.507 244.34 361.3L255.15 342.85L270 317.45C271 315.77 271.86 314.04 272.84 312.45C274.84 309.16 277.28 306.5 281.91 306.34C284.18 306.26 286.46 306.21 288.73 306.18C301.73 305.96 314.73 306.34 327.63 306.34C333.05 306.34 337.34 312.81 334.11 317.63L322.05 335.63L340.08 335.64Z" fill="#231815"/>
<path id="Vector_36" d="M342.16 214.61C341.034 195.606 334.394 177.343 323.053 162.053C311.711 146.764 296.159 135.111 278.3 128.52C240.61 114.7 196.4 126.89 171.03 157.94C146.03 188.53 141.77 232.2 161.03 266.69" stroke="#231815" stroke-miterlimit="10"/>
<path id="Vector_37" d="M171.25 253.81C165.761 241.628 163.293 228.302 164.057 214.962C164.822 201.623 168.795 188.665 175.64 177.19C193.18 148.19 228.12 132.58 261.4 139.33C277.859 142.732 292.89 151.071 304.489 163.234C316.088 175.398 323.703 190.808 326.32 207.41" stroke="#231815" stroke-miterlimit="10"/>
<path id="Vector_38" d="M253.07 94.73V61.07C253.07 51.42 238.07 51.41 238.07 61.07V94.73C238.07 104.38 253.07 104.4 253.07 94.73Z" stroke="#231815" stroke-miterlimit="10"/>
<path id="Vector_39" d="M245.57 61.0699V94.7299" stroke="#231815" stroke-miterlimit="10"/>
<path id="Vector_40" d="M176.67 115.24C181.49 123.6 194.46 116.05 189.67 107.67L172.79 78.5199C167.97 70.1699 155 77.7099 159.84 86.0899L176.67 115.24Z" stroke="#231815" stroke-miterlimit="10"/>
<path id="Vector_41" d="M183.14 111.45L166.32 82.3099" stroke="#231815" stroke-miterlimit="10"/>
<path id="Vector_42" d="M104.51 146.8L133.66 163.63C142.03 168.47 149.6 155.51 141.23 150.63L112.08 133.8C103.71 129 96.1499 142 104.51 146.8Z" stroke="#231815" stroke-miterlimit="10"/>
<path id="Vector_43" d="M108.3 140.33L137.44 157.15" stroke="#231815" stroke-miterlimit="10"/>
<path id="Vector_44" d="M120.72 227.08C130.37 227.08 130.38 212.08 120.72 212.08H87.0599C77.4099 212.08 77.3899 227.08 87.0599 227.08H120.72Z" stroke="#231815" stroke-miterlimit="10"/>
<path id="Vector_45" d="M87.0599 219.58H120.72" stroke="#231815" stroke-miterlimit="10"/>
<path id="Vector_46" d="M112.08 305.31L141.23 288.49C149.59 283.66 142.04 270.69 133.66 275.49L104.51 292.31C96.1599 297.19 103.7 310.15 112.08 305.31Z" stroke="#231815" stroke-miterlimit="10"/>
<path id="Vector_47" d="M108.3 298.84L137.44 282.01" stroke="#231815" stroke-miterlimit="10"/>
<path id="Vector_48" d="M370.43 227.08H404.08C413.73 227.08 413.75 212.08 404.08 212.08H370.43C360.78 212.08 360.76 227.08 370.43 227.08Z" stroke="#231815" stroke-miterlimit="10"/>
<path id="Vector_49" d="M404.08 219.58H370.43" stroke="#231815" stroke-miterlimit="10"/>
<path id="Vector_50" d="M357.49 163.63L386.63 146.8C394.99 141.98 387.44 129.01 379.06 133.85L349.91 150.68C341.56 155.5 349.1 168.47 357.49 163.63Z" stroke="#231815" stroke-miterlimit="10"/>
<path id="Vector_51" d="M353.7 157.15L382.85 140.33" stroke="#231815" stroke-miterlimit="10"/>
<path id="Vector_52" d="M314.48 115.24L331.3 86.09C336.14 77.72 323.18 70.16 318.35 78.52L301.52 107.67C296.69 116 309.65 123.61 314.48 115.24Z" stroke="#231815" stroke-miterlimit="10"/>
<path id="Vector_53" d="M308 111.45L324.83 82.3099" stroke="#231815" stroke-miterlimit="10"/>
<path id="Vector_54" d="M161 266.69C160.46 267.58 159.93 268.48 159.43 269.4C144.27 297.05 149.8 332.77 173.09 354.19C186.044 366.055 202.943 372.687 220.51 372.8C225.37 372.86 227.78 369.08 227.75 365.3" stroke="#231815" stroke-miterlimit="10"/>
<path id="Vector_55" d="M236.75 235.31C225.156 232.668 213.085 232.977 201.641 236.209C190.198 239.441 179.748 245.493 171.25 253.81" stroke="#231815" stroke-miterlimit="10"/>
<path id="Vector_56" d="M326.32 207.41C322.943 206.312 319.495 205.446 316 204.82C301.272 202.221 286.115 203.686 272.158 209.059C258.201 214.431 245.974 223.507 236.79 235.31" stroke="#231815" stroke-miterlimit="10"/>
<path id="Vector_57" d="M354 365.3C353.95 369.09 356.36 372.87 361.24 372.8C375.703 372.64 389.62 367.253 400.42 357.632C411.221 348.012 418.175 334.808 420 320.46C423.54 291.71 404.7 264.46 377.27 256.56" stroke="#231815" stroke-miterlimit="10"/>
<path id="Vector_58" d="M377.26 256.56C370.603 239.019 358.24 224.226 342.16 214.56" stroke="#231815" stroke-miterlimit="10"/>
<path id="Vector_59" d="M377.26 256.56C377.8 257.97 378.26 259.4 378.77 260.85L373.53 255.61C374.79 255.88 376 256.21 377.26 256.56Z" stroke="#231815" stroke-miterlimit="10"/>
<path id="Vector_60" d="M241.73 236.63C240.08 236.12 238.41 235.69 236.73 235.31C235.52 236.85 234.35 238.44 233.24 240.08L241.73 236.63Z" stroke="#231815" stroke-miterlimit="10"/>
<path id="Vector_61" d="M342.33 219C342.33 217.53 342.24 216.05 342.16 214.59C337.163 211.61 331.851 209.195 326.32 207.39C326.759 210.136 327.056 212.903 327.21 215.68" stroke="#231815" stroke-miterlimit="10"/>
<path id="Vector_62" d="M328.18 216.08C331.28 210.26 341.9 211.24 342.33 219.02" stroke="#231815" stroke-miterlimit="10"/>
<path id="Vector_63" d="M174.86 260.82C173.527 258.54 172.323 256.207 171.25 253.82C167.328 257.682 163.887 262.003 161 266.69C161.53 267.69 162.08 268.61 162.65 269.55C163.56 271.05 164.52 272.55 165.51 273.95" stroke="#231815" stroke-miterlimit="10"/>
<path id="Vector_64" d="M342.33 220.15C342.277 221.155 342.018 222.139 341.57 223.04" stroke="#231815" stroke-miterlimit="10"/>
<path id="Vector_65" d="M342.33 219C342.33 219.18 342.33 219.37 342.33 219.56V219.63C342.33 219.77 342.33 219.91 342.33 220.05" stroke="#231815" stroke-miterlimit="10"/>
<path id="Vector_66" d="M342.33 220.07C342.33 219.93 342.33 219.79 342.33 219.65" stroke="#231815" stroke-miterlimit="10"/>
<path id="Vector_67" d="M342.33 220.07V220.15" stroke="#231815" stroke-miterlimit="10"/>
<path id="Vector_68" d="M342.22 223.47C342.27 222.37 342.32 221.26 342.33 220.15" stroke="#231815" stroke-miterlimit="10"/>
<path id="Vector_69" d="M341.4 232.24C352.168 240.525 360.159 251.892 364.31 264.83C364.657 266.081 365.321 267.222 366.24 268.14C367.158 269.058 368.298 269.723 369.55 270.07C392.08 274.96 408.05 295.82 405.15 319.07C402.41 341.16 383.15 357.48 361.2 357.77C356.42 357.84 354 361.55 353.96 365.27H361.2C374.028 365.274 386.401 360.514 395.918 351.912C405.435 343.31 411.418 331.48 412.706 318.716C413.994 305.953 410.495 293.166 402.889 282.836C395.283 272.505 384.11 265.369 371.54 262.81C366.538 246.729 356.194 232.839 342.22 223.44" stroke="#231815" stroke-miterlimit="10"/>
<path id="Vector_70" d="M327.21 215.7C312.667 210.205 296.759 209.447 281.759 213.535C266.759 217.622 253.435 226.346 243.69 238.46C242.29 240.2 240.957 242 239.69 243.86C237.431 243.125 235.13 242.524 232.8 242.06V242.06C222.334 239.955 211.503 240.575 201.346 243.862C191.189 247.149 182.048 252.992 174.8 260.83" stroke="#231815" stroke-miterlimit="10"/>
<path id="Vector_71" d="M179.16 267.37C183.167 262.666 187.949 258.682 193.3 255.59C206.89 247.76 222.85 246.5 237.74 251.09C241.08 252.09 244.36 250.36 246.21 247.65C260.85 226.11 287.63 214.51 313.36 219.55C318.107 220.483 322.741 221.925 327.18 223.85" stroke="#231815" stroke-miterlimit="10"/>
<path id="Vector_72" d="M165.55 273.95C160.532 283.434 158.05 294.054 158.347 304.779C158.643 315.505 161.707 325.972 167.242 335.164C172.776 344.356 180.593 351.961 189.933 357.241C199.273 362.522 209.82 365.298 220.55 365.3H227.79C227.79 361.58 225.35 357.86 220.55 357.8C196.05 357.53 174.19 341.2 167.71 317.4C164.457 305.216 165.517 292.282 170.71 280.79" stroke="#231815" stroke-miterlimit="10"/>
<path id="Vector_73" d="M341.57 223C337.361 220.21 332.873 217.864 328.18 216" stroke="#231815" stroke-miterlimit="10"/>
<path id="Vector_74" d="M329.75 225C330.75 225.47 331.69 226 332.64 226.48" stroke="#231815" stroke-miterlimit="10"/>
<path id="Vector_75" d="M174.86 260.82C171.202 264.776 168.073 269.189 165.55 273.95C167.17 276.323 168.883 278.603 170.69 280.79C172.857 275.934 175.709 271.415 179.16 267.37C177.614 265.263 176.179 263.076 174.86 260.82V260.82Z" stroke="#231815" stroke-miterlimit="10"/>
<path id="Vector_76" d="M328.18 216.08L327.18 215.7C327.25 216.99 327.3 218.28 327.31 219.58C327.31 218.36 327.609 217.158 328.18 216.08Z" stroke="#231815" stroke-miterlimit="10"/>
<path id="Vector_77" d="M327.34 219.58C327.34 221.01 327.26 222.43 327.18 223.85C328.05 224.23 328.91 224.62 329.75 225.04C328.971 224.364 328.351 223.524 327.934 222.58C327.517 221.636 327.314 220.611 327.34 219.58V219.58Z" stroke="#231815" stroke-miterlimit="10"/>
<path id="Vector_78" d="M332.64 226.52C335.703 228.199 338.631 230.111 341.4 232.24C341.81 229.35 342.08 226.42 342.22 223.47L341.57 223.04C339.94 226.27 336 227.43 332.64 226.52Z" stroke="#231815" stroke-miterlimit="10"/>
<path id="Vector_79" d="M328.67 365.3L333.45 360.48L345.39 348.48C349.96 343.88 346.6 335.68 340.08 335.68H322.08L334.14 317.68C337.37 312.86 333.08 306.39 327.66 306.39C314.72 306.39 301.72 306.01 288.76 306.23C286.49 306.23 284.21 306.31 281.94 306.39C277.31 306.55 274.88 309.21 272.87 312.5C271.87 314.08 271.01 315.81 270.03 317.5L255.14 342.91L244.33 361.36C243.614 362.567 243.266 363.958 243.33 365.36C243.401 367.301 244.215 369.14 245.603 370.499C246.991 371.857 248.848 372.631 250.79 372.66H269.4L238.69 435C235.59 439.77 239.48 445.6 244.27 446.4C245.572 446.731 246.947 446.628 248.185 446.106C249.423 445.584 250.457 444.673 251.13 443.51L328.67 365.3Z" stroke="#231815" stroke-miterlimit="10"/>
<path id="Vector_80" d="M307.54 365.3L272.06 401.07L287.92 368.88C288.466 367.765 288.756 366.542 288.77 365.3C288.824 364.306 288.675 363.311 288.331 362.376C287.987 361.442 287.455 360.588 286.768 359.867C286.082 359.145 285.255 358.572 284.338 358.182C283.422 357.793 282.436 357.594 281.44 357.6H263.89L285.13 321.35H313.63L301.56 339.35C298.34 344.17 302.62 350.64 308.04 350.64H322.04C317.227 355.547 312.393 360.433 307.54 365.3Z" stroke="#231815" stroke-miterlimit="10"/>
</g>
</g>
</svg>
