<svg width="500" height="500" viewBox="0 0 500 500" fill="none" xmlns="http://www.w3.org/2000/svg">
<g id="11n">
<g id="11n_2">
<path id="Vector" d="M228.5 79C226.15 84.6436 224.209 90.4485 222.69 96.37C228.06 92.9705 233.687 89.9948 239.52 87.47L228.5 79Z" fill="#231815"/>
<path id="Vector_2" d="M257.3 199.83C267.424 201.865 276.943 206.208 285.116 212.521C293.288 218.834 299.894 226.947 304.42 236.23C305.813 239.083 306.996 242.034 307.96 245.06C308.31 246.31 308.976 247.448 309.894 248.366C310.812 249.284 311.95 249.95 313.2 250.3C320.083 251.788 326.536 254.825 332.07 259.18C338.1 263.848 342.814 270.003 345.749 277.042C348.683 284.08 349.738 291.761 348.81 299.33C348.318 303.248 347.292 307.08 345.76 310.72C342.304 318.732 336.601 325.572 329.341 330.413C322.081 335.254 313.575 337.889 304.85 338C300.07 338.06 297.66 341.78 297.61 345.5H274.39L279.33 340.5L291.26 328.5C292.033 327.731 292.619 326.793 292.97 325.76C294.52 321.23 291.32 315.7 285.97 315.7H267.97C269.17 313.92 270.367 312.133 271.56 310.34C274.393 306.133 277.217 301.92 280.03 297.7C283.26 292.89 278.98 286.42 273.56 286.42C258.35 286.42 243.04 285.89 227.84 286.42C223.7 286.56 221.32 288.7 219.42 291.5C218.17 293.34 217.12 295.5 215.93 297.5L211.87 304.42L201 322.94C197.4 329.087 193.797 335.237 190.19 341.39C189.448 342.638 189.099 344.081 189.19 345.53H171.44C171.44 341.8 169 338.08 164.2 338.03C139.7 337.76 117.84 321.43 111.36 297.63C108.279 285.94 109.118 273.561 113.75 262.394C118.381 251.227 126.549 241.888 137 235.81C143.292 232.189 150.258 229.892 157.47 229.06C162.829 228.432 168.25 228.57 173.57 229.47C176.228 229.91 178.854 230.528 181.43 231.32C184.77 232.32 188.06 230.58 189.9 227.87C195.431 219.803 202.651 213.036 211.058 208.039C219.466 203.041 228.861 199.933 238.59 198.93C244.751 198.307 250.971 198.59 257.05 199.77L257.3 199.83Z" fill="#DCDDDD"/>
<path id="Vector_3" d="M400 250.53L391.53 239.53L391 238C392.69 237.39 394.36 236.74 396 236C402.82 233.15 406.68 241.92 404.47 247C395.542 267.512 381.53 285.41 363.76 299C364.342 292.828 363.913 286.603 362.49 280.57C370.238 273.392 377.013 265.229 382.64 256.29C388.558 254.791 394.36 252.866 400 250.53V250.53Z" fill="#231815"/>
<path id="Vector_4" d="M391.56 239.51L400.03 250.51C394.394 252.862 388.596 254.804 382.68 256.32C386.068 250.954 389.037 245.334 391.56 239.51V239.51Z" fill="#231815"/>
<path id="Vector_5" d="M391 238L391.55 239.48C389.028 245.31 386.059 250.937 382.67 256.31C373.139 258.764 363.359 260.126 353.52 260.37C349.28 254.215 343.941 248.896 337.77 244.68C355.79 246.528 373.995 244.243 391 238V238Z" fill="#231815"/>
<path id="Vector_6" d="M367.52 138.75C373.1 138.08 365.57 145.75 368.9 146.66L368.25 146.46C366.912 146.026 365.743 145.184 364.907 144.053C364.072 142.921 363.611 141.557 363.59 140.15C364.22 139.9 364.85 139.65 365.49 139.42C366.141 139.125 366.821 138.901 367.52 138.75V138.75Z" fill="#231815"/>
<path id="Vector_7" d="M372.88 132.19C382.16 134.85 378.19 149.32 368.88 146.66C365.55 145.76 373.08 138.08 367.5 138.75C366.812 138.903 366.141 139.127 365.5 139.42C364.86 139.65 364.23 139.9 363.6 140.15C363.4 135.57 367.12 130.64 372.88 132.19Z" fill="#231815"/>
<path id="Vector_8" d="M382.68 256.34C377.053 265.279 370.278 273.442 362.53 280.62C360.823 273.376 357.77 266.517 353.53 260.4C363.369 260.156 373.149 258.794 382.68 256.34V256.34Z" fill="#F4EC90"/>
<path id="Vector_9" d="M363.64 300.69C361.808 315.038 354.846 328.238 344.04 337.853C333.234 347.468 319.314 352.848 304.85 353C299.97 353.06 297.57 349.28 297.61 345.5H304.85C316.619 345.496 328.035 341.482 337.217 334.12C346.399 326.758 352.798 316.487 355.36 305C358.253 303.12 361.067 301.12 363.8 299C363.75 299.6 363.71 300.14 363.64 300.69Z" fill="#231815"/>
<path id="Vector_10" d="M363.59 140.15C363.611 141.557 364.072 142.921 364.907 144.053C365.743 145.184 366.912 146.026 368.25 146.46C364.873 145.451 361.604 144.111 358.49 142.46C359.13 142.13 359.76 141.8 360.42 141.46C361.46 141 362.52 140.58 363.59 140.15Z" fill="#231815"/>
<path id="Vector_11" d="M362.53 280.62C363.947 286.637 364.376 292.845 363.8 299C361.073 301.107 358.26 303.107 355.36 305C356.74 298.818 356.97 292.435 356.04 286.17C358.267 284.417 360.43 282.567 362.53 280.62Z" fill="#231815"/>
<path id="Vector_12" d="M353.53 260.4C357.77 266.517 360.823 273.376 362.53 280.62C360.443 282.56 358.28 284.423 356.04 286.21C354.633 276.644 350.565 267.665 344.3 260.3C347.38 260.44 350.45 260.48 353.53 260.4Z" fill="#231815"/>
<path id="Vector_13" d="M356 286.21C356.93 292.475 356.7 298.858 355.32 305.04C352.2 307.04 349 308.933 345.72 310.72C347.252 307.08 348.278 303.248 348.77 299.33C349.093 296.676 349.176 293.999 349.02 291.33C351.433 289.71 353.76 288.003 356 286.21Z" fill="#231815"/>
<path id="Vector_14" d="M349.06 291.35C348.664 285.09 346.943 278.986 344.013 273.44C341.082 267.895 337.008 263.034 332.06 259.18C336.06 259.74 340.2 260.12 344.29 260.3C350.544 267.669 354.601 276.647 356 286.21C353.767 288.01 351.453 289.723 349.06 291.35Z" fill="#231815"/>
<path id="Vector_15" d="M345.76 310.72C349.04 308.96 352.24 307.067 355.36 305.04C352.796 316.525 346.396 326.793 337.214 334.154C328.033 341.514 316.617 345.526 304.85 345.53H297.61C297.66 341.81 300.07 338.09 304.85 338.03C313.578 337.917 322.087 335.277 329.347 330.43C336.607 325.584 342.308 318.738 345.76 310.72V310.72Z" fill="#231815"/>
<path id="Vector_16" d="M344.3 260.3C336.805 251.451 326.552 245.379 315.19 243.06C314.85 241.96 314.47 240.86 314.08 239.78C321.788 242.239 329.731 243.891 337.78 244.71C343.951 248.926 349.29 254.245 353.53 260.4C350.45 260.48 347.38 260.44 344.3 260.3Z" fill="#231815"/>
<path id="Vector_17" d="M336.57 120.58C335.586 118.733 334.711 116.83 333.95 114.88C333.428 113.81 333.036 112.682 332.78 111.52C332.64 111.06 332.51 110.6 332.38 110.14H340.69C340.69 111.56 339.61 113.62 339.12 114.88C338.36 116.82 337.51 118.73 336.57 120.58Z" fill="#231815"/>
<path id="Vector_18" d="M325.79 150.3C330.16 154.299 333.789 159.038 336.51 164.3C334.97 167.1 333.19 170.46 332.78 173.47C332.43 176 330.63 174.85 336.53 174.85C341.39 174.85 341.06 175.85 340.07 172.79C339.425 170.824 338.674 168.894 337.82 167.01C337.42 166.1 336.97 165.19 336.51 164.3L337.1 163.23C340.459 157.175 345.01 151.865 350.48 147.62C352.982 145.651 355.66 143.918 358.48 142.44C361.594 144.091 364.863 145.431 368.24 146.44L368.89 146.64C378.18 149.3 382.15 134.83 372.89 132.17C375.376 132.87 377.525 134.444 378.942 136.603C380.358 138.763 380.947 141.361 380.6 143.92C379.89 149.19 376.13 151.59 371.52 153.19C362.07 156.47 354.46 162.5 349.72 171.41C347.72 175.13 347.3 179.86 344.52 183.07C343.036 184.744 341.063 185.908 338.88 186.396C336.697 186.884 334.415 186.672 332.36 185.79C327.36 183.67 326.7 179.27 324.92 174.79C323.509 171.201 321.53 167.861 319.06 164.9C316.185 161.474 312.725 158.586 308.84 156.37C305.37 154.37 301.38 153.77 297.94 151.87C295.83 150.71 294.17 148.875 293.227 146.659C292.284 144.443 292.113 141.975 292.74 139.65C293.99 135.11 297.45 133.19 301.57 131.81C309.581 129.293 316.509 124.145 321.23 117.2C325.68 110.4 326.41 97.9199 336.98 98.3299C346.89 98.7099 347.54 110.61 351.86 117.2C356.833 124.558 364.287 129.882 372.86 132.2C367.1 130.65 363.38 135.58 363.57 140.2C362.5 140.63 361.44 141.07 360.4 141.55C359.74 141.85 359.11 142.18 358.47 142.55C349.127 137.63 341.487 130.004 336.55 120.67C337.49 118.82 338.34 116.91 339.1 114.97C339.59 113.71 340.68 111.65 340.67 110.23H332.36C332.49 110.69 332.62 111.15 332.76 111.61C333.016 112.772 333.408 113.9 333.93 114.97C334.691 116.919 335.566 118.823 336.55 120.67C335.92 121.89 335.26 123.1 334.55 124.26C330.733 130.237 325.771 135.399 319.95 139.45C318.266 140.622 316.501 141.674 314.67 142.6C312.177 141.291 309.586 140.177 306.92 139.27C306.046 138.876 305.125 138.597 304.18 138.44V142.59C302.847 145.977 303.077 147.31 304.87 146.59C306.24 146.59 308.27 145.48 309.57 144.96C311.31 144.26 313.02 143.49 314.67 142.64C318.687 144.71 322.424 147.284 325.79 150.3V150.3Z" fill="#231815"/>
<path id="Vector_19" d="M332.78 173.49C333.19 170.49 334.97 167.12 336.51 164.32C336.97 165.21 337.42 166.12 337.82 167.03C338.674 168.914 339.425 170.844 340.07 172.81C341.07 175.88 341.39 174.87 336.53 174.87C330.63 174.87 332.43 176 332.78 173.49Z" fill="#231815"/>
<path id="Vector_20" d="M336.51 164.32C333.789 159.059 330.16 154.319 325.79 150.32C322.428 147.258 318.688 144.64 314.66 142.53C316.491 141.604 318.256 140.552 319.94 139.38C325.761 135.329 330.723 130.167 334.54 124.19C335.28 123.03 335.94 121.82 336.54 120.6C341.477 129.934 349.117 137.56 358.46 142.48C355.64 143.958 352.962 145.692 350.46 147.66C344.99 151.905 340.439 157.215 337.08 163.27L336.51 164.32Z" fill="white"/>
<path id="Vector_21" d="M315.19 243.06C326.552 245.379 336.805 251.451 344.3 260.3C340.21 260.12 336.12 259.74 332.07 259.18C326.536 254.825 320.083 251.788 313.2 250.3C311.95 249.95 310.812 249.284 309.894 248.366C308.976 247.448 308.31 246.31 307.96 245.06C306.996 242.035 305.813 239.083 304.42 236.23C307.59 237.56 310.82 238.74 314.08 239.78C314.47 240.86 314.85 242 315.19 243.06Z" fill="#231815"/>
<path id="Vector_22" d="M322.42 241.07L317.19 235.83C318.45 236.11 319.68 236.43 320.91 236.83C321.45 238.2 322 239.62 322.42 241.07Z" fill="#231815"/>
<path id="Vector_23" d="M309.56 144.83C308.26 145.35 306.23 146.5 304.86 146.46C303.073 147.213 302.843 145.88 304.17 142.46V138.31C305.115 138.467 306.036 138.746 306.91 139.14C309.576 140.047 312.167 141.161 314.66 142.47C313 143.36 311.3 144.13 309.56 144.83Z" fill="#231815"/>
<path id="Vector_24" d="M251.53 191.48C265.464 192.767 278.745 197.992 289.821 206.545C300.896 215.097 309.31 226.624 314.08 239.78C310.82 238.78 307.59 237.56 304.42 236.23C299.894 226.948 293.288 218.834 285.116 212.521C276.943 206.208 267.425 201.865 257.3 199.83C255.247 197.117 253.323 194.333 251.53 191.48Z" fill="#231815"/>
<path id="Vector_25" d="M284 326L285.93 330.66H279.46L284 326Z" fill="#231815"/>
<path id="Vector_26" d="M286 330.71L284 326C287 326 290 325.91 292.94 325.72C292.589 326.753 292.004 327.691 291.23 328.46L279.3 340.46L274.36 345.46H265.04L279.46 330.64L286 330.71Z" fill="#231815"/>
<path id="Vector_27" d="M280.66 317.91L284 326L273.62 325L280.66 317.91Z" fill="#231815"/>
<path id="Vector_28" d="M273.07 325.55C276.72 325.87 280.37 326.03 284.07 326.05L279.53 330.71H268L273.07 325.55Z" fill="#231815"/>
<path id="Vector_29" d="M284 326C280.34 326 276.69 325.82 273 325.5L273.55 324.95L284 326Z" fill="#231815"/>
<path id="Vector_30" d="M267.95 315.71H285.95C291.31 315.71 294.51 321.24 292.95 325.77C289.95 325.96 286.95 326.06 284.01 326.05L280.64 317.91L273.64 325L262.5 323.88L267.95 315.71Z" fill="#231815"/>
<path id="Vector_31" d="M273.54 286.43C278.96 286.43 283.24 292.9 280.01 297.71C277.19 301.93 274.367 306.143 271.54 310.35C268.94 310.07 266.34 309.71 263.76 309.25L266.76 301.43H273.57L269.47 294.29L267.09 290.14L264.41 294.14L227.11 293.07L225.74 295.46C223.58 294.213 221.477 292.88 219.43 291.46C221.33 288.66 223.71 286.52 227.85 286.38C243 285.9 258.33 286.43 273.54 286.43Z" fill="#231815"/>
<path id="Vector_32" d="M279.49 330.71L265.07 345.53H253.26L268 330.71H279.49Z" fill="#231815"/>
<path id="Vector_33" d="M274.39 345.53L197 423.53C197.15 423.29 197.29 423.04 197.43 422.77C200.01 417.523 202.593 412.277 205.18 407.03L265.07 345.5L274.39 345.53Z" fill="#231815"/>
<path id="Vector_34" d="M269.44 294.29L273.54 301.43H266.73L269.44 294.29Z" fill="#231815"/>
<path id="Vector_35" d="M262.48 323.88L273.62 325L273.07 325.55C269.457 325.237 265.86 324.78 262.28 324.18L262.48 323.88Z" fill="#231815"/>
<path id="Vector_36" d="M271.54 310.35C270.353 312.143 269.157 313.93 267.95 315.71H261.3L263.76 309.25C266.34 309.71 268.94 310.07 271.54 310.35Z" fill="#231815"/>
<path id="Vector_37" d="M267.06 290.14L269.44 294.29L264.38 294.15L267.06 290.14Z" fill="#231815"/>
<path id="Vector_38" d="M269.44 294.29L266.73 301.43H259.5L264.38 294.15L269.44 294.29Z" fill="#231815"/>
<path id="Vector_39" d="M268 330.71L253.3 345.53H234.64C234.716 344.523 234.583 343.511 234.248 342.559C233.914 341.606 233.385 340.733 232.697 339.994C232.008 339.256 231.174 338.668 230.247 338.268C229.32 337.868 228.32 337.664 227.31 337.67H209.77L224.83 312L231 301.43H259.5L255.43 307.49L247.43 319.43C247.182 319.804 246.975 320.203 246.81 320.62C244.91 325.24 248.92 330.71 253.9 330.71H268Z" fill="#FAEE00"/>
<path id="Vector_40" d="M267.95 315.71L262.48 323.88L258.36 323.46L261.3 315.71H267.95Z" fill="#231815"/>
<path id="Vector_41" d="M266.73 301.43L263.73 309.25C260.937 308.77 258.16 308.183 255.4 307.49L259.47 301.43H266.73Z" fill="#231815"/>
<path id="Vector_42" d="M265.07 345.53L205.18 407.06C209.433 398.393 213.687 389.757 217.94 381.15C229.713 369.27 241.487 357.397 253.26 345.53H265.07Z" fill="#231815"/>
<path id="Vector_43" d="M246.82 320.62C250.633 321.74 254.48 322.687 258.36 323.46L260.36 327L262.25 324.18C265.83 324.787 269.427 325.243 273.04 325.55L268 330.71H253.91C248.93 330.71 244.92 325.24 246.82 320.62Z" fill="#231815"/>
<path id="Vector_44" d="M264.38 294.15L259.5 301.43H237.5C235.78 300.683 234.087 299.9 232.42 299.08C232.69 298.62 232.96 298.17 233.22 297.71L231.59 298.65C229.59 297.65 227.66 296.59 225.75 295.47L227.12 293.08L264.38 294.15Z" fill="#231815"/>
<path id="Vector_45" d="M258.36 323.46L262.48 323.88L262.28 324.18C261 324 259.66 323.72 258.36 323.46Z" fill="#231815"/>
<path id="Vector_46" d="M262.28 324.18L260.39 327L258.39 323.46C259.66 323.72 261 324 262.28 324.18Z" fill="#231815"/>
<path id="Vector_47" d="M261.3 315.71L258.36 323.46C256.88 320.88 255.397 318.297 253.91 315.71H261.3Z" fill="#231815"/>
<path id="Vector_48" d="M258.36 323.46C254.48 322.68 250.633 321.733 246.82 320.62C246.985 320.203 247.192 319.804 247.44 319.43L255.44 307.49C258.2 308.157 260.977 308.743 263.77 309.25L261.31 315.71H253.92C255.4 318.29 256.88 320.873 258.36 323.46Z" fill="#231815"/>
<path id="Vector_49" d="M253.26 345.53C241.493 357.403 229.72 369.277 217.94 381.15L233.79 349C234.315 347.931 234.605 346.761 234.64 345.57L253.26 345.53Z" fill="#FAEE00"/>
<path id="Vector_50" d="M257 199.77C250.921 198.59 244.701 198.307 238.54 198.93C237.107 196.617 235.753 194.283 234.48 191.93C237.886 191.457 241.321 191.216 244.76 191.21C247.04 191.21 249.3 191.33 251.52 191.53C253.313 194.383 255.237 197.167 257.29 199.88L257 199.77Z" fill="#231815"/>
<path id="Vector_51" d="M322.42 241.07C321.96 239.62 321.42 238.2 320.91 236.79C326.919 238.516 332.614 241.19 337.78 244.71C329.731 243.891 321.788 242.239 314.08 239.78C309.31 226.624 300.896 215.097 289.82 206.545C278.745 197.992 265.464 192.767 251.53 191.48C249.97 188.97 248.53 186.42 247.13 183.82C251.314 183.892 255.486 184.287 259.61 185C287.75 189.94 310.87 210.4 320.91 236.74C319.68 236.38 318.45 236.06 317.19 235.74L322.42 241.07Z" fill="#231815"/>
<path id="Vector_52" d="M234.49 191.88C233.29 189.633 232.15 187.353 231.07 185.04C236.369 184.101 241.749 183.692 247.13 183.82C248.49 186.42 249.97 188.97 251.53 191.48C249.31 191.28 247.05 191.16 244.77 191.16C241.331 191.166 237.896 191.407 234.49 191.88Z" fill="#231815"/>
<path id="Vector_53" d="M247.13 183.82C241.751 183.679 236.371 184.074 231.07 185C218.13 157.299 215.17 125.975 222.69 96.3399C228.058 92.9362 233.685 89.9604 239.52 87.4399L241 87.9999C235.274 103.514 232.861 120.056 233.917 136.559C234.973 153.063 239.474 169.162 247.13 183.82V183.82Z" fill="#231815"/>
<path id="Vector_54" d="M231.95 74.52C237.08 72.3 245.83 76.15 242.95 82.99C242.25 84.66 241.59 86.35 240.95 87.99L239.47 87.43L228.47 78.96L227.32 76.57C228.853 75.87 230.397 75.1866 231.95 74.52Z" fill="#231815"/>
<path id="Vector_55" d="M227.31 337.67C228.32 337.664 229.32 337.868 230.247 338.268C231.174 338.668 232.008 339.256 232.697 339.994C233.385 340.733 233.914 341.606 234.248 342.559C234.583 343.511 234.716 344.523 234.64 345.53H223.21L220.84 341.39L218.84 345.53H205.16L209.77 337.67H227.31Z" fill="#231815"/>
<path id="Vector_56" d="M223.21 345.53H234.64C234.605 346.721 234.315 347.891 233.79 348.96L217.94 381.15L210.59 388.56L221.12 352.67H227.31C225.95 350.29 224.583 347.91 223.21 345.53Z" fill="#231815"/>
<path id="Vector_57" d="M183.38 224.09C189.141 215.416 196.674 208.061 205.484 202.509C214.293 196.957 224.179 193.335 234.49 191.88C235.77 194.267 237.123 196.6 238.55 198.88C228.821 199.883 219.426 202.991 211.018 207.989C202.611 212.986 195.391 219.753 189.86 227.82C188.02 230.53 184.73 232.3 181.39 231.27C178.814 230.478 176.188 229.86 173.53 229.42C172.703 226.753 171.963 224.087 171.31 221.42C175.412 221.905 179.456 222.799 183.38 224.09V224.09Z" fill="#231815"/>
<path id="Vector_58" d="M233.18 297.71C232.92 298.17 232.65 298.62 232.38 299.08L231.55 298.65L233.18 297.71Z" fill="#231815"/>
<path id="Vector_59" d="M232.38 299.08C234.053 299.9 235.747 300.683 237.46 301.43H231C231.46 300.64 231.92 299.86 232.38 299.08Z" fill="#231815"/>
<path id="Vector_60" d="M231 301.43H226.7L231.54 298.65L232.37 299.08C231.92 299.86 231.46 300.64 231 301.43Z" fill="#231815"/>
<path id="Vector_61" d="M231.55 298.65L226.71 301.43H231L224.83 312C222.61 310.89 220.43 309.7 218.28 308.46L225.71 295.46C227.62 296.59 229.56 297.65 231.55 298.65Z" fill="#231815"/>
<path id="Vector_62" d="M227.36 76.62L228.51 79C226.157 84.6434 224.212 90.4483 222.69 96.37C197.87 111.889 179.774 136.154 171.98 164.37C167.632 180.523 166.874 197.433 169.76 213.91C164.631 213.543 159.478 213.734 154.39 214.48C150.191 186.71 155.017 158.326 168.159 133.505C181.3 108.684 202.063 88.7369 227.39 76.6L227.36 76.62Z" fill="#231815"/>
<path id="Vector_63" d="M223.21 345.53C224.583 347.91 225.95 350.29 227.31 352.67H221.12L223.21 345.53Z" fill="#231815"/>
<path id="Vector_64" d="M225.71 295.47L218.28 308.47C216.1 307.21 213.95 305.88 211.85 304.47L215.91 297.55C217.1 295.55 218.15 293.38 219.4 291.55C221.447 292.91 223.55 294.217 225.71 295.47Z" fill="#231815"/>
<path id="Vector_65" d="M224.83 312L209.77 337.71H201.51L218.28 308.46C220.43 309.66 222.61 310.85 224.83 312Z" fill="#231815"/>
<path id="Vector_66" d="M220.84 341.39L223.21 345.53H218.8L220.84 341.39Z" fill="#231815"/>
<path id="Vector_67" d="M223.21 345.53L221.12 352.67H215.28L218.8 345.53H223.21Z" fill="#231815"/>
<path id="Vector_68" d="M172 164.39C179.794 136.174 197.89 111.909 222.71 96.39C215.195 126.007 218.149 157.311 231.07 185C210.998 188.566 192.952 199.425 180.4 215.49C176.899 214.687 173.342 214.152 169.76 213.89C166.886 197.424 167.651 180.529 172 164.39V164.39Z" fill="#F4EC90"/>
<path id="Vector_69" d="M221.12 352.67L210.59 388.56L197.59 401.67L185.66 413.67C185.254 414.074 184.892 414.52 184.58 415C194.813 394.213 205.05 373.423 215.29 352.63L221.12 352.67Z" fill="#231815"/>
<path id="Vector_70" d="M218.8 345.53L215.28 352.67H196.68C194.766 352.64 192.934 351.888 191.552 350.563C190.171 349.239 189.341 347.441 189.23 345.53H201.23L203.23 348.96L205.23 345.53H218.8Z" fill="#231815"/>
<path id="Vector_71" d="M218.28 308.42L201.51 337.67H196.68L199.09 341.88L197 345.53H189.23C189.139 344.081 189.488 342.638 190.23 341.39C193.837 335.243 197.44 329.093 201.04 322.94L211.88 304.44C213.95 305.83 216.1 307.16 218.28 308.42Z" fill="#231815"/>
<path id="Vector_72" d="M217.94 381.15C213.68 389.777 209.427 398.413 205.18 407.06L210.61 388.54L217.94 381.15Z" fill="#231815"/>
<path id="Vector_73" d="M209.77 337.67L205.16 345.53H201.16L199.06 341.88L201.48 337.67H209.77Z" fill="#231815"/>
<path id="Vector_74" d="M205.16 345.53L203.16 348.96L201.16 345.53H205.16Z" fill="#231815"/>
<path id="Vector_75" d="M201.51 337.67L199.09 341.88L196.68 337.67H201.51Z" fill="#231815"/>
<path id="Vector_76" d="M199.09 341.88L201.19 345.53H197L199.09 341.88Z" fill="#231815"/>
<path id="Vector_77" d="M190.15 426.44C185.76 425.44 181.86 420.54 184.47 415.23C184.497 415.164 184.531 415.1 184.57 415.04C184.882 414.56 185.244 414.114 185.65 413.71L197.58 401.71L210.58 388.6L205.15 407.12C202.557 412.36 199.973 417.607 197.4 422.86C197.26 423.13 197.12 423.38 196.97 423.62L196.22 424.37C195.457 425.188 194.503 425.804 193.444 426.165C192.385 426.527 191.254 426.621 190.15 426.44V426.44Z" fill="#231815"/>
<path id="Vector_78" d="M190.15 426.44C191.264 426.619 192.404 426.518 193.469 426.146C194.534 425.774 195.49 425.143 196.25 424.31L197 423.56C196.329 424.721 195.296 425.632 194.059 426.151C192.822 426.671 191.45 426.773 190.15 426.44Z" fill="#231815"/>
<path id="Vector_79" d="M190.15 426.44C185.35 425.64 181.47 419.82 184.57 415.04C184.531 415.1 184.497 415.164 184.47 415.23C181.86 420.54 185.76 425.47 190.15 426.44Z" fill="#231815"/>
<path id="Vector_80" d="M185.38 216.85L176.91 220.3C178.02 218.66 179.19 217.07 180.4 215.53C182.07 215.91 183.73 216.34 185.38 216.85Z" fill="#231815"/>
<path id="Vector_81" d="M231.07 185C232.15 187.313 233.29 189.593 234.49 191.84C224.179 193.295 214.294 196.917 205.484 202.469C196.675 208.021 189.141 215.376 183.38 224.05C179.454 222.776 175.411 221.899 171.31 221.43C170.71 218.94 170.19 216.43 169.76 213.89C173.342 214.152 176.899 214.687 180.4 215.49C179.19 217.03 178.02 218.62 176.91 220.26L185.38 216.81C183.73 216.3 182.07 215.87 180.38 215.49C192.937 199.421 210.99 188.562 231.07 185V185Z" fill="#231815"/>
<path id="Vector_82" d="M171.31 221.47C171.977 224.137 172.717 226.803 173.53 229.47C168.21 228.57 162.789 228.432 157.43 229.06C156.763 226.607 156.173 224.14 155.66 221.66C160.847 220.93 166.107 220.866 171.31 221.47V221.47Z" fill="#231815"/>
<path id="Vector_83" d="M169.76 213.93C170.19 216.46 170.76 218.98 171.31 221.47C166.107 220.866 160.847 220.93 155.66 221.66C155.17 219.28 154.75 216.9 154.39 214.5C159.478 213.754 164.631 213.563 169.76 213.93V213.93Z" fill="#231815"/>
<path id="Vector_84" d="M164.2 338C169 338.05 171.41 341.77 171.44 345.5H164.2C148.438 345.498 133.264 339.514 121.743 328.758C110.221 318.002 103.21 303.275 102.126 287.55C101.042 271.826 105.965 256.275 115.902 244.04C125.838 231.804 140.047 223.795 155.66 221.63C156.18 224.11 156.77 226.577 157.43 229.03C150.23 229.877 143.278 232.184 137 235.81C126.557 241.894 118.397 251.235 113.773 262.402C109.149 273.569 108.315 285.944 111.4 297.63C117.84 321.43 139.7 337.76 164.2 338Z" fill="#231815"/>
<path id="Vector_85" d="M102 283.29C102 299.795 108.556 315.625 120.226 327.297C131.896 338.969 147.725 345.527 164.23 345.53H171.47C171.47 349.3 169.09 353.08 164.23 353.03C146.664 352.903 129.769 346.269 116.81 334.41C93.5 313 88 277.28 103.12 249.63C108.367 240.209 115.728 232.133 124.625 226.037C133.521 219.941 143.71 215.992 154.39 214.5C154.75 216.9 155.17 219.28 155.66 221.66C140.784 223.726 127.157 231.104 117.294 242.431C107.432 253.758 102 268.271 102 283.29V283.29Z" fill="#231815"/>
</g>
</g>
</svg>
