<svg width="500" height="500" viewBox="0 0 500 500" fill="none" xmlns="http://www.w3.org/2000/svg">
<g id="13d">
<g id="13d_2">
<path id="Vector" d="M253.07 104.67V71C253.07 61.35 238.07 61.33 238.07 71V104.65C238.07 114.32 253.07 114.34 253.07 104.67Z" fill="#231815"/>
<path id="Vector_2" d="M176.66 125.19C181.49 133.55 194.45 126 189.66 117.62L172.79 88.47C167.96 80.11 155 87.66 159.79 96.04L176.66 125.19ZM183.14 121.4L166.31 92.25L183.14 121.4Z" fill="#231815"/>
<path id="Vector_3" d="M87.06 237H120.71C130.36 237 130.38 222 120.71 222H87.06C77.4 222 77.39 237 87.06 237Z" fill="#231815"/>
<path id="Vector_4" d="M314.47 125.19L331.3 96C336.14 87.63 323.18 80.06 318.3 88.43L301.47 117.58C296.68 126 309.64 133.55 314.47 125.19ZM324.82 92.26L308 121.4L324.82 92.26Z" fill="#231815"/>
<path id="Vector_5" d="M336.08 375.24H318.72V367.9L321.72 366.17C322.49 366.57 323.23 366.96 323.9 367.35L332.35 372.26C333.476 372.941 334.764 373.311 336.08 373.33V375.24Z" fill="white"/>
<path id="Vector_6" d="M250.05 372.26L258.49 367.35C259.15 366.97 259.9 366.58 260.68 366.17L263.87 368.02V375.24H246.31V373.33C247.63 373.314 248.922 372.945 250.05 372.26V372.26Z" fill="white"/>
<path id="Vector_7" d="M303.72 373.7V375.24H278.87V367.9L283.7 365.12L286.28 363.63L291.2 360.79L291.3 360.73L296.22 363.57L298.7 365C300.367 365.967 302.033 366.933 303.7 367.9L303.72 373.7Z" fill="white"/>
<path id="Vector_8" d="M369.54 280C392.07 284.89 408.04 305.75 405.15 329C402.4 351.09 383.15 367.41 361.15 367.7C356.37 367.77 353.95 371.48 353.91 375.2H336.08V373.29C342.65 373.29 346.99 363.37 339.92 359.29L336.77 357.47L341.62 354.67C349.97 349.85 342.43 336.88 334.05 341.72L329.27 344.47C329.27 343.28 329.27 342.08 329.27 340.88C329.27 331.23 314.27 331.21 314.27 340.88V350.65C314.27 351.41 314.27 352.27 314.2 353.17L311.2 354.9L304.2 350.84C302.62 349.93 300.71 348.56 298.71 347.34V344.21C299.47 343.73 300.2 343.26 300.89 342.87L309.36 338C317.73 333.2 310.19 320.24 301.79 325.05L298.71 326.82V321.5C298.763 319.688 298.111 317.926 296.891 316.585C295.671 315.244 293.979 314.428 292.17 314.31C291.124 314.109 290.045 314.146 289.015 314.417C287.985 314.688 287.028 315.187 286.216 315.877C285.404 316.567 284.758 317.43 284.324 318.404C283.89 319.377 283.68 320.435 283.71 321.5V326.82L280.62 325.05C272.23 320.24 264.67 333.2 273.05 338L281.52 342.87C282.21 343.26 282.94 343.73 283.71 344.21V347.49C281.93 348.6 280.25 349.78 278.84 350.6L271.27 355L268.17 353.2C268.17 352.33 268.1 351.47 268.1 350.69V340.92C268.1 331.27 253.1 331.25 253.1 340.92C253.1 342.12 253.1 343.32 253.1 344.52L248.33 341.76C239.95 336.92 232.39 349.88 240.76 354.71L245.6 357.51L242.45 359.33C235.39 363.44 239.71 373.33 246.29 373.33V375.24H227.78C227.78 371.52 225.34 367.8 220.54 367.74C196.04 367.47 174.18 351.15 167.7 327.34C164.447 315.159 165.507 302.228 170.7 290.74C172.864 285.88 175.717 281.357 179.17 277.31C183.179 272.603 187.965 268.619 193.32 265.53C206.9 257.7 222.86 256.44 237.75 261.03C241.09 262.03 244.38 260.3 246.22 257.59C260.86 236.05 287.64 224.45 313.37 229.49C318.118 230.423 322.751 231.865 327.19 233.79C328.06 234.17 328.92 234.57 329.76 234.98C330.6 235.39 331.7 235.98 332.65 236.46C335.713 238.139 338.641 240.051 341.41 242.18C352.178 250.465 360.169 261.833 364.32 274.77C364.666 276.017 365.329 277.154 366.243 278.07C367.158 278.987 368.293 279.651 369.54 280V280Z" fill="white"/>
<path id="Vector_9" d="M404.07 222C413.74 222 413.72 237 404.07 237H370.42C360.75 237 360.77 222 370.42 222H404.07Z" fill="#231815"/>
<path id="Vector_10" d="M342.21 233.41C356.187 242.806 366.532 256.697 371.53 272.78C384.101 275.339 395.273 282.476 402.879 292.806C410.485 303.136 413.984 315.923 412.696 328.686C411.408 341.45 405.425 353.28 395.908 361.882C386.391 370.484 374.018 375.244 361.19 375.24H354C354 371.52 356.46 367.81 361.24 367.74C383.24 367.45 402.45 351.13 405.24 329.04C408.13 305.76 392.16 284.9 369.63 280.04C368.378 279.693 367.238 279.029 366.32 278.11C365.401 277.192 364.737 276.052 364.39 274.8C360.239 261.863 352.248 250.495 341.48 242.21C341.8 239.29 342.07 236.36 342.21 233.41Z" fill="#231815"/>
<path id="Vector_11" d="M379.05 143.79C387.43 138.95 394.98 151.92 386.62 156.79L357.48 173.61C349.09 178.45 341.55 165.49 349.91 160.66L379.05 143.79Z" fill="#231815"/>
<path id="Vector_12" d="M378.76 270.79L373.52 265.55C374.79 265.82 376.02 266.15 377.25 266.5C377.79 267.92 378.3 269.34 378.76 270.79Z" fill="#231815"/>
<path id="Vector_13" d="M342.32 230.1C342.32 229.91 342.32 229.72 342.32 229.52C342.32 229.32 342.32 229.18 342.32 229.01C342.32 227.52 342.23 226.01 342.15 224.55C358.22 234.206 370.581 248.979 377.25 266.5C376.02 266.15 374.79 265.82 373.52 265.55L378.76 270.79C378.3 269.34 377.76 267.92 377.25 266.5C404.68 274.38 423.52 301.65 419.98 330.4C418.157 344.754 411.198 357.963 400.391 367.585C389.584 377.206 375.659 382.59 361.19 382.74C356.31 382.81 353.9 379.03 353.95 375.24H361.19C374.018 375.244 386.391 370.484 395.908 361.882C405.425 353.28 411.408 341.45 412.696 328.686C413.984 315.923 410.485 303.136 402.879 292.806C395.272 282.476 384.1 275.339 371.53 272.78C366.532 256.697 356.186 242.806 342.21 233.41C342.27 232.31 342.31 231.21 342.32 230.1Z" fill="#231815"/>
<path id="Vector_14" d="M341.56 233C342.008 232.102 342.267 231.122 342.32 230.12C342.32 231.23 342.27 232.33 342.21 233.43L341.56 233Z" fill="#231815"/>
<path id="Vector_15" d="M334.05 341.73C342.43 336.89 349.97 349.86 341.62 354.68L336.77 357.48L339.92 359.3C346.99 363.41 342.65 373.3 336.08 373.3C334.764 373.281 333.476 372.911 332.35 372.23L323.9 367.32C323.23 366.93 322.49 366.54 321.72 366.14L318.72 367.87V375.21H303.72V367.9C302.04 366.94 300.373 365.973 298.72 365L296.24 363.57L291.32 360.73L291.22 360.79L286.3 363.63L283.72 365.12L278.89 367.9V375.24H263.89V368L260.7 366.15C259.92 366.56 259.17 366.95 258.51 367.33L250.07 372.24C248.941 372.925 247.65 373.294 246.33 373.31C239.75 373.31 235.43 363.39 242.49 359.31L245.64 357.49L240.8 354.69C232.43 349.86 239.99 336.9 248.37 341.74L253.14 344.5C253.14 343.3 253.14 342.1 253.14 340.9C253.14 331.23 268.14 331.25 268.14 340.9V350.67C268.14 351.45 268.14 352.31 268.21 353.18L271.31 354.98L278.87 350.62C280.28 349.8 281.96 348.62 283.74 347.51V344.23C282.97 343.75 282.24 343.28 281.55 342.89L273 338C264.62 333.2 272.18 320.24 280.57 325.05L283.66 326.82V321.5C283.63 320.435 283.84 319.377 284.274 318.404C284.708 317.43 285.355 316.567 286.166 315.877C286.978 315.187 287.935 314.688 288.965 314.417C289.996 314.146 291.074 314.109 292.12 314.31C293.929 314.428 295.621 315.244 296.841 316.585C298.061 317.926 298.713 319.688 298.66 321.5V326.82L301.74 325.05C310.14 320.24 317.68 333.2 309.31 338L300.84 342.87C300.15 343.26 299.42 343.73 298.66 344.21V347.34C300.66 348.56 302.57 349.93 304.15 350.84L311.15 354.9L314.15 353.17C314.15 352.27 314.22 351.41 314.22 350.65V340.88C314.22 331.21 329.22 331.23 329.22 340.88C329.22 342.08 329.22 343.28 329.22 344.47L334.05 341.73Z" fill="#2EA7E0"/>
<path id="Vector_16" d="M341.42 395.46C349.79 400.29 342.22 413.25 333.85 408.46L329.27 405.81C329.27 407.01 329.27 408.21 329.27 409.41C329.27 419.08 314.27 419.06 314.27 409.41V399.64C314.27 398.86 314.27 398 314.2 397.13L311.1 395.33L303.74 399.58C302.27 400.43 300.52 401.67 298.68 402.81V406C299.44 406.48 300.18 406.95 300.86 407.34L309.33 412.21C317.71 417.01 310.15 429.97 301.76 425.16L298.68 423.39V429C298.68 438.67 283.68 438.65 283.68 429V423.45L280.59 425.22C272.2 430.03 264.65 417.07 273.02 412.27L281.49 407.4C282.18 407.01 282.91 406.54 283.68 406.06V402.7C281.74 401.5 279.91 400.2 278.38 399.31L271.38 395.26L268.19 397.1C268.19 398 268.11 398.85 268.11 399.62V409.39C268.11 419.06 253.11 419.04 253.11 409.39C253.11 408.19 253.11 406.99 253.11 405.79L248.54 408.44C240.15 413.28 232.61 400.31 240.96 395.44L245.61 392.76L242.47 391C235.4 386.89 239.74 377 246.31 377C247.629 377.019 248.92 377.388 250.05 378.07L258.49 382.98C259.16 383.37 259.91 383.76 260.67 384.16L263.87 382.31V375.31H278.87V382.31L283.7 385L286.38 386.54L291.2 389.33L291.3 389.39L296.12 386.6L298.7 385.11L303.62 382.27L303.72 382.21V375.21H318.72V382.33L321.72 384.06C322.5 383.65 323.25 383.26 323.9 382.88L332.35 377.97C333.478 377.284 334.77 376.914 336.09 376.9C342.66 376.9 346.98 386.82 339.92 390.9L336.77 392.72L341.42 395.46Z" fill="#2EA7E0"/>
<path id="Vector_17" d="M341.56 233C339.93 236.23 335.96 237.39 332.63 236.48C331.63 235.96 330.72 235.48 329.74 235C328.961 234.324 328.341 233.484 327.924 232.54C327.507 231.596 327.305 230.571 327.33 229.54C327.321 228.322 327.609 227.121 328.17 226.04C332.86 227.895 337.347 230.227 341.56 233V233Z" fill="#231815"/>
<path id="Vector_18" d="M328.17 226C331.27 220.16 341.93 221.16 342.32 229C342.32 229.17 342.32 229.34 342.32 229.51C342.32 229.68 342.32 229.9 342.32 230.09C342.267 231.092 342.008 232.072 341.56 232.97C337.347 230.194 332.86 227.858 328.17 226V226Z" fill="#231815"/>
<path id="Vector_19" d="M332.63 236.46C335.96 237.37 339.93 236.21 341.56 232.98L342.21 233.41C342.07 236.36 341.8 239.29 341.39 242.18C338.622 240.051 335.693 238.139 332.63 236.46V236.46Z" fill="#231815"/>
<path id="Vector_20" d="M327.2 225.64C327.046 222.863 326.749 220.096 326.31 217.35C331.841 219.155 337.154 221.57 342.15 224.55C342.23 226.03 342.3 227.55 342.32 229.01C341.93 221.18 331.27 220.18 328.17 226.01L327.2 225.64Z" fill="#231815"/>
<path id="Vector_21" d="M328.17 226C327.609 227.081 327.321 228.282 327.33 229.5C327.33 228.2 327.27 226.91 327.2 225.62L328.17 226Z" fill="#231815"/>
<path id="Vector_22" d="M327.33 229.52C327.304 230.551 327.507 231.576 327.924 232.52C328.34 233.464 328.961 234.304 329.74 234.98C328.9 234.57 328.04 234.17 327.17 233.79C327.26 232.38 327.32 231 327.33 229.52Z" fill="#231815"/>
<path id="Vector_23" d="M301.11 220.88C310.023 220.872 318.864 222.485 327.2 225.64C327.27 226.93 327.32 228.22 327.33 229.52C327.34 230.82 327.26 232.38 327.17 233.79C322.731 231.865 318.098 230.423 313.35 229.49C287.62 224.49 260.84 236.05 246.2 257.59C244.36 260.3 241.07 262.06 237.73 261.03C222.84 256.44 206.88 257.7 193.3 265.53C187.945 268.619 183.159 272.603 179.15 277.31C177.606 275.207 176.174 273.024 174.86 270.77C182.104 262.927 191.246 257.082 201.404 253.796C211.562 250.511 222.395 249.895 232.86 252.01C235.182 252.477 237.476 253.075 239.73 253.8C246.45 243.673 255.571 235.367 266.281 229.623C276.991 223.879 288.957 220.875 301.11 220.88V220.88Z" fill="#231815"/>
<path id="Vector_24" d="M236.74 245.25C245.93 233.441 258.166 224.362 272.132 218.989C286.098 213.617 301.265 212.155 316 214.76C319.509 215.385 322.97 216.25 326.36 217.35C326.798 220.096 327.096 222.863 327.25 225.64C311.634 219.74 294.478 219.313 278.587 224.428C262.697 229.544 249.012 239.898 239.77 253.8C237.515 253.075 235.222 252.477 232.9 252.01L233.3 250.01L241.77 246.56C240.07 246.06 238.41 245.63 236.74 245.25Z" fill="#231815"/>
<path id="Vector_25" d="M175.63 187.13C193.17 158.18 228.11 142.53 261.39 149.27C277.85 152.671 292.882 161.009 304.481 173.173C316.08 185.336 323.695 200.747 326.31 217.35C322.936 216.252 319.492 215.387 316 214.76C301.273 212.164 286.116 213.631 272.16 219.003C258.204 224.375 245.976 233.449 236.79 245.25C225.196 242.608 213.125 242.917 201.681 246.149C190.238 249.381 179.788 255.433 171.29 263.75C165.793 251.572 163.317 238.248 164.073 224.908C164.828 211.569 168.793 198.609 175.63 187.13V187.13Z" fill="#F8B62D"/>
<path id="Vector_26" d="M241.72 246.57L233.25 250C234.36 248.36 235.53 246.77 236.74 245.23C238.41 245.63 240.07 246.06 241.72 246.57Z" fill="#231815"/>
<path id="Vector_27" d="M171.24 263.75C179.738 255.433 190.188 249.381 201.631 246.149C213.075 242.917 225.146 242.608 236.74 245.25C235.53 246.79 234.36 248.38 233.25 250.02L232.85 252.02C222.385 249.906 211.552 250.521 201.394 253.806C191.236 257.092 182.094 262.938 174.85 270.78C173.53 268.498 172.325 266.152 171.24 263.75V263.75Z" fill="#231815"/>
<path id="Vector_28" d="M158.31 313C158.31 321.172 159.92 329.264 163.047 336.814C166.174 344.364 170.758 351.225 176.537 357.003C182.315 362.782 189.176 367.366 196.726 370.493C204.276 373.62 212.368 375.23 220.54 375.23H227.78C227.78 379.01 225.4 382.79 220.54 382.73C202.973 382.617 186.074 375.985 173.12 364.12C149.84 342.7 144.3 306.98 159.46 279.33C159.96 278.41 160.46 277.51 161.03 276.63C161.56 277.58 162.11 278.54 162.68 279.48C163.59 280.99 164.55 282.48 165.54 283.89C160.78 292.854 158.297 302.851 158.31 313Z" fill="#231815"/>
<path id="Vector_29" d="M174.86 270.77C176.174 273.024 177.606 275.207 179.15 277.31C175.697 281.357 172.844 285.88 170.68 290.74C168.87 288.55 167.16 286.26 165.54 283.9C168.058 279.134 171.191 274.719 174.86 270.77Z" fill="#231815"/>
<path id="Vector_30" d="M171.24 263.75C167.319 267.617 163.88 271.946 161 276.64C141.73 242.14 146 198.47 171 167.88C196.37 136.83 240.58 124.64 278.27 138.46C296.13 145.051 311.681 156.704 323.023 171.993C334.364 187.283 341.004 205.547 342.13 224.55C337.133 221.57 331.821 219.155 326.29 217.35C323.675 200.747 316.06 185.336 304.461 173.173C292.862 161.009 277.83 152.671 261.37 149.27C228.09 142.53 193.15 158.18 175.61 187.13C168.768 198.607 164.798 211.565 164.038 224.905C163.277 238.244 165.748 251.57 171.24 263.75Z" fill="#231815"/>
<path id="Vector_31" d="M161 276.64C163.871 271.947 167.299 267.619 171.21 263.75C172.299 266.142 173.507 268.478 174.83 270.75C171.161 274.699 168.028 279.114 165.51 283.88C164.51 282.44 163.56 280.98 162.65 279.47C162.11 278.55 161.56 277.59 161 276.64Z" fill="#231815"/>
<path id="Vector_32" d="M227.78 375.24H220.54C209.811 375.24 199.264 372.465 189.923 367.186C180.582 361.907 172.765 354.303 167.231 345.111C161.696 335.92 158.632 325.453 158.335 314.728C158.039 304.003 160.521 293.383 165.54 283.9C167.16 286.26 168.87 288.55 170.68 290.74C165.487 302.228 164.427 315.159 167.68 327.34C174.16 351.15 196.02 367.47 220.52 367.74C225.34 367.8 227.75 371.52 227.78 375.24Z" fill="#231815"/>
<path id="Vector_33" d="M141.22 160.62C149.59 165.45 142.02 178.41 133.65 173.57L104.5 156.75C96.1399 151.91 103.7 138.96 112.07 143.75L141.22 160.62Z" fill="#231815"/>
<path id="Vector_34" d="M133.65 285.48C142.03 280.64 149.58 293.6 141.22 298.43L112.07 315.25C103.69 320.1 96.1499 307.13 104.5 302.3L133.65 285.48Z" fill="#231815"/>
</g>
</g>
</svg>
