<svg width="500" height="500" viewBox="0 0 500 500" fill="none" xmlns="http://www.w3.org/2000/svg">
<g id="13n">
<g id="13n_2">
<path id="Vector" d="M336.56 130.45C335.94 131.67 335.28 132.87 334.56 134.03C330.744 140.007 325.782 145.17 319.96 149.22C318.278 150.394 316.517 151.449 314.69 152.38C318.717 154.491 322.457 157.109 325.82 160.17C330.185 164.171 333.811 168.91 336.53 174.17L337.12 173.1C340.482 167.048 345.037 161.741 350.51 157.5C353.012 155.528 355.69 153.791 358.51 152.31C349.161 147.396 341.512 139.778 336.56 130.45Z" fill="white"/>
<path id="Vector_2" d="M367.51 148.62C366.822 148.778 366.152 149.006 365.51 149.3C364.87 149.53 364.24 149.78 363.61 150.03C363.636 151.552 364.172 153.022 365.133 154.202C366.094 155.383 367.425 156.206 368.91 156.54C365.56 155.63 373.1 147.95 367.51 148.62Z" fill="#231815"/>
<path id="Vector_3" d="M363.59 150C362.52 150.42 361.46 150.87 360.41 151.35C359.75 151.65 359.12 151.98 358.49 152.35C361.802 154.106 365.287 155.513 368.89 156.55C367.398 156.215 366.063 155.385 365.101 154.197C364.139 153.008 363.607 151.529 363.59 150V150Z" fill="#231815"/>
<path id="Vector_4" d="M363.59 150C364.22 149.75 364.85 149.5 365.49 149.27C366.132 148.976 366.802 148.748 367.49 148.59C373.08 147.92 365.49 155.59 368.87 156.5C378.17 159.16 382.14 144.69 372.87 142.04C367.12 140.51 363.4 145.44 363.59 150Z" fill="#231815"/>
<path id="Vector_5" d="M340.68 120H332.37L332.76 121.38C333.021 122.542 333.417 123.67 333.94 124.74C334.698 126.692 335.57 128.599 336.55 130.45C337.496 128.591 338.347 126.685 339.1 124.74C339.6 123.49 340.69 121.43 340.68 120Z" fill="#231815"/>
<path id="Vector_6" d="M304.17 148.22V152.37C302.837 155.757 303.067 157.09 304.86 156.37C306.23 156.37 308.26 155.26 309.56 154.74C311.3 154.04 313 153.28 314.66 152.42C312.164 151.11 309.569 149.997 306.9 149.09C306.033 148.68 305.115 148.388 304.17 148.22Z" fill="#231815"/>
<path id="Vector_7" d="M228.5 88.87C226.151 94.5137 224.209 100.319 222.69 106.24C228.06 102.841 233.687 99.8651 239.52 97.34L228.5 88.87Z" fill="#231815"/>
<path id="Vector_8" d="M276 352.4C277.128 353.085 278.42 353.454 279.74 353.47V355.39H262.37V348.05C263.37 347.47 264.37 346.89 265.37 346.32C266.13 346.72 266.87 347.11 267.55 347.5L276 352.4Z" fill="white"/>
<path id="Vector_9" d="M247.37 353.85V355.39H222.53V349L223.27 348.57L227.35 346.22L230.77 344.22L234.85 341.87L234.95 341.81L239 344.2L242.32 346.12L246.5 348.54L247.34 349.02L247.37 353.85Z" fill="white"/>
<path id="Vector_10" d="M207.53 355.39H190V353.48C191.324 353.462 192.619 353.089 193.75 352.4L202.2 347.5C202.85 347.12 203.6 346.73 204.38 346.32L207.58 348.17L207.53 355.39Z" fill="white"/>
<path id="Vector_11" d="M304.41 246.1C305.803 248.95 306.986 251.898 307.95 254.92C308.298 256.171 308.964 257.31 309.882 258.228C310.8 259.146 311.939 259.812 313.19 260.16C320.07 261.634 326.524 264.657 332.06 269C337.008 272.856 341.082 277.719 344.013 283.266C346.943 288.813 348.664 294.919 349.06 301.18C349.222 303.849 349.138 306.527 348.81 309.18C348.321 313.099 347.295 316.931 345.76 320.57C342.308 328.588 336.607 335.434 329.347 340.28C322.087 345.127 313.578 347.767 304.85 347.88C300.07 347.95 297.66 351.66 297.61 355.38H279.74V353.46C286.32 353.46 290.65 343.55 283.57 339.46L280.43 337.64L283.43 335.92L285.3 334.84C292.05 330.94 288.42 321.73 282.3 320.89C281.785 320.825 281.265 320.825 280.75 320.89C279.667 321.003 278.621 321.343 277.68 321.89L272.91 324.64C272.91 323.45 272.91 322.25 272.91 321.05C272.91 320.81 272.91 320.59 272.91 320.37C272.28 312.47 261.13 311.7 258.5 318.09C258.115 319.042 257.928 320.063 257.95 321.09C257.95 324.343 257.95 327.6 257.95 330.86C257.95 331.6 257.95 332.42 257.88 333.28V333.38L254 335.54L247.84 332C246.84 331.39 245.6 330.59 244.33 329.76C243.69 329.33 243.02 328.91 242.33 328.5V324.4C243.09 323.92 243.83 323.45 244.51 323.05L252.99 318.19C253.511 317.895 253.997 317.543 254.44 317.14C260.35 311.75 253.26 300.74 245.44 305.24L242.35 307V301.68C242.35 292.03 227.35 292.01 227.35 301.68V307L224.26 305.23C217.04 301.09 210.44 310.12 214.1 315.78C214.753 316.78 215.643 317.605 216.69 318.18L225.17 323.04C225.85 323.44 226.58 323.9 227.35 324.39V328.64C225.58 329.74 223.9 330.92 222.48 331.74L215.77 335.62L211.82 333.34C211.82 332.46 211.76 331.61 211.76 330.83C211.76 327.57 211.76 324.313 211.76 321.06C211.76 311.4 196.76 311.39 196.76 321.06C196.76 322.26 196.76 323.46 196.76 324.65L192 321.88C183.63 317.04 176.06 330 184.43 334.83L189.27 337.63L186.13 339.45C179.06 343.55 183.39 353.45 189.95 353.45V355.36H171.43C171.43 351.64 168.99 347.92 164.19 347.86C139.69 347.59 117.83 331.27 111.36 307.46C108.285 295.775 109.127 283.405 113.759 272.245C118.39 261.086 126.555 251.753 137 245.68C143.294 242.061 150.259 239.761 157.47 238.92C162.829 238.297 168.249 238.435 173.57 239.33C176.228 239.77 178.854 240.388 181.43 241.18C184.77 242.18 188.06 240.45 189.9 237.74C195.429 229.672 202.649 222.904 211.057 217.906C219.465 212.909 228.86 209.801 238.59 208.8C244.751 208.171 250.971 208.454 257.05 209.64C257.15 209.64 257.24 209.64 257.34 209.7C267.457 211.737 276.968 216.081 285.132 222.394C293.297 228.708 299.894 236.82 304.41 246.1V246.1Z" fill="white"/>
<path id="Vector_12" d="M400 260.4C397.18 256.72 394.357 253.053 391.53 249.4L391 247.9C392.69 247.29 394.38 246.63 396.05 245.9C402.86 243.06 406.72 251.83 404.52 256.9C395.579 277.405 381.57 295.299 363.81 308.9C364.387 302.728 363.958 296.504 362.54 290.47C370.286 283.288 377.057 275.122 382.68 266.18C388.584 264.67 394.372 262.738 400 260.4V260.4Z" fill="#231815"/>
<path id="Vector_13" d="M391.55 249.38C394.383 253.053 397.207 256.72 400.02 260.38C394.383 262.726 388.585 264.664 382.67 266.18C386.062 260.819 389.031 255.202 391.55 249.38V249.38Z" fill="#231815"/>
<path id="Vector_14" d="M391 247.9L391.56 249.38C389.042 255.209 386.073 260.833 382.68 266.2C373.149 268.657 363.37 270.023 353.53 270.27C349.293 264.113 343.953 258.793 337.78 254.58C355.797 256.422 373.997 254.138 391 247.9V247.9Z" fill="#231815"/>
<path id="Vector_15" d="M362.53 290.49C360.82 283.247 357.768 276.388 353.53 270.27C363.37 270.023 373.149 268.658 382.68 266.2C377.054 275.143 370.28 283.309 362.53 290.49V290.49Z" fill="#F4EC90"/>
<path id="Vector_16" d="M355.35 314.9C358.237 313.02 361.053 311.02 363.8 308.9C363.74 309.44 363.7 309.99 363.64 310.53C361.812 324.884 354.851 338.092 344.043 347.713C333.234 357.334 319.309 362.718 304.84 362.87C299.97 362.94 297.56 359.16 297.6 355.37H304.84C316.605 355.369 328.019 351.36 337.201 344.003C346.382 336.647 352.784 326.382 355.35 314.9V314.9Z" fill="#231815"/>
<path id="Vector_17" d="M356 296.07C358.24 294.29 360.406 292.43 362.5 290.49C363.918 296.524 364.347 302.748 363.77 308.92C361.03 311.02 358.213 313.02 355.32 314.92C356.141 311.223 356.557 307.447 356.56 303.66C356.562 301.12 356.375 298.583 356 296.07V296.07Z" fill="#231815"/>
<path id="Vector_18" d="M362.53 290.49C360.43 292.43 358.263 294.29 356.03 296.07C354.628 286.507 350.563 277.531 344.3 270.17C347.37 270.31 350.45 270.34 353.52 270.27C357.761 276.387 360.817 283.246 362.53 290.49Z" fill="#231815"/>
<path id="Vector_19" d="M356.59 303.64C356.587 307.427 356.171 311.203 355.35 314.9C352.23 316.9 349.03 318.793 345.75 320.58C347.285 316.941 348.311 313.109 348.8 309.19C349.128 306.537 349.212 303.859 349.05 301.19C351.437 299.563 353.77 297.847 356.05 296.04C356.418 298.556 356.599 301.097 356.59 303.64V303.64Z" fill="#231815"/>
<path id="Vector_20" d="M345.75 320.58C349.03 318.82 352.23 316.927 355.35 314.9C352.788 326.386 346.388 336.655 337.206 344.016C328.024 351.376 316.608 355.388 304.84 355.39H297.6C297.65 351.67 300.06 347.96 304.84 347.89C313.568 347.776 322.077 345.137 329.337 340.29C336.597 335.444 342.298 328.598 345.75 320.58Z" fill="#231815"/>
<path id="Vector_21" d="M344.3 270.17C350.553 277.535 354.607 286.51 356 296.07C353.74 297.87 351.407 299.587 349 301.22C348.604 294.959 346.883 288.853 343.953 283.306C341.023 277.759 336.948 272.896 332 269.04C336.1 269.613 340.2 269.99 344.3 270.17Z" fill="#231815"/>
<path id="Vector_22" d="M337.77 254.58C343.943 258.793 349.283 264.113 353.52 270.27C350.45 270.34 347.37 270.27 344.3 270.17C336.799 261.323 326.544 255.252 315.18 252.93C314.84 251.82 314.47 250.73 314.07 249.65C321.78 252.099 329.722 253.751 337.77 254.58Z" fill="#231815"/>
<path id="Vector_23" d="M336.53 184.73C341.38 184.73 341.05 185.73 340.07 182.67C339.416 180.709 338.661 178.783 337.81 176.9C337.41 175.98 336.96 175.08 336.5 174.18L337.09 173.11C340.45 167.056 345.006 161.749 350.48 157.51C352.983 155.539 355.66 153.802 358.48 152.32C361.796 154.075 365.285 155.482 368.89 156.52C378.18 159.19 382.15 144.72 372.89 142.06C375.376 142.76 377.525 144.334 378.942 146.493C380.359 148.653 380.947 151.251 380.6 153.81C379.89 159.08 376.14 161.47 371.52 163.08C362.07 166.36 354.46 172.39 349.73 181.3C347.73 185.01 347.3 189.75 344.52 192.96C343.036 194.634 341.063 195.798 338.88 196.286C336.697 196.774 334.415 196.562 332.36 195.68C327.36 193.55 326.7 189.16 324.92 184.68C323.508 181.094 321.53 177.758 319.06 174.8C316.187 171.374 312.73 168.482 308.85 166.26C305.37 164.26 301.39 163.67 297.94 161.76C295.831 160.602 294.171 158.768 293.228 156.554C292.285 154.34 292.113 151.873 292.74 149.55C293.99 145.01 297.45 143.08 301.57 141.7C309.585 139.189 316.514 134.04 321.23 127.09C325.68 120.29 326.41 107.81 336.99 108.22C346.89 108.61 347.55 120.5 351.86 127.09C356.837 134.444 364.289 139.767 372.86 142.09C367.1 140.54 363.38 145.46 363.58 150.09C362.51 150.51 361.44 150.96 360.4 151.43C359.74 151.73 359.11 152.06 358.47 152.43C349.132 147.508 341.493 139.887 336.55 130.56C337.495 128.701 338.346 126.795 339.1 124.85C339.59 123.59 340.68 121.53 340.67 120.12H332.36C332.49 120.58 332.63 121.04 332.76 121.5C333.02 122.658 333.413 123.782 333.93 124.85C334.691 126.803 335.566 128.709 336.55 130.56C335.92 131.78 335.26 132.98 334.55 134.14C330.732 140.119 325.766 145.282 319.94 149.33C318.259 150.505 316.498 151.561 314.67 152.49C312.175 151.178 309.58 150.065 306.91 149.16C306.039 148.759 305.117 148.48 304.17 148.33V152.48C302.837 155.867 303.067 157.2 304.86 156.48C306.24 156.48 308.26 155.36 309.57 154.84C311.3 154.15 313.01 153.38 314.67 152.53C318.697 154.641 322.437 157.259 325.8 160.32C330.164 164.321 333.79 169.06 336.51 174.32C334.97 177.12 333.19 180.48 332.78 183.49C332.42 185.88 330.63 184.73 336.53 184.73Z" fill="#231815"/>
<path id="Vector_24" d="M340.07 182.67C341.07 185.74 341.38 184.73 336.53 184.73C330.63 184.73 332.42 185.88 332.77 183.35C333.18 180.35 334.96 176.98 336.5 174.18C336.96 175.08 337.41 175.98 337.81 176.9C338.661 178.783 339.416 180.709 340.07 182.67Z" fill="#231815"/>
<path id="Vector_25" d="M315.18 252.93C326.544 255.252 336.799 261.323 344.3 270.17C340.2 269.977 336.12 269.6 332.06 269.04C326.527 264.683 320.073 261.646 313.19 260.16C311.939 259.812 310.8 259.146 309.882 258.228C308.964 257.31 308.298 256.171 307.95 254.92C306.986 251.898 305.803 248.95 304.41 246.1C307.58 247.43 310.81 248.61 314.07 249.65C314.47 250.73 314.84 251.82 315.18 252.93Z" fill="#231815"/>
<path id="Vector_26" d="M322.42 250.94L317.18 245.7C318.44 245.97 319.68 246.3 320.9 246.7C321.44 248.06 322 249.49 322.42 250.94Z" fill="#231815"/>
<path id="Vector_27" d="M320.9 246.65C326.909 248.38 332.604 251.057 337.77 254.58C329.722 253.751 321.781 252.099 314.07 249.65C309.303 236.494 300.891 224.967 289.817 216.414C278.743 207.861 265.463 202.637 251.53 201.35C249.957 198.843 248.487 196.287 247.12 193.68C251.308 193.779 255.483 194.19 259.61 194.91C287.74 199.86 310.86 220.31 320.9 246.65C319.68 246.3 318.44 245.97 317.18 245.65L322.42 250.89C322 249.49 321.44 248.06 320.9 246.65Z" fill="#231815"/>
<path id="Vector_28" d="M314.07 249.65C310.81 248.65 307.58 247.43 304.41 246.1C299.889 236.814 293.284 228.698 285.111 222.385C276.937 216.071 267.417 211.73 257.29 209.7C255.24 206.98 253.29 204.2 251.53 201.35C265.463 202.637 278.743 207.862 289.817 216.414C300.891 224.967 309.303 236.494 314.07 249.65V249.65Z" fill="#231815"/>
<path id="Vector_29" d="M282.32 320.88C288.39 321.72 292.02 330.93 285.32 334.83L283.45 335.91L280.45 337.63L283.59 339.45C290.67 343.56 286.34 353.45 279.76 353.45C278.435 353.444 277.136 353.081 276 352.4L267.56 347.5C266.88 347.11 266.14 346.72 265.38 346.32C264.38 346.89 263.38 347.47 262.38 348.05V355.39H247.38V349L246.54 348.52L242.36 346.1L239 344.2L235 341.85L234.9 341.91L230.82 344.26L227.4 346.26L223.32 348.61L222.58 349.04V355.41H207.58V348.19L204.38 346.34C203.6 346.75 202.85 347.14 202.2 347.52L193.75 352.42C192.619 353.109 191.324 353.482 190 353.5C183.44 353.5 179.11 343.57 186.18 339.5L189.32 337.68L184.48 334.88C176.11 330.05 183.68 317.09 192.05 321.93L196.82 324.68C196.82 323.49 196.82 322.29 196.82 321.09C196.82 311.42 211.82 311.43 211.82 321.09C211.82 324.343 211.82 327.6 211.82 330.86C211.82 331.64 211.82 332.49 211.88 333.37L215.83 335.65L222.54 331.77C223.96 330.95 225.64 329.77 227.41 328.67V324.42C226.64 323.93 225.91 323.47 225.23 323.07L216.75 318.21C215.703 317.635 214.813 316.81 214.16 315.81C210.5 310.15 217.1 301.12 224.32 305.26L227.41 307.03V301.71C227.41 292.04 242.41 292.06 242.41 301.71V307L245.5 305.23C253.34 300.73 260.43 311.74 254.5 317.13C254.057 317.533 253.571 317.885 253.05 318.18L244.53 323C243.85 323.4 243.11 323.87 242.35 324.35V328.45C243.02 328.86 243.69 329.28 244.35 329.71C245.62 330.54 246.81 331.34 247.86 331.95L254.05 335.52L257.89 333.31V333.21C257.89 332.35 257.96 331.53 257.96 330.79C257.96 327.53 257.96 324.273 257.96 321.02C257.938 319.993 258.126 318.972 258.51 318.02C261.14 311.63 272.29 312.4 272.92 320.3C272.92 320.52 272.92 320.74 272.92 320.98C272.92 322.18 272.92 323.38 272.92 324.57L277.69 321.82C278.631 321.273 279.677 320.933 280.76 320.82C281.28 320.774 281.805 320.794 282.32 320.88V320.88Z" fill="#2EA7E0"/>
<path id="Vector_30" d="M285.07 375.61C293.44 380.44 285.88 393.4 277.5 388.61L272.93 385.96C272.93 387.16 272.93 388.36 272.93 389.56C272.93 399.23 257.93 399.21 257.93 389.56C257.93 386.3 257.93 383.05 257.93 379.79C257.93 379 257.93 378.15 257.87 377.27L255.6 375.97L247.41 380.7C245.94 381.55 244.19 382.79 242.34 383.92V386.23C243.11 386.71 243.84 387.18 244.52 387.57L253 392.43C261.38 397.24 253.81 410.2 245.43 405.43L242.34 403.66V409.21C242.34 418.87 227.34 418.86 227.34 409.21V403.66L224.25 405.43C215.86 410.24 208.31 397.28 216.68 392.43L225.16 387.57C225.84 387.18 226.58 386.71 227.34 386.23V383.83C225.4 382.64 223.57 381.33 222.04 380.45L214.18 375.91L211.82 377.27C211.82 378.17 211.75 379.02 211.75 379.79C211.75 383.05 211.75 386.3 211.75 389.56C211.75 399.23 196.75 399.21 196.75 389.56C196.75 388.36 196.75 387.16 196.75 385.96L192.18 388.61C183.8 393.45 176.25 380.48 184.61 375.61L189.25 372.93L186.11 371.11C179.04 367 183.37 357.11 189.94 357.11C191.26 357.124 192.552 357.494 193.68 358.18L202.13 363.09C202.8 363.48 203.54 363.87 204.3 364.27L207.51 362.42V355.42H222.51V363.42L227.33 366.21L229.17 367.27L234.83 370.54H234.93L240.59 367.28L242.33 366.28L247.33 363.38V355.38H262.33V362.5L265.33 364.23C266.11 363.82 266.86 363.43 267.52 363.05L275.96 358.14C277.088 357.454 278.38 357.084 279.7 357.07C286.27 357.07 290.6 366.99 283.53 371.07L280.39 372.89L285.07 375.61Z" fill="#2EA7E0"/>
<path id="Vector_31" d="M251.53 201.35C253.31 204.2 255.24 206.98 257.29 209.7C257.19 209.7 257.1 209.7 257 209.64C250.921 208.454 244.701 208.171 238.54 208.8C237.11 206.49 235.77 204.13 234.49 201.75C237.892 201.272 241.324 201.032 244.76 201.03C247.04 201.01 249.297 201.117 251.53 201.35Z" fill="#231815"/>
<path id="Vector_32" d="M231.07 194.9C236.351 193.974 241.71 193.565 247.07 193.68C248.443 196.28 249.913 198.837 251.48 201.35C249.246 201.137 246.99 201.03 244.71 201.03C241.274 201.032 237.842 201.272 234.44 201.75C233.28 199.5 232.14 197.21 231.07 194.9Z" fill="#231815"/>
<path id="Vector_33" d="M247.12 193.68C241.76 193.565 236.401 193.974 231.12 194.9C218.175 167.2 215.215 135.875 222.74 106.24C228.111 102.842 233.738 99.8663 239.57 97.34L241.04 97.89C235.312 113.397 232.894 129.931 233.941 146.429C234.988 162.926 239.477 179.022 247.12 193.68V193.68Z" fill="#231815"/>
<path id="Vector_34" d="M231.94 84.39C237.08 82.17 245.82 86.02 242.94 92.86C242.24 94.53 241.59 96.2 240.94 97.86L239.47 97.31L228.47 88.84L227.33 86.46C228.87 85.75 230.4 85.06 231.94 84.39Z" fill="#231815"/>
<path id="Vector_35" d="M183.38 234C189.141 225.326 196.674 217.972 205.484 212.422C214.294 206.872 224.18 203.252 234.49 201.8C235.77 204.18 237.11 206.54 238.54 208.85C228.81 209.851 219.415 212.959 211.007 217.956C202.599 222.954 195.379 229.722 189.85 237.79C188.01 240.5 184.72 242.26 181.38 241.23C178.804 240.438 176.179 239.82 173.52 239.38C172.693 236.713 171.957 234.047 171.31 231.38C175.411 231.849 179.454 232.727 183.38 234V234Z" fill="#231815"/>
<path id="Vector_36" d="M227.36 86.49L228.5 88.87C226.148 94.5125 224.206 100.318 222.69 106.24C197.872 121.763 179.775 146.026 171.97 174.24C167.621 190.397 166.864 207.309 169.75 223.79C164.621 223.425 159.469 223.613 154.38 224.35C150.187 196.582 155.015 168.202 168.156 143.383C181.297 118.565 202.057 98.6189 227.38 86.48L227.36 86.49Z" fill="#231815"/>
<path id="Vector_37" d="M222.69 106.24C215.165 135.875 218.126 167.2 231.07 194.9C210.993 198.467 192.943 209.33 180.39 225.4C176.889 224.596 173.332 224.061 169.75 223.8C166.874 207.317 167.642 190.404 172 174.25C179.795 146.038 197.881 121.771 222.69 106.24V106.24Z" fill="#F4EC90"/>
<path id="Vector_38" d="M185.37 226.72L176.9 230.17C178.01 228.53 179.18 226.94 180.39 225.4C182.06 225.78 183.72 226.21 185.37 226.72Z" fill="#231815"/>
<path id="Vector_39" d="M231.07 194.9C232.14 197.21 233.28 199.5 234.49 201.75C224.175 203.207 214.287 206.835 205.477 212.394C196.667 217.953 189.136 225.317 183.38 234C179.454 232.73 175.41 231.856 171.31 231.39C170.71 228.89 170.19 226.377 169.75 223.85C173.332 224.111 176.889 224.646 180.39 225.45C179.18 226.99 178.01 228.58 176.9 230.22L185.37 226.77C183.72 226.26 182.06 225.83 180.37 225.45C192.919 209.357 210.978 198.476 231.07 194.9V194.9Z" fill="#231815"/>
<path id="Vector_40" d="M164.19 230.92C166.569 230.923 168.947 231.063 171.31 231.34C171.977 234.007 172.713 236.673 173.52 239.34C168.199 238.445 162.779 238.307 157.42 238.93C156.753 236.49 156.163 234.023 155.65 231.53C158.48 231.135 161.333 230.931 164.19 230.92V230.92Z" fill="#231815"/>
<path id="Vector_41" d="M169.75 223.8C170.19 226.327 170.71 228.84 171.31 231.34C168.947 231.063 166.569 230.923 164.19 230.92C161.333 230.928 158.48 231.128 155.65 231.52C155.163 229.147 154.74 226.76 154.38 224.36C159.468 223.623 164.621 223.435 169.75 223.8V223.8Z" fill="#231815"/>
<path id="Vector_42" d="M102 293.16C102.005 278.136 107.442 263.621 117.31 252.293C127.177 240.964 140.809 233.586 155.69 231.52C156.21 234.007 156.8 236.473 157.46 238.92C150.252 239.762 143.291 242.062 137 245.68C126.558 251.762 118.4 261.103 113.777 272.268C109.155 283.433 108.323 295.807 111.41 307.49C117.88 331.3 139.74 347.62 164.24 347.89C169.04 347.95 171.45 351.67 171.48 355.39H164.24C156.067 355.391 147.974 353.783 140.423 350.656C132.871 347.529 126.01 342.946 120.23 337.167C114.451 331.388 109.866 324.527 106.738 316.977C103.61 309.426 102 301.333 102 293.16V293.16Z" fill="#231815"/>
<path id="Vector_43" d="M154.38 224.36C154.74 226.76 155.163 229.147 155.65 231.52C140.037 233.685 125.828 241.694 115.892 253.93C105.955 266.165 101.032 281.716 102.116 297.44C103.2 313.165 110.211 327.892 121.733 338.648C133.254 349.404 148.428 355.388 164.19 355.39H171.43C171.43 359.17 169.06 362.95 164.19 362.89C146.626 362.778 129.73 356.145 116.78 344.28C93.4899 322.86 87.9999 287.14 103.11 259.49C108.359 250.07 115.721 241.995 124.617 235.9C133.512 229.804 143.7 225.854 154.38 224.36Z" fill="#231815"/>
</g>
</g>
</svg>
