<svg width="500" height="500" viewBox="0 0 500 500" fill="none" xmlns="http://www.w3.org/2000/svg">
<g id="50d">
<g id="50n">
<path id="Vector" d="M329.74 247.71C330.74 248.18 331.68 248.71 332.63 249.19C335.693 250.869 338.621 252.781 341.39 254.91C352.158 263.195 360.149 274.563 364.3 287.5C364.648 288.751 365.314 289.89 366.232 290.808C367.15 291.726 368.289 292.392 369.54 292.74C392.07 297.63 408.04 318.49 405.15 341.74C402.4 363.83 383.15 380.15 361.15 380.44C356.37 380.51 353.95 384.22 353.91 387.94H343.21C343.21 384.19 340.8 380.44 335.97 380.44H246.7C241.88 380.44 239.46 384.19 239.46 387.94H227.78C227.78 384.22 225.34 380.49 220.54 380.44C196.04 380.17 174.18 363.84 167.7 340.04C164.447 327.856 165.507 314.922 170.7 303.43C172.86 298.572 175.705 294.049 179.15 290C183.156 285.291 187.942 281.306 193.3 278.22C206.88 270.39 222.84 269.13 237.73 273.72C241.07 274.72 244.36 272.98 246.2 270.28C260.84 248.74 287.62 237.14 313.35 242.17C318.099 243.102 322.733 244.547 327.17 246.48C328 246.9 328.9 247.29 329.74 247.71ZM342.84 367.18C352.49 367.18 352.51 352.18 342.84 352.18H231.45C221.79 352.18 221.78 367.18 231.45 367.18H342.84V367.18Z" fill="#DCDDDD"/>
<path id="Vector_2" d="M404.07 234.75C413.74 234.75 413.72 249.75 404.07 249.75H370.42C360.75 249.75 360.77 234.75 370.42 234.75H404.07Z" fill="#231815"/>
<path id="Vector_3" d="M371.53 285.51C384.134 288.037 395.346 295.164 402.983 305.504C410.62 315.843 414.136 328.655 412.846 341.445C411.555 354.234 405.551 366.086 396.003 374.692C386.454 383.297 374.044 388.041 361.19 388H354C354 384.28 356.46 380.57 361.24 380.5C383.24 380.21 402.45 363.89 405.24 341.8C408.13 318.52 392.16 297.66 369.63 292.8C368.379 292.452 367.24 291.786 366.322 290.868C365.404 289.95 364.738 288.811 364.39 287.56C360.239 274.622 352.248 263.255 341.48 254.97C341.89 252.08 342.16 249.15 342.3 246.2C356.234 255.594 366.546 269.461 371.53 285.51V285.51Z" fill="#231815"/>
<path id="Vector_4" d="M379.05 156.52C387.43 151.68 394.98 164.65 386.62 169.52L357.48 186.3C349.09 191.14 341.55 178.17 349.91 173.35L379.05 156.52Z" fill="#231815"/>
<path id="Vector_5" d="M412.94 336.22C412.939 324.29 408.817 312.727 401.271 303.486C393.725 294.246 383.219 287.896 371.53 285.51C366.535 269.426 356.189 255.534 342.21 246.14C342.27 245.04 342.31 243.93 342.32 242.82V242.74C342.32 242.6 342.32 242.46 342.32 242.32V242.25C342.32 242.08 342.32 241.91 342.32 241.74C342.32 240.24 342.23 238.74 342.15 237.27C358.227 246.939 370.589 261.731 377.25 279.27C376.02 278.92 374.79 278.59 373.52 278.32L378.76 283.55C378.3 282.11 377.76 280.68 377.25 279.27C404.68 287.15 423.52 314.42 419.98 343.17C418.155 357.523 411.196 370.731 400.389 380.352C389.582 389.973 375.658 395.358 361.19 395.51C356.31 395.58 353.9 391.79 353.95 388.01H361.19C367.989 388.01 374.722 386.67 381.003 384.067C387.284 381.464 392.991 377.648 397.797 372.839C402.603 368.029 406.414 362.319 409.012 356.036C411.61 349.753 412.945 343.019 412.94 336.22V336.22Z" fill="#231815"/>
<path id="Vector_6" d="M377.25 279.23C377.79 280.64 378.25 282.07 378.76 283.51L373.52 278.28C374.79 278.55 376 278.88 377.25 279.23Z" fill="#231815"/>
<path id="Vector_7" d="M364.65 408.76C374.32 408.76 374.31 423.76 364.65 423.76H264.45C254.78 423.76 254.8 408.76 264.45 408.76H364.65Z" fill="#231815"/>
<path id="Vector_8" d="M342.84 352.18C352.51 352.18 352.49 367.18 342.84 367.18H231.45C221.78 367.18 221.79 352.18 231.45 352.18H342.84Z" fill="#231815"/>
<path id="Vector_9" d="M336 380.47C340.83 380.47 343.25 384.22 343.24 387.97H239.46C239.46 384.22 241.88 380.47 246.7 380.47H336Z" fill="#231815"/>
<path id="Vector_10" d="M239.46 388H343.21C343.21 391.75 340.8 395.5 335.97 395.5H246.7C241.87 395.47 239.46 391.72 239.46 388Z" fill="#231815"/>
<path id="Vector_11" d="M341.56 245.71C342.008 244.809 342.267 243.825 342.32 242.82C342.32 243.93 342.27 245.04 342.21 246.14L341.56 245.71Z" fill="#231815"/>
<path id="Vector_12" d="M328.17 238.75C332.863 240.614 337.351 242.96 341.56 245.75C339.93 248.98 335.96 250.14 332.63 249.23C331.63 248.71 330.72 248.23 329.74 247.75C328.961 247.074 328.341 246.234 327.924 245.29C327.507 244.346 327.305 243.321 327.33 242.29C327.314 241.059 327.603 239.843 328.17 238.75V238.75Z" fill="#231815"/>
<path id="Vector_13" d="M341.56 245.71C337.351 242.92 332.863 240.574 328.17 238.71C331.27 232.87 341.93 233.87 342.32 241.71C342.32 241.88 342.32 242.05 342.32 242.22V242.29C342.32 242.43 342.32 242.57 342.32 242.71V242.79C342.271 243.805 342.012 244.799 341.56 245.71V245.71Z" fill="#231815"/>
<path id="Vector_14" d="M332.63 249.19C335.96 250.1 339.93 248.94 341.56 245.71L342.21 246.14C342.07 249.09 341.8 252.02 341.39 254.91C338.621 252.781 335.693 250.869 332.63 249.19Z" fill="#231815"/>
<path id="Vector_15" d="M318.34 101.19C323.17 92.83 336.13 100.39 331.29 108.76L314.47 137.91C309.64 146.28 296.68 138.71 301.47 130.34L318.34 101.19Z" fill="#231815"/>
<path id="Vector_16" d="M342.32 241.74C341.93 233.91 331.27 232.91 328.17 238.74L327.17 238.36C327.016 235.583 326.719 232.816 326.28 230.07C331.809 231.876 337.121 234.287 342.12 237.26C342.23 238.76 342.3 240.24 342.32 241.74Z" fill="#231815"/>
<path id="Vector_17" d="M328.17 238.75C327.609 239.831 327.321 241.032 327.33 242.25C327.33 240.95 327.27 239.66 327.2 238.37L328.17 238.75Z" fill="#231815"/>
<path id="Vector_18" d="M327.33 242.25C327.304 243.281 327.507 244.306 327.924 245.25C328.34 246.194 328.961 247.034 329.74 247.71C328.9 247.29 328.04 246.9 327.17 246.52C327.26 245.1 327.32 243.68 327.33 242.25Z" fill="#231815"/>
<path id="Vector_19" d="M220.54 263.5C224.667 263.498 228.784 263.906 232.83 264.72V264.72C235.16 265.184 237.46 265.785 239.72 266.52C248.962 252.618 262.647 242.263 278.537 237.148C294.428 232.033 311.584 232.46 327.2 238.36C327.27 239.65 327.32 240.94 327.33 242.24C327.34 243.54 327.26 245.09 327.17 246.51C322.733 244.577 318.099 243.132 313.35 242.2C287.62 237.2 260.84 248.77 246.2 270.31C244.36 273.01 241.07 274.78 237.73 273.75C222.84 269.16 206.88 270.42 193.3 278.25C187.945 281.327 183.158 285.301 179.15 290C177.604 287.895 176.172 285.709 174.86 283.45C180.679 277.145 187.744 272.116 195.607 268.682C203.47 265.248 211.96 263.483 220.54 263.5Z" fill="#231815"/>
<path id="Vector_20" d="M241.72 259.3C240.07 258.79 238.41 258.36 236.72 257.98C245.91 246.166 258.15 237.083 272.12 231.711C286.09 226.338 301.262 224.879 316 227.49C319.509 228.115 322.97 228.98 326.36 230.08C326.798 232.826 327.096 235.593 327.25 238.37C311.634 232.47 294.478 232.043 278.587 237.158C262.697 242.274 249.012 252.628 239.77 266.53C237.511 265.795 235.21 265.194 232.88 264.73V264.73L233.3 262.73L241.72 259.3Z" fill="#231815"/>
<path id="Vector_21" d="M261.39 162C277.85 165.399 292.883 173.737 304.482 185.901C316.082 198.065 323.696 213.477 326.31 230.08C322.936 228.982 319.492 228.117 316 227.49C301.263 224.885 286.094 226.349 272.128 231.725C258.162 237.101 245.926 246.186 236.74 258C225.146 255.358 213.075 255.667 201.631 258.899C190.188 262.131 179.738 268.183 171.24 276.5C165.754 264.316 163.288 250.988 164.052 237.647C164.817 224.307 168.788 211.348 175.63 199.87C193.17 170.91 228.11 155.25 261.39 162Z" fill="#F8B62D"/>
<path id="Vector_22" d="M253.06 83.74V117.4C253.06 127.06 238.06 127.05 238.06 117.4V83.74C238.06 74.07 253.06 74.09 253.06 83.74Z" fill="#231815"/>
<path id="Vector_23" d="M241.72 259.3L233.25 262.74C234.36 261.11 235.53 259.52 236.74 257.98C238.41 258.36 240.07 258.79 241.72 259.3Z" fill="#231815"/>
<path id="Vector_24" d="M236.74 258C235.53 259.54 234.36 261.13 233.25 262.76L232.83 264.76C222.364 262.653 211.532 263.272 201.375 266.559C191.218 269.846 182.077 275.69 174.83 283.53C173.507 281.259 172.299 278.922 171.21 276.53C179.709 268.203 190.162 262.143 201.611 258.905C213.06 255.668 225.139 255.356 236.74 258V258Z" fill="#231815"/>
<path id="Vector_25" d="M189.61 130.34C194.45 138.72 181.48 146.27 176.61 137.91L159.78 108.76C154.94 100.38 167.91 92.84 172.73 101.19L189.61 130.34Z" fill="#231815"/>
<path id="Vector_26" d="M158.31 325.74C158.306 333.915 159.913 342.01 163.038 349.564C166.164 357.117 170.747 363.981 176.526 369.763C182.305 375.544 189.166 380.131 196.718 383.26C204.271 386.389 212.365 388 220.54 388H227.78C227.78 391.78 225.4 395.56 220.54 395.5C202.974 395.383 186.077 388.751 173.12 376.89C149.84 355.47 144.3 319.75 159.46 292.1C159.96 291.18 160.46 290.28 161.03 289.39C161.56 290.39 162.11 291.31 162.68 292.25C163.59 293.75 164.55 295.25 165.54 296.65C160.787 305.609 158.304 315.598 158.31 325.74V325.74Z" fill="#231815"/>
<path id="Vector_27" d="M174.86 283.49C176.172 285.749 177.604 287.935 179.15 290.04C175.699 294.085 172.847 298.604 170.68 303.46C168.867 301.273 167.153 298.993 165.54 296.62C168.063 291.857 171.196 287.443 174.86 283.49Z" fill="#231815"/>
<path id="Vector_28" d="M175.63 199.85C168.788 211.328 164.817 224.287 164.053 237.627C163.288 250.968 165.754 264.296 171.24 276.48C167.321 280.346 163.883 284.67 161 289.36C141.73 254.87 146 211.2 171 180.61C196.37 149.56 240.58 137.36 278.27 151.18C296.125 157.777 311.673 169.432 323.013 184.72C334.354 200.009 340.997 218.269 342.13 237.27C337.131 234.297 331.819 231.886 326.29 230.08C323.677 213.479 316.066 198.07 304.47 185.906C292.875 173.743 277.847 165.403 261.39 162C228.11 155.25 193.17 170.91 175.63 199.85Z" fill="#231815"/>
<path id="Vector_29" d="M171.24 276.48C172.329 278.872 173.537 281.209 174.86 283.48C171.196 287.433 168.063 291.847 165.54 296.61C164.54 295.17 163.59 293.71 162.68 292.21C162.11 291.27 161.56 290.31 161.03 289.35C163.904 284.666 167.332 280.344 171.24 276.48V276.48Z" fill="#231815"/>
<path id="Vector_30" d="M227.78 388H220.54C209.81 387.998 199.264 385.222 189.923 379.941C180.583 374.661 172.766 367.056 167.232 357.864C161.697 348.672 158.633 338.205 158.337 327.479C158.04 316.754 160.522 306.134 165.54 296.65C167.16 299.023 168.873 301.303 170.68 303.49C165.487 314.982 164.427 327.916 167.68 340.1C174.16 363.9 196.02 380.23 220.52 380.5C225.34 380.52 227.75 384.25 227.78 388Z" fill="#231815"/>
<path id="Vector_31" d="M141.22 173.35C149.59 178.18 142.02 191.14 133.65 186.3L104.5 169.47C96.1399 164.64 103.7 151.69 112.07 156.47L141.22 173.35Z" fill="#231815"/>
<path id="Vector_32" d="M133.65 298.2C142.03 293.36 149.58 306.33 141.22 311.2L112.07 328C103.69 332.84 96.1499 319.88 104.5 315.05L133.65 298.2Z" fill="#231815"/>
<path id="Vector_33" d="M120.71 234.75C130.37 234.75 130.36 249.75 120.71 249.75H87.0499C77.3799 249.75 77.3999 234.75 87.0499 234.75H120.71Z" fill="#231815"/>
</g>
</g>
</svg>
