<svg width="500" height="500" viewBox="0 0 500 500" fill="none" xmlns="http://www.w3.org/2000/svg">
<g id="50n">
<g id="50n_2">
<path id="Vector" d="M189.85 250.46C195.382 242.395 202.602 235.629 211.01 230.631C219.417 225.634 228.811 222.525 238.54 221.52C244.701 220.902 250.92 221.185 257 222.36C257.1 222.36 257.19 222.41 257.29 222.42C267.416 224.454 276.936 228.797 285.109 235.113C293.282 241.428 299.887 249.544 304.41 258.83C305.803 261.68 306.986 264.628 307.95 267.65C308.298 268.901 308.964 270.04 309.882 270.958C310.8 271.876 311.939 272.542 313.19 272.89C320.073 274.376 326.527 277.413 332.06 281.77C337.007 285.625 341.08 290.486 344.011 296.031C346.941 301.577 348.662 307.681 349.06 313.94C349.221 316.609 349.138 319.287 348.81 321.94C348.32 325.858 347.293 329.691 345.76 333.33C342.308 341.348 336.607 348.194 329.347 353.04C322.087 357.887 313.578 360.527 304.85 360.64C300.07 360.7 297.66 364.42 297.61 368.14H286.87C286.87 364.39 284.46 360.64 279.62 360.64H190.36C185.53 360.64 183.11 364.39 183.11 368.14H171.43C171.43 364.42 168.99 360.69 164.19 360.64C139.69 360.37 117.83 344.04 111.36 320.24C108.273 308.548 109.109 296.166 113.741 284.996C118.373 273.826 126.545 264.486 137 258.41C143.292 254.786 150.257 252.486 157.47 251.65C162.829 251.022 168.25 251.16 173.57 252.06C176.228 252.5 178.854 253.118 181.43 253.91C184.72 254.94 188 253.17 189.85 250.46ZM286.49 347.33C294.49 347.33 295.88 336.93 290.49 333.45C289.294 332.695 287.904 332.305 286.49 332.33H175.1C165.45 332.33 165.43 347.33 175.1 347.33H286.49Z" fill="#DCDDDD"/>
<path id="Vector_2" d="M404.51 269.68C395.569 290.185 381.56 308.08 363.8 321.68C364.377 315.508 363.948 309.284 362.53 303.25C370.276 296.068 377.047 287.902 382.67 278.96C388.58 277.435 394.372 275.483 400 273.12L391.53 262.12L390.97 260.64C392.66 260.03 394.35 259.37 396.02 258.64C402.85 255.81 406.71 264.59 404.51 269.68Z" fill="#231815"/>
<path id="Vector_3" d="M391.55 262.11L400.02 273.11C394.385 275.464 388.586 277.406 382.67 278.92C386.062 273.556 389.031 267.936 391.55 262.11V262.11Z" fill="#231815"/>
<path id="Vector_4" d="M391 260.63L391.56 262.11C389.042 267.939 386.073 273.563 382.68 278.93C373.147 281.393 363.363 282.759 353.52 283C349.283 276.846 343.943 271.53 337.77 267.32C355.791 269.161 373.995 266.873 391 260.63V260.63Z" fill="#231815"/>
<path id="Vector_5" d="M367.51 161.34C373.1 160.67 365.56 168.34 368.89 169.25L368.24 169.05C366.903 168.616 365.735 167.774 364.901 166.642C364.067 165.51 363.609 164.146 363.59 162.74C364.22 162.49 364.85 162.24 365.48 162.02C366.132 161.726 366.812 161.499 367.51 161.34V161.34Z" fill="#231815"/>
<path id="Vector_6" d="M365.48 162C364.85 162.22 364.22 162.47 363.59 162.72C363.39 158.14 367.11 153.21 372.87 154.77C382.15 157.43 378.18 171.89 368.87 169.23C365.54 168.33 373.08 160.65 367.49 161.32C366.799 161.48 366.126 161.708 365.48 162V162Z" fill="#231815"/>
<path id="Vector_7" d="M382.67 278.93C377.047 287.872 370.276 296.038 362.53 303.22C360.818 295.974 357.766 289.113 353.53 282.99C363.366 282.751 373.143 281.388 382.67 278.93V278.93Z" fill="#F4EC90"/>
<path id="Vector_8" d="M363.64 323.28C361.813 337.634 354.851 350.842 344.043 360.463C333.235 370.084 319.309 375.468 304.84 375.62C299.97 375.69 297.56 371.9 297.6 368.12H304.84C316.608 368.118 328.024 364.106 337.206 356.746C346.388 349.385 352.788 339.116 355.35 327.63C358.237 325.75 361.053 323.75 363.8 321.63C363.74 322.19 363.7 322.74 363.64 323.28Z" fill="#231815"/>
<path id="Vector_9" d="M368.24 169C364.863 167.991 361.594 166.651 358.48 165C359.12 164.67 359.75 164.34 360.41 164C361.41 163.52 362.52 163.08 363.59 162.65C363.601 164.063 364.055 165.436 364.89 166.576C365.725 167.715 366.897 168.563 368.24 169V169Z" fill="#231815"/>
<path id="Vector_10" d="M356 308.8C358.24 307.02 360.406 305.16 362.5 303.22C363.918 309.254 364.347 315.478 363.77 321.65C361.03 323.75 358.213 325.75 355.32 327.65C356.141 323.953 356.557 320.177 356.56 316.39C356.562 313.85 356.375 311.313 356 308.8V308.8Z" fill="#231815"/>
<path id="Vector_11" d="M356 308.8C356.374 311.306 356.561 313.836 356.56 316.37C356.556 320.157 356.141 323.933 355.32 327.63C352.2 329.63 349 331.523 345.72 333.31C347.253 329.671 348.279 325.838 348.77 321.92C349.098 319.267 349.181 316.589 349.02 313.92C351.433 312.313 353.76 310.607 356 308.8Z" fill="#231815"/>
<path id="Vector_12" d="M355.35 327.63C352.788 339.116 346.388 349.385 337.206 356.746C328.024 364.106 316.608 368.118 304.84 368.12H297.6C297.65 364.4 300.06 360.68 304.84 360.62C313.569 360.507 322.077 357.867 329.337 353.02C336.598 348.174 342.298 341.328 345.75 333.31C349.03 331.55 352.23 329.657 355.35 327.63Z" fill="#231815"/>
<path id="Vector_13" d="M344.3 282.9C350.556 290.262 354.611 299.239 356 308.8C353.74 310.6 351.407 312.313 349 313.94C348.602 307.681 346.881 301.577 343.951 296.031C341.021 290.486 336.947 285.625 332 281.77C336.1 282.33 340.2 282.707 344.3 282.9Z" fill="#231815"/>
<path id="Vector_14" d="M314.07 262.37C321.779 264.827 329.721 266.483 337.77 267.31C343.943 271.523 349.284 276.842 353.52 283C350.45 283.08 347.37 283.05 344.3 282.91C336.802 274.059 326.546 267.987 315.18 265.67C314.84 264.55 314.47 263.46 314.07 262.37Z" fill="#231815"/>
<path id="Vector_15" d="M344.3 282.9C347.37 283.04 350.45 283.07 353.52 282.99C357.756 289.113 360.808 295.974 362.52 303.22C360.42 305.16 358.253 307.02 356.02 308.8C354.625 299.237 350.563 290.26 344.3 282.9Z" fill="#231815"/>
<path id="Vector_16" d="M336.56 143.18C335.576 141.329 334.701 139.423 333.94 137.47C333.423 136.398 333.03 135.271 332.77 134.11C332.64 133.65 332.5 133.2 332.37 132.74H340.68C340.68 134.15 339.6 136.21 339.11 137.47C338.35 139.41 337.51 141.32 336.56 143.18Z" fill="#231815"/>
<path id="Vector_17" d="M309.56 167.42C311.29 166.72 313 165.96 314.66 165.11C318.686 167.218 322.427 169.833 325.79 172.89C330.154 176.892 333.779 181.631 336.5 186.89C334.96 189.69 333.18 193.05 332.77 196.06C332.42 198.59 330.63 197.44 336.53 197.44C341.38 197.44 341.05 198.44 340.07 195.38C339.417 193.419 338.663 191.493 337.81 189.61C337.41 188.69 336.96 187.79 336.5 186.89L337.09 185.82C342.072 176.97 349.498 169.741 358.48 165C361.594 166.651 364.863 167.991 368.24 169L368.89 169.2C378.18 171.86 382.15 157.4 372.89 154.74C375.376 155.44 377.525 157.014 378.942 159.174C380.358 161.333 380.947 163.931 380.6 166.49C379.89 171.76 376.14 174.15 371.52 175.75C362.07 179.04 354.46 185.07 349.73 193.97C347.73 197.69 347.3 202.43 344.52 205.64C343.034 207.311 341.06 208.472 338.877 208.959C336.695 209.445 334.415 209.232 332.36 208.35C327.36 206.23 326.7 201.83 324.92 197.35C323.509 193.763 321.531 190.427 319.06 187.47C316.187 184.044 312.73 181.152 308.85 178.93C305.37 176.93 301.39 176.33 297.94 174.43C295.832 173.27 294.173 171.437 293.231 169.223C292.288 167.01 292.115 164.544 292.74 162.22C293.99 157.68 297.45 155.75 301.57 154.37C309.584 151.859 316.514 146.71 321.23 139.76C325.68 132.96 326.41 120.48 336.99 120.89C346.89 121.28 347.55 133.17 351.86 139.76C356.839 147.112 364.29 152.434 372.86 154.76C367.1 153.2 363.38 158.13 363.58 162.71C362.51 163.14 361.44 163.58 360.4 164.06C359.74 164.36 359.11 164.69 358.47 165.06C349.132 160.138 341.493 152.517 336.55 143.19C337.5 141.33 338.34 139.42 339.1 137.48C339.59 136.22 340.68 134.16 340.67 132.75H332.36C332.49 133.21 332.63 133.66 332.76 134.12C333.02 135.281 333.413 136.408 333.93 137.48C334.691 139.433 335.566 141.339 336.55 143.19C335.92 144.41 335.26 145.61 334.55 146.77C330.729 152.747 325.764 157.91 319.94 161.96C318.257 163.131 316.496 164.187 314.67 165.12C312.174 163.808 309.58 162.695 306.91 161.79C306.037 161.391 305.116 161.108 304.17 160.95V165.11C302.836 168.497 303.066 169.813 304.86 169.06C306.23 169.09 308.25 167.94 309.56 167.42Z" fill="#231815"/>
<path id="Vector_18" d="M336.5 186.91C336.96 187.81 337.41 188.71 337.81 189.63C338.663 191.513 339.418 193.439 340.07 195.4C341.07 198.47 341.38 197.46 336.53 197.46C330.63 197.46 332.42 198.61 332.77 196.08C333.18 193.07 335 189.71 336.5 186.91Z" fill="#231815"/>
<path id="Vector_19" d="M336.5 186.91C333.779 181.651 330.154 176.912 325.79 172.91C322.427 169.853 318.687 167.238 314.66 165.13C316.486 164.197 318.247 163.141 319.93 161.97C325.754 157.92 330.719 152.757 334.54 146.78C335.27 145.62 335.93 144.42 336.54 143.2C341.5 152.504 349.145 160.1 358.48 165C349.503 169.733 342.077 176.951 337.09 185.79L336.5 186.91Z" fill="white"/>
<path id="Vector_20" d="M344.3 282.9C340.2 282.707 336.12 282.33 332.06 281.77C326.528 277.413 320.074 274.376 313.19 272.89C311.94 272.542 310.8 271.876 309.882 270.958C308.964 270.04 308.299 268.901 307.95 267.65C306.986 264.628 305.803 261.68 304.41 258.83C307.58 260.15 310.81 261.33 314.07 262.37C314.47 263.46 314.84 264.55 315.18 265.66C326.546 267.977 336.802 274.049 344.3 282.9V282.9Z" fill="#231815"/>
<path id="Vector_21" d="M322.42 263.66L317.18 258.43C318.44 258.7 319.68 259.03 320.9 259.38C321.44 260.79 322 262.22 322.42 263.66Z" fill="#231815"/>
<path id="Vector_22" d="M317.18 258.43L322.42 263.66C321.95 262.22 321.42 260.79 320.9 259.38C326.911 261.105 332.606 263.783 337.77 267.31C329.721 266.483 321.779 264.827 314.07 262.37C309.299 249.217 300.886 237.692 289.812 229.14C278.739 220.588 265.462 215.361 251.53 214.07C249.957 211.57 248.487 209.017 247.12 206.41C251.308 206.509 255.483 206.921 259.61 207.64C287.74 212.59 310.86 233.04 320.9 259.38C319.68 259 318.44 258.7 317.18 258.43Z" fill="#231815"/>
<path id="Vector_23" d="M308.31 388.91C317.98 388.91 317.96 403.91 308.31 403.91H208.1C198.43 403.91 198.45 388.91 208.1 388.91H308.31Z" fill="#231815"/>
<path id="Vector_24" d="M304.85 169C303.057 169.76 302.827 168.443 304.16 165.05V160.89C305.106 161.048 306.028 161.331 306.9 161.73C309.57 162.635 312.165 163.748 314.66 165.06C313 165.91 311.29 166.67 309.56 167.37C308.25 167.94 306.23 169.09 304.85 169Z" fill="#231815"/>
<path id="Vector_25" d="M251.53 214.07C265.462 215.361 278.739 220.588 289.812 229.14C300.886 237.692 309.299 249.217 314.07 262.37C310.81 261.37 307.58 260.15 304.41 258.83C299.887 249.544 293.282 241.428 285.11 235.113C276.937 228.797 267.416 224.454 257.29 222.42C255.24 219.71 253.31 216.93 251.53 214.07Z" fill="#231815"/>
<path id="Vector_26" d="M236.8 339.83C233.3 338.497 229.86 337.013 226.48 335.38C224.48 334.42 222.517 333.42 220.59 332.38H266.71C274.589 333.552 282.566 333.927 290.52 333.5C295.88 336.98 294.52 347.38 286.52 347.38H265.81C255.887 345.962 246.155 343.43 236.8 339.83V339.83Z" fill="#231815"/>
<path id="Vector_27" d="M286.87 368.12H183.11C183.11 364.37 185.53 360.62 190.36 360.62H279.62C284.46 360.62 286.87 364.37 286.87 368.12Z" fill="#231815"/>
<path id="Vector_28" d="M183.11 368.12H286.87C286.87 371.87 284.45 375.62 279.62 375.62H190.36C185.52 375.62 183.11 371.87 183.11 368.12Z" fill="#231815"/>
<path id="Vector_29" d="M290.52 333.45C282.566 333.877 274.589 333.502 266.71 332.33H286.49C287.914 332.299 289.316 332.689 290.52 333.45V333.45Z" fill="#231815"/>
<path id="Vector_30" d="M251.53 214.07C253.31 216.93 255.24 219.71 257.29 222.42C257.19 222.42 257.1 222.42 257 222.36C250.92 221.185 244.701 220.902 238.54 221.52C237.11 219.21 235.77 216.86 234.49 214.52C237.892 214.042 241.324 213.802 244.76 213.8C247 213.76 249.3 213.87 251.53 214.07Z" fill="#231815"/>
<path id="Vector_31" d="M231.07 207.63C236.351 206.704 241.71 206.295 247.07 206.41C248.443 209.01 249.913 211.563 251.48 214.07C249.25 213.87 246.99 213.76 244.71 213.76C241.274 213.762 237.842 214.002 234.44 214.48C233.28 212.23 232.14 209.94 231.07 207.63Z" fill="#231815"/>
<path id="Vector_32" d="M247.12 206.41C241.76 206.295 236.401 206.704 231.12 207.63C218.166 179.945 215.188 148.631 222.69 119C228.059 115.598 233.686 112.622 239.52 110.1L240.99 110.65C235.274 126.156 232.866 142.686 233.922 159.179C234.978 175.671 239.474 191.759 247.12 206.41V206.41Z" fill="#231815"/>
<path id="Vector_33" d="M231.94 97.12C237.08 94.9 245.82 98.74 242.94 105.59C242.24 107.26 241.59 108.93 240.94 110.59L239.47 110.04L228.47 101.57L227.33 99.19C228.87 98.48 230.4 97.79 231.94 97.12Z" fill="#231815"/>
<path id="Vector_34" d="M239.52 110.07C233.686 112.592 228.059 115.568 222.69 118.97C224.206 113.048 226.147 107.242 228.5 101.6L239.52 110.07Z" fill="#231815"/>
<path id="Vector_35" d="M236.8 339.83C246.154 343.412 255.882 345.928 265.8 347.33H175.1C165.43 347.33 165.45 332.33 175.1 332.33H220.59C222.53 333.403 224.493 334.403 226.48 335.33C229.86 336.99 233.3 338.49 236.8 339.83Z" fill="#231815"/>
<path id="Vector_36" d="M234.49 214.48C235.77 216.86 237.11 219.21 238.54 221.48C228.811 222.485 219.418 225.594 211.01 230.591C202.603 235.589 195.382 242.354 189.85 250.42C188.01 253.13 184.72 254.9 181.38 253.87C178.804 253.078 176.179 252.46 173.52 252.02C172.69 249.38 171.95 246.72 171.31 244.02C175.41 244.494 179.453 245.372 183.38 246.64C189.143 237.973 196.678 230.625 205.488 225.082C214.298 219.538 224.182 215.925 234.49 214.48V214.48Z" fill="#231815"/>
<path id="Vector_37" d="M227.36 99.22L228.5 101.6C226.146 107.252 224.204 113.067 222.69 119C197.878 134.523 179.79 158.788 172 187C167.651 203.156 166.894 220.069 169.78 236.55C164.651 236.175 159.497 236.363 154.41 237.11C150.215 209.342 155.043 180.961 168.184 156.142C181.325 131.323 202.085 111.378 227.41 99.24L227.36 99.22Z" fill="#231815"/>
<path id="Vector_38" d="M172 187C179.798 158.783 197.897 134.518 222.72 119C215.195 148.635 218.156 179.96 231.1 207.66C211.025 211.228 192.977 222.086 180.42 238.15C176.92 237.345 173.363 236.813 169.78 236.56C166.892 220.076 167.65 203.16 172 187V187Z" fill="#F4EC90"/>
<path id="Vector_39" d="M185.37 239.45L176.9 242.89C178.01 241.25 179.18 239.67 180.39 238.12C182.06 238.51 183.72 238.94 185.37 239.45Z" fill="#231815"/>
<path id="Vector_40" d="M183.38 246.68C179.453 245.412 175.41 244.534 171.31 244.06C170.71 241.573 170.19 239.063 169.75 236.53C173.333 236.783 176.89 237.315 180.39 238.12C179.18 239.67 178.01 241.25 176.9 242.89L185.37 239.45C183.72 238.94 182.06 238.51 180.37 238.12C192.927 222.056 210.975 211.198 231.05 207.63C232.12 209.94 233.26 212.23 234.47 214.48C224.162 215.933 214.28 219.553 205.473 225.104C196.667 230.654 189.137 238.008 183.38 246.68V246.68Z" fill="#231815"/>
<path id="Vector_41" d="M164.19 243.65C166.569 243.655 168.946 243.792 171.31 244.06C171.95 246.76 172.69 249.42 173.52 252.06C168.2 251.16 162.779 251.022 157.42 251.65C156.76 249.2 156.17 246.74 155.65 244.25C158.48 243.858 161.333 243.658 164.19 243.65V243.65Z" fill="#231815"/>
<path id="Vector_42" d="M169.75 236.53C170.19 239.057 170.71 241.567 171.31 244.06C168.946 243.792 166.569 243.655 164.19 243.65C161.333 243.658 158.48 243.858 155.65 244.25C155.163 241.877 154.74 239.49 154.38 237.09C159.467 236.343 164.621 236.155 169.75 236.53V236.53Z" fill="#231815"/>
<path id="Vector_43" d="M102 305.89C102 290.865 107.436 276.348 117.305 265.018C127.173 253.689 140.807 246.312 155.69 244.25C156.21 246.74 156.8 249.2 157.46 251.65C150.251 252.487 143.289 254.788 137 258.41C126.558 264.492 118.4 273.833 113.777 284.998C109.155 296.163 108.323 308.537 111.41 320.22C117.88 344.02 139.74 360.35 164.24 360.62C169.04 360.67 171.45 364.4 171.48 368.12H164.24C156.067 368.121 147.974 366.513 140.423 363.386C132.871 360.259 126.01 355.676 120.23 349.897C114.451 344.118 109.866 337.257 106.738 329.707C103.61 322.156 102 314.063 102 305.89V305.89Z" fill="#231815"/>
<path id="Vector_44" d="M154.38 237.09C154.74 239.49 155.163 241.877 155.65 244.25C140.037 246.415 125.828 254.424 115.892 266.66C105.955 278.895 101.032 294.445 102.116 310.17C103.2 325.895 110.211 340.622 121.733 351.378C133.254 362.134 148.428 368.118 164.19 368.12H171.43C171.43 371.9 169.06 375.67 164.19 375.62C146.626 375.5 129.731 368.865 116.78 357C93.4899 335.59 87.9999 299.87 103.11 272.22C108.359 262.8 115.721 254.725 124.617 248.63C133.512 242.534 143.7 238.584 154.38 237.09V237.09Z" fill="#231815"/>
</g>
</g>
</svg>
